<svg xmlns="http://www.w3.org/2000/svg" viewBox="0 0 32 32">
  <!-- Background -->
  <rect width="32" height="32" rx="6" fill="#C4785B"/>

  <!-- Knit stitch pattern (simplified) -->
  <g fill="none" stroke="#F9F7F2" stroke-width="1.5" stroke-linecap="round">
    <!-- V shapes representing knit stitches -->
    <path d="M8 10 L11 14 L14 10"/>
    <path d="M14 10 L17 14 L20 10"/>
    <path d="M20 10 L23 14 L26 10"/>

    <path d="M5 16 L8 20 L11 16"/>
    <path d="M11 16 L14 20 L17 16"/>
    <path d="M17 16 L20 20 L23 16"/>
    <path d="M23 16 L26 20 L29 16"/>

    <path d="M8 22 L11 26 L14 22"/>
    <path d="M14 22 L17 26 L20 22"/>
    <path d="M20 22 L23 26 L26 22"/>
  </g>
</svg>
