<svg xmlns="http://www.w3.org/2000/svg" width="2276" height="565" viewBox="0 0 2276 565"><g transform="translate(-283.677 -473.948)"><path d="M2419 1034v-1h-1v1zm3-1v-1h-1v1zm-21-2v-1h-1v1zm-363-2v-2h-3l1 1zm334-2v-1h-1v1zm-986-1 1-2 2-1v-2l-2 2zm649 0v-1h-1v1zm4 0v-1h-1v1zm392-3h2l3-2 3-1 1-2 1-2-2 2-3 2-4 1-3 2zm-437-1v-2h-2l1 1zm-572-1v-1h-1v1zm125 0v-2h-1v2zm674 0h1v-2h-2v2zm-829-1v-1h-1v1zm332-2 2-1-1-1v-1h-3v1l1 1zm-217 0v-1h-1v1zm564 0-1-1h-1v1zm306 0 2-2 1-2h-1l-2 2zm-828-1h1v-2h-1l-1 1v1zm302 0v-1h-1v1zm17 0h3l-2-1h-2l-1 1zm328 0v-1h-1v1zm261 0v-1h-1v1zm-1030-1v-1h-1v1zm87-1h1v-2h-4l1 1zm725 0 1-1v-1h-2l-1 1v1zm197 0h1v-2h-3v1zm25 0h-1v1zm-452-1v-2h-1v2zm66 0v-1h-1v1zm329 0h1v-2l-1 1h-2v1zm-1314-1v-4h-3v2l1 1zm767 0h1l-1-2-1-1h-1v2zm518 0h3v-1h-2l-2-1-1 1v1zm32 0 3-3 4-3-4 3zm-1182-3 2-1-2-3-1-3h-3l-1 1-1 1v2h3l2-1v2l-2 1-1 1 1 1 1 1zm-126 1v-1h-1v1zm344 0v-1h-1v1zm90 0v-1h-1v1zm431 0h1v-1l-1-1h-1v2zm44 0v-2h-1v2zm-561-1h1v-2h-2v2zm1002 0v-2h-1v2zm-1357-1-1-3v-3h-2l-1 2-1 3h2zm1184 0v-1h-1v1zm-1189-1v-1h-1v1zm920 0v-1h-1v1zm242 0v-2h-1v2zm-650-1v-3h-3l1 2zm-363-1h1l-1-1v-1h-4l1 1 2 1zm277-1-1-2v-1h-1v2zm737 0 1-1v-1h-1l-1 1zm184 0h2v-1h-2l-1 1zm-58-1v-2h-1v2zm-858-1h1l-1-1v-1h-2v2zm949 0v-2h-2v1zm-1241-1v-1h-1v1zm296 0v-1h-1v1zm503-1v-1h-1v1zm234 0v-1l1-1h-2v2zm-1035-1v-1h-1v1zm1237-1h2l-1-1v-1l-2 1h-2l1 1v1zm-1244 0h3l-2-1-1-1h-3l1 1v1zm1040 0v-1h-1v1zm137 0h1l2-2 2-2v-2h-2l-2 3-2 3zm-1040-1v-1h-1v1zm334 0-1-1h-1v1zm219 0h1zh-2v1zm134 0v-1h-1v1zm-562-1v-1h-1v1zm31 0 6-1v-2h-6l-4-1-3-1v1h-1l2 2 1 2zm30 0 3-1 1-1v-1h-3l-4 1h-4l2 1 1 1zm719 0v-1h-1v2Zm160 0h1v-2h-1v1l-1 1zm-1307-1h1zh-2v1zm862 0v-1h-1v1zm507 0 3-1 3-1h2v-3l-2 1h-1l-3 1h-2l-1 2-1 1zm-795-1v-1h-1v1zm146 0 1-1v-1h-2l-1 1v1zm-105-1h1v-1l-1-1h-1v2Zm534 0h1v-3h-2v3zm176 0h1l3-2 3-1v-2l1-1h-1l-1-1-3 4zm-716-1h1zh-2v1zm9 0h1l3-2 3-1v-2h-3v2h-4v-1l-1-1v5Zm-329-2h2v-1l-1-1h-3l-1-2-1-3-2 1h-2v3l3 1 4 2zm170 0h1zh-2v1zm307 0v-1h-1v1zm11 0h2v-1h-1l-1-1v1l-1 1Zm-673-1h1v-1l-3-2-2-1 1 2zm136 0h1v-1l-6-4-6-5v3l5 3 5 4zm1095 0h2l2-1 3-1v-2l1-2 1-2v-2h-1l-1 3-1 3-3 1-3 1zv1Zm-1241-1-1-1h-1v1zm294 0h1v-1h-1zm651 0v-1h-1v1zm322 0h2l1-1 1-2h-1l-2 1-1 1-1 1Zm-1362-1h1v-5h-2v2zm279 0 1-2 1-2-1-1-1-1h-3l-1-2v-2h-3v2h3v2h-2v2l3-1h2v3h-2l1 1zm115-1v-1h-1v1zm377 0h2v-2h-4v2zm29 0v-1h-1v1zm-411-1v-1h-1v1zm620 0h1l4-2 3-2 1-2 1-2-2 1-1 1-4 3zm-161-1h1zh-2v1zm472 0v-2l-3-1-2-1h-2l-1 1v1h1l3 1h2l1 1zm18 0v-1h-1zm-1210-2v-2h-2v1l1 1v1zm113 1-1-1h-1v1zm25 0h1l-1-3v-3l-1-3-1-2-2-1-2-1 1 2 1 2v4h2v4h1zm317-1 1-1v-3h-3v5zm36 0 1-1 1-2h2l3-3 3-4v-1l1-1h-3l-1 2v2l-3 3-3 3-1-1h-1v-6l-1 2-1 2v3zm224 0v-1h-1v1zm129 0v-1h-1v1zm11-2 3-2v-1l-2 1h-2l-1 2-1 2zm403 2v-1h-1v1zm-1430-1v-1h-1v1zm789 0h1v-2h-2v2zm6 0h1v-2h-3l1 1zm576 0h1zh-2v1zm4 0h1l-1-2-1-1h-1v2zm-1046-1h2l-2-3-2-3h1v-1l-2-2-1-2-1-2v-1h2l2 3 2 2h3v2h4v2l1 1h3v3h2l2-2 2-2h2l1 1v-1l-1-1v-2h-2l-2 2-2 3-3-4-3-3-5-3-5-3h-4v-2h-3v4l1 4h3v3l-1 2 2 3 3 2zm124-35-1-2-1-2h2l1 2 1 2zm-15-24-1 2-1-3-2-3h-1l-1-1v-1l1-1 3 2 2 3zm-2-77h-2l1-2 1-2 2-1 2-2v5h-4l1 1v1zm57-36h-1v-1h1zm-7 172h1v-1l-9-5-10-4-4-4-3-4 4 2 4 2h3l2 2 2 1 1-1 1-1 2 1 3 1v-2l5 1 4 1 1 1v1l3 1 2 1h6v-2h-2l-2-1-2-2-1-2h2l3 2 3 1v-3l1 2 2 2h1l-2-2-1-3h-6l-2-2-2-1-3-1h-2l-2-1-1-2h5l6-1h6v-1l1-1-1-1v-2l-6-2-5-1 3-3 4-2 1-1 2-2h1l4-4 5-4 4-6 4-5v-5l3-4 3-5-1-1v-2l2-1 2-1 1-3 1-2-1-2-1-1v-3l1-3 1-6 1-5 2-4 2-4-1-1-1-5v-5l1-1 2-1v-7l1-2 2-2-1-4v-5l1-3 2-3v-1h-3l-1 2-1 2h-2v-4l-2-2-1-2v-2l-1-2h-3l-1-3v-2h-3l-3 1 1-3v-2h-1l-1-1v3h-2l-1-1-1-2h-5v-2l-2-1h-2l-4-1h-4l-1 1-1 1h-2l-2-1v-3h-3v1l-1 1h-4v-3h-2l-1 1v2l-2-1-3-1v1h-1l1 2 1 1v1h-1l-1-1-1-1-3 1h-3v3h-3v-1l-1-1-2 1-1 1-3 3-2 3h-2l-1-1v2h-3v2l-1 1h-3l-1 2-1 2-2-1h-2v1l1 2-2 2-2 1 1 1v1l-2 1h-1l-4 4-4 4 1 2v1l1-1h1v1l-1 2h-2v3l1 2v1h-1l-1-1-2-1v5l-1 1h-1v3h3l-1 1h-2l1 5v6h-2l-1-3v-2l-2-2-1-2v1l1 2 1 3v4h3l2 3 2 4-1 1v2l1 1 1 2h-2l-1 1 1 1 1 2v1l-1 1h3l-1 2-1 1 1 2 2 1v2l-1 1 1 2 1 1-1 1-2 2v1h5l-4 3-3 4-1-1-2 2-2 1v2l2-1 2-2h4l2 4 3 5h4v2l1 1v2l1 1 2 1 2 5 2 4v3l3 2 3 2 2-2 1-1h2v2l-1 2h2l2-1 2-1v2h-1l-2 1 2 1 2 1 4 2 4 1 2-1h1l2 1 2 1 1-2 1-2h4l1-1 1-2 4 1h4l2 1 1 1v2l-1-1h-1l-4-1h-5l-1 1-1 1v2l1 1h-2l-3-1v1l-1 1 1 1 1 1 6 2 6 1v3h-2l-3-1-3-2-3-1-3-1-2-2-1-1-1 1-2 2-3-2-2-3-2 1h-1l-5-3-5-3v2l2 2 3 3-1 2-1 2 3 4 3 4 5 3 4 2 5 2zm947 0h2v-3l-2 1h-3v2Zm-1097-3h1l-1-2-2-1h-1v1l1 1zm342-1 2-1v-4h-1l-1 3-2 3zm103 1h1l-1-1-1-1-2-1h-2l2 2 1 1zm234-1 1-1v-1h-2l-1 1v1zm160 0v-1h-1v1zm-813-2 1-1h2l-1-1v-1l-2 1h-1zm99-1v-1l-1-2-1-1-3-2-3-2v2l4 4 3 3zm21 1v-1h-1v1zm484 0h1v-2l-2-1h-1l-4-3-3-2h-1v1l2 2 3 2 2 2zm18 0 2-1 3-1v-2l-3 1-3 1zl-1 1Zm188 0h1v-1h-1zm155 0h1l-1-1v-1l-2-3-2-2h-3v2l3 2zm-533-1h1v-3l-2-1h-3l-2-1-1-2-2-1h-1v1l2 2 2 2h3l1 1zm224 0v-1l1-1-1 1h-2v1Zm320 0h1v-1h-1zm-168-1-2-2-2-1h-2l2 1 1 2zm-997-1v-1h-1v1zm196 0 1-1v-2l-1 1h-1v2zm614 0h1l1-2v-2h-1l-1 2-1 2zm-318-1 3-2 2-3h-2l-1 2v1h-4v2zm102 0h1l-1-1v-1h-2v2zm207 0 2-1 1-1h2l2-1v-2h-3l-3 3zm354 0v-2h-1v2Zm6 0v-1h-1v1zm-1147-1v-1h-1v1zm78 0-1-1-1-2h-1v1l1 2zm516 0h1v-2l-2-1-3-2v1l2 2zm21 0v-2h-1v2Zm150 0h1v-1l-1-1h-1v2Zm64-1 2-1v-2l-2 1-3 1v2zm357 1h1v-3h-2v3zm-1326-2 1-2h1l1-1v-1h-2l-2 1-1 2v3zm256 0v-1l-1-1-1-2v-6l-1-1-1-1-1 1-1 1 1 4 1 4 2 1 1 2zm5 1v-2h-1v2zm8 0v-1l-1-1h-2l1 2zm33 0h2v-2l-5-1-5-2v1h-1l3 2 3 2zm415 0v-1h-1v1zm207 0v-1h-1v1zm30 0v-1l1-1h-3v2zm-648-1h2l-1-3-1-2h-3v3l1 1zm307-1 3-2v-2l-3 1-3 2v2zm137 1h1v-2h-2l-1-1h-2l1 2 1 1zm363 0h2v-1l-2-1-2-1v3Zm14 0 2-1 1-1-1-1-1 2-2 1zm113 0v-1h-1v2Zm30 0v-1h-1v1zm65 0h1v-2h-3v2zm4 0v-1h-1v1zm-1206-1 1-1 1-2 1-2 1-3h-1l-1 1v3h-2l-1 2-1 2zm620 0v-1l1-2h-1v-1h-2v4zm196 0 1-1 1-1v-1h-2l-2 1v2Zm402 0 6-1 1-1 1-1-2-1-2-1-1 1v1h-4l-3 1h-2v2zm-1088-1h2l-2-2-2-2 1-3v-2l-1-2-1-3h-1l-1 1v8l2 3 1 2zm342 0h1v-2h-1l-2-1v2h1zm139 0v-2h-2l1 1zm152 0h1v-1h-2l-1-1 1 1zm21 0h3v-1l1-1h-3l-3-1h-2v2h1v1zm11 0v-1h-1v1zm30 0v-1h-1v1zm15 0h2l2-2 1-2h-3l-2 2-1 2zm178 0v-1l1-1h-1l-1-1-1 1h-1l1 1zm169 0h1v-1l-1-1h-1v2Zm-1102-1h1v-2h-1l-2-1 1 2zm356-1-1-1-1-1v-4l-2-1h-1l1 2 1 2h-1v1l2 1zm19 1 1-1h2l-1-1v-1h-3v3zm296 0h2l-3-1-2-2-1 1 1 1 1 1zm37 0v-1h-1v1zm6 0v-2h-1v2Zm11 0v-1h-1v1zm202-1-1-1-1-1h-1v1l1 1zm121 1h1zh-2v1zm67 0v-1h-1v1zm38 0h7l-1-1-1-1h-7l-7-1 1 2 1 1zm-1098-3 1-1v-2l-1-1h-2v2l-1 2v1l1 1zm336 2v-1h-1v1zm124 0v-7l-2 1-2 1 1 2 2 2zv1zm167 0v-2l1-1-3-2-2-1h-1v2l2 2zm81 0v-1h-1v1zm142-1v-1l-1-1-1-1v3h1v1zm9 1 3-2 4-2-3-1h-2l-2-2-2-1-6-1-5-1v1l2 3 3 2 2 1h3v2l1 1zm8 0v-1h-1v1zm156 0h1l-1-1v-1h-2l1 1zm46 0h2v-3h-3v3zm-1222-1h1v-2l-1 1h-2v1Zm20 0v-1h-1v1zm160 0 3-1 1-1 1-1-1-1-1-1-1 1h-1l-4-1-4-1h-1v1l3 3 2 2zm174 0h2l1-1 1-2h-2l-2-1h-6l-2-2-2-1-1 1h-2v2l2-1h2v2h3v2h2l2-1 1 1zm625 0-1-1v-2l1-3 2-2v-3h-2v3l-1 1-2 1v5h1zm8-1 2-1v-1l-2-2-2-2-2-1h-1l1 3 2 2v3zm158 1v-3l-1 1h-1l1 1zm115-1h1v-2l-1 1h-2v2zm9 1v-1h-1v1zm-1258-1 1-1v-2h-2v3zm176 0v-1h-1v1zm105 0-1-1v-2l-3-1-2-2h-1v1l3 3zm151 0h2v-4l1-3-1-1-1-1-1 3-1 3v3Zm176 0v-3l-1 1h-1l1 1zm8 0v-1l-2-1h-3v-2h-2v3l3 1zm3 0h2v-1l1-2-3 1h-2l1 1zm142 0v-1h-1v1zm12 0h1v-2h-1l-1 1v1zm-637-1v-2h-1v2zm13-1-2-1-1-2h1l-1-2-1-2-1 1h-1v2h3v1h-1l2 2 1 2zm328 1v-1h-1v1zm2 0h2l1-1h2v-2h-3l-2 1-1 2zm302 0h1v-2h4v-2l-2-1h-2l-1 1-1 2v2Zm380 0h1v-2h-2l-1-1h-1v2l1 1zm46 0v-1h-1v1zm12 0-4-3-3-3h-3l2 2 3 3h1l2 1zm-814-1v-1h-1v1zm87 0h1l3-2 4-3 2-2 3-2v-1h-1l-3 2-3 2-3 3zm297 0h1zh-2v1zm416 0v-1h-1v1zm-1384-1-1-1h-1v1zm134 0h2v-1h-2l-1 1zm33-1 1-2v-1h-2l-1 1v3zm126 1h1l2-3 1-4 3-3 3-3-1-2v-2h-1l-2 1 1 1v2l-2 2-2 2v3h-2v4l-1 1-1 1zm67 0h1v-1l-1-1h-1v2Zm66 0h1zh-2v1zm369 0h1v-2h-2v2zm147 0v-1h-1v1zm358 0v-1h-1v1zm81 0h1zh-2v1zm23 0h1v-2h-1l-2-1v3Zm-1090-2-1-1-1-1v2h1zm494 1h1v-1l-1-1h-1v2Zm4 0v-1h-1v1zm2 0h1zh-2v1Zm384 0h1v-1l-2-2-1-1h-2l2 2zm107 0-2-2-1-2h-1v1l2 2zm-937-1h2v-1h-1l-2-1-1 1v1zm57 0h1v-1l-1-1h-1v2Zm229 0v-2h-2l1 1zm93 0h1v-2h-2v2zm74 0h1v-2h-2l-2-1 1-1h1v-2h-7v-1l1-2 1-2v-1h-2v3l-2 1h-3l-2-1-3-1 1 2 1 2 2 1 2 1h5l3 2 3 2zm118 0h1l-1-2-1-1h-1v2zm263 0h1zh-2v1zm-718-1v-1h-1v1zm121 0h1v-2l-3-2-2-1v1l2 2zm12 0v-1h-1v2zm170 0h2l1-2v-1h-3l-2 1-1 1v1zm38-1h1l-1-1v-1l2 1 2 1 1-1 1-2 3 1h2v-2h-7l-4-1-4-2-3-1-1 1 1 1h1l1 2 2 1h2v1l-1 1 1 1v1zm573 1h2v-1h-2l-2-1v2Zm-1097-1h1v-2h-2v2zm20 0-1-1h-1v1zm470 0h1v-1h-1zm8 0h1zh-2v1zm339 0v-1h-1v1zm49 0h1l-1-1-2-2h-2v2h1l1-1v1zm-875-1v-3l1-2-1-1h-1v-3h-3l1 4v4h1zm195 0h1v-1h-1zm13 0h2v-2h-2l-1 1-1-2-2-1-1 1h-2v2l2-1h2v2Zm416 0v-1l-1-1h-2l1 2zm246 0v-1h-1v1zm126 0h1v-2h-3v1zm-1016-1v-1l-1-1v3zm732 0 1-1v-1h-3l1 1zm14 0h1zh-2v1zm67 0h1zh-2v1zm323 0v-1h-1v1zm-1070-1v-1h-1v1zm251 0v-1h-1v1zm3 0v-1h-1v1zm226 0h1zh-2v1zm203 0v-1h-1v1zm-1028-1v-2h-1v2Zm593 0h1v-2l-1-1h-1v3Zm9 0 1-1v-1h-2v2zm185 0h1l-1-1-1-2h-2l1 1zm197 0v-1h-1v1zm22 0v-1h-1v1zm91 0h2v-1h-2l-1 1zm177 0h1zh-2v1zm-1119-1v-1h-1v1zm192 0h1zh-2v1zm251-1 2-1v1l1 1v-4l-1-2-1-1-2 1-1 2 1 1h1zv2zm57 1 3-1 3-2 1-2v-3l1-1h2l1-3 1-2h-2l-1 2-2 2-1-1h-1l1 2 1 2-2 1-2 1v-2l1-1 1-1h-2l-1 1-1 2 1 1 1 1-1 1-1 1-2-1h-3v-3h4v-3l-3 1h-3l-1 1 1 1h1l-1 2-1 1 3 1zm544 0h1v-2h-2l-1-1-1 1 1 1zm-1177-1 1-1v-2h-2v3zm474 0 1-1v-1h-3v2zm149 0v-2h-1v2zm261-1 1-1-1-2-1-3-2-2-2-2v4l1 1 2 1v4h1v1zm106 1h1v-2h-3v2zm4 0h1zh-2v1zm262 0v-1h-1v1zm6 0h1l-2-2-2-3h-1v1l2 2zm149 0 2-1 4-3 4-3-1-1v-1l-1 1-1 1-3 1-3 2-2 1-2 1v2zm-1291-1v-1l1-1h-3v2Zm384 0v-1h-1v1zm148 0v-1h-1v1zm147 0 1-1v-1h-2l-1 1v1zm211-1h1v-2h-3v3zm88 1-1-3v-3h-2v4l1 1zm170 0h1l-1-1v-1h-3l1 1v1zm-880-1v-2h-1v2zm93 0 1-1 1-1v-3l-2 1h-1l-2 1-1 1 1 1zm230 0h1v-1l-1-1h-1l-1 1v1zm245 0v-1h-1v1zm11 0v-1h-1v1zm-644-2 3-1 1-1 1-1-1-1-3 1-3 1v2l-1 1zm176 1 1-1 1-2h-1l-2 2-1 1zm7-1h2v-2l1-1h-2l-1 2zm64 1h1v-6h3l2 1h2v-2l-2-1-2-1-2 1-2 1-1-1v-1l1-2 1-1v-2l-1-1-2 1-1 1 1 5v5l1 1zm515 0-1-2-1-2h-2l2 2zm-824-1 1-2v-3h-2l-1 1v4Zm143 0-2-2-1-2h-1v1l2 2zm242 0h1v-2h-1l-1 1v1zm156 0h2v-2h-3l-1 1v1zm88-1-1-1-1-1v2h1zm287 1h4l1-1v-1h-2l-2-2-2-1-2 2-2 2 1 1zm-784-1v-1h-1v1zm100 0h1zh-2v1zm-224-2v-1l-1-2-2-1 1-1v-2h-3v5h1v-1l2 2 1 2zm217 1 1-1-1-2v-2h-2v2l1 1v2zm10 0h1v-2h-3l1 1zm295 0h1l-1-2-1-2h-2l1-1v-1l3 2 2 2 3-1 4-2h2v-2h-5l-1 1-1 1-3-1-3-2-2 1-2 2v-1h-1v2l3 2zm470 0v-2h-1v2Zm-1011-1 1-1v-1h-1zv1zm21 0v-1h-1v1zm121 0v-1h-1v1zm1003 0h3l1-1 2-1h-1l-1-1-3 1h-3v2Zm-420-1 3-1 2-1h2l2-1h3l4-1h5l2-1 3-2 3-3v-1h-2l-3 2-2 2h-7l-3 2-3 1h-1v-1l-3 1-2 1h-1l-1 1h-3v2zm19 0h1v-2h-1v1l-1 1zm2 0h1v-1h-1zm410 0h2l2-2 2-1 1 1h2l-2-1-1-2h1v-1h-2v2h-3l-1 2-2 2zm-905-1v-1h-1v1zm214 0v-1h-1v1zm544 0v-1h-1v1zm112 0h3l1-1 2-2-3 1h-4l-1 1v1Zm20 0v-1l1-1h-2v2zm-846-1h1zh-2v1zm630-1 4-1 1-1v-1h-4l-2 1-3 1v2zm52 1v-2h-1v2zm-1221-1v-2h-1v2zm248 0v-2h-1v2Zm150 0h1l1-2v-1l-3-3-2-2-1 1 1 3zm76 0h1v-2h-2v2zm245 0v-1h-1v1zm515 0h1v-2h-2v2zm18-1 1-1v-1l-1-1h-3l1 2 1 2zm169 0h4l1-1 1-1-4 1h-6v2zm-1181-2 2-2-1-2-1-1-1-1h-1v8zm16 0 2-2v-3l-1 1h-1v1l1 1zl-1 1v3zm232 2 1-1h4v-1h-1l2-2 1-2v-1h-1l2-3 1-2-1-1-1 1-2 1v4l-3 2-4 3v2zm49 0h1zh-2v1zm543 0v-1h-1v1zm-694-1v-1h-1v1zm111 0v-2h-2l1 1zm3-1 1-2 2-1 1-1-1-1v-1h-2l-1 4-2 3zm195 1 1-1v-1h-2v2zm-568-2 1-2v-1h-1l-1 2-1 3zm7 1v-1h-1v1zm248 0h1v-4l-2-1-1-1h-1v1l1 2 1 3zm256 0v-1l1-1h-1l-1 1zm135 0v-1h-1zm62-1h2v-2h-1l-1 1zv1zm242 0v-2h-2v1l1 1v1zm-833 0v-1h-1v1zm130 0v-1h-1v1zm16 0h1v-2h-1l-1-1 1-6v-6h-2v1l-1 2 1 3 1 3-1 1h-1l-2-4-1-3-1 2-1 2 4 4zm482 0h1v-2l-1-1h-2v2zm539 0h1zh-2v1zm17 0v-2h-1v2Zm-1178-1h1v-3l-1-2-1-1v2l-1 2v1zm12 0h1zh-2v1zm441-1 1-2v-1h-2l-1 1v3zm269 0 2-1v-2h-3l-1 1-1 2h1v1zm4 1h1v-2h-2v2zm235-1h2v-1h-1zl-2 1zm15 1h1v-2l-2-2-1-1h-2l2 2zm-594-1 2-3 3-4v-1l-2 1-2 2h-1v1l-1 1v2l-1 1zm224-2v-2l-1-2-1-1-1 1-1 1 2 3 1 2zm128 1 4-1 2-3 3-3h-1l-5 3-6 2v1l-1 2zm236 1h1l-1-1v-1h-2l1 1zm200 0v-2h-1v2Zm-1446-1 1-1v-1h-3v2zm23 0h2v-2l1-1-1-1-1-1-1 2zm322 0h1v-2h-1l-1 1v1zm543 0v-2h-1v2Zm129 0v-1l1-1h-3v2zm381 0h2v-1h-2l-2 1zm-1001-1v-1h-1v1zm312 0h1v-5l-1 1h-1v4Zm530 0 1-1v-1l-1-1h-1v3Zm30 0h1l1-2v-1l-1-3-1-2-1 1-1 2 1 2zm8 0h1v-1h-1zm-1004-3 2-2 1 1h1v-1l-1-2v-1l-3 3-2 2v2zm12 2v-2h-1v2Zm6 0v-1h-1v1zm57 0v-1h-1v1zm375 0v-2l1-1v-2h-2v3zm162 0h1v-4h-2l-1-1h-1v1l1 2zm517 0h1v-2h-3v2zm18-1h2v-3l3-1 2-1v-1h-1l-2 1-2 1-2-1h-2l1 1 2 2zl-1 2zm-1297 0v-1h-1v1zm274 0v-2h-1v2Zm-128-1 1-1v-1h-3l1 1zm22 0h1v-2h-2v2zm356 0h1v-3l-1 1-2 1v1Zm215 0v-2h-1v2Zm374 0h1v-2l-1-1h-1v3Zm-1115-1h1v-2h-2v2zm145-1 1-1v-1h-3l-1 1 1 1v1zm1199 1v-1h-1v1zm-1441-1h1v-3l-1 1h-1v2Zm984 0 2-1 1-1v-1h-4l-1 1-1 2zm248 0v-1h-1v1zm-1250-2 1-2-1-1v-1l-1 1-1 1v3zm563 1h1v-2h-1l-1 1v1zm81 0h1v-2h-2v2zm5 0v-1h-1v1zm224 0v-1h-1v1zm370 0v-1h-1v1zm168 0v-2h-1v2Zm41 0v-1h-1v1zm-1333-1h1v-1l-1-1h-1v2Zm607 0h1v-2l-1-1h-1v3Zm151 0-1-4-1-4v-1l1-1h-1l-1-1v8l1 2zm351 0-1-1h-1v1zm-965-1-1-2-1-2v1l-1 1 1 1zm252-1h1v-2l-2 1h-3l2 1zm63 1h1v-2l-1-1h-1v3Zm225 0 2-1 1-1h2v-2l-3 2-3 1v1zm216 0v-1h-1v1zm235 0h2l1-3v-2l-1-2-1-2-1-4-2-4h-2v3l1 3v1l1 1-1 2v5l1 2zm200 0v-2l1-1-1 1-2 1v1Zm-802-1 2-3 3-2-1-1-1 1-1 2-1-1h-1l-1 2-1 2Zm-518-1v-1h-1v1zm135 0 1-1 1-1v-3l5-8 4-8 1-3v-4l-1 2-2 2-1 4-1 4-3 3-2 3-2 4-1 4zv1zm375 0h1v-1l-1-1h-1v2Zm59 0v-2h-1v2Zm19 0v-1h-1v1zm523 0v-1h-1v1zm20 0v-2h-1v2Zm137 0v-1h-1v1zm14 0v-1l1-1h-3v2zm-154-1v-2l1-1-1 1h-1zm-996-2v-3l1-3h-2l-1 3-2 3h1zm394 1v-2h-1v2Zm32 0 1-1v-1h-2v2zm160-1v-2h-1v2Zm-709-1v-1h-1v1zm1054 0v-1h-1v1zm23 0h1zh-2v1zm20 0v-2h-1v2zm-1222-2 2-1v-2l1-2-1-1h-1v1l-1 1v2l-1 3zm153 1 1-1v-1l-1-1v-1l-1 1-1 1zv1Zm-33-1v-1h-1v1zm267 0 1-1 1-2v-2h-1l-1 1-1 2v2zm244-1h-1l1-1v-1h-1l-1 1 1 2 1 1zm214 0h1l-2-2-3-2h-2l2 2zm143 1v-1h-1v1zm219 0v-1h-1v1zm-358-1h1v-1h-2l-1-1 1 1zm370 0h1v-4h-1v2zm-1098-1 1-1 1-2h-2v2zm1286 0v-2h-1v2Zm-1423-1h1zh-2v1zm1010 0h1v-2h-3v2zm5 0v-1l1-1h-4l1 1zm419 0v-1h-1v1zm2 0h1v-2h-2v2zm-1036-2 2-1 1-2 2-2v-2l-1-2-2 4-1 3-2 1h-1v2zm667 1v-1l1-1h-2v2zm348 0v-1l1-1h-1l-1 1zm-545-1h2l1-1 1-1-1-1v-1l-1 1zh-1l-3-3-2-2h-1v1l3 3 2 2zm367 0v-1l1-1h-2v2zm206 0h1l-2-2-2-2-1 1-1 2h2zm-1455-1v-1h-1v1zm16 0v-1l1-2h-1v-1h-2v4zm1213 0v-1l1-1h-2v2zm230 0v-1l1-1h-3v2zm-750-1v-1h-1v1zm361 0v-1h-1v1zm166 0h1v-2h-2v2zm-707-1v-1h-1v1zm49 0v-1h-1v1zm282 0h1v-1l1-3 1-3h-3l-1 3-1 3h1zm382 0v-2h-2v1zm-581-1v-1h-1v1zm47 0v-3h-2l1 2zm748 0 1-1 2-3 2-4-1-1-1-1h-1l-1 1v5l-2 1h-2l1 2zm6 0 2-3 1-3h-2l-2 3-1 3zm8 0h2l2-1 2-1v-2l-1 1-2 1 1-2v-2l-1-1h-1v1l1 2-2 1-3 1v1l-1 1Zm-1188-1 1-2 2-1-1-1v-1l-2 2-1 1zm808-1h1v-3l-1-2 2-2 1-1 2 1 1 1 1-1v-3l-1-1-1 1h-2l-1-2-2-1v-2l-2-3-2-2v3h2v3l1 2 2 2-2 1-2 2 1 4zm177 1v-1h-1v1zm6 0-1-2-1-2h-3l2 2zm161 0h1zh-2v1zm10 0 2-1h1l-1-1-1-1-2 1h-1zm-718-1v-1l1-3v-2h-1l-1 2-1 3h1zm515-1v-1l-1-1v3zm9 0h1v-1l-1-1h-1v2Zm8 0v-1h-1v1zm21 0h2l-2-2-2-1h-1v2l1 1zm24-1h5v-1l1-1h-2l-2-1-4 2-4 2zm119 0h3l2-2 2-1-1-1v-1l-4 2-4 2v2zm-1280 0v-1h-1v1zm4 0h2v-2l1-1v-1h-1l-1 2-2 2Zm247 0h1v-2h-5v1h1l2 1zm464-1v-6h-2v1l-1 2 1 2zm582 1h2v-2l3-4 3-3h-1l-1 1-3 4-4 4zm10 0h1v-2h-3v2zm29-2v-2h-1v2zm-1460-3 2-2 2-4 3-3h-3l-3 4-3 4v4zm120 2v-1h-1v1zm730 0v-1h-1v1zm583-1h2l1-2 1-2-1-1h-1l-2 1-1 1v4zm-1168 0v-1h-1v1zm118 0h1v-1l-1-1h-1v2Zm480 0 1-1 1-1-3-2-2-1v1l1 2zm201 0v-1h-1v1zm262 0v-1h-1v1zm-1354-1v-1h-1v1zm843 0v-1h-1v1zm-798-3 2-2-1-2v-3l-1 3v2h-1l-1 1v4zm353 2v-1h-1v1zm4 0h1v-3l-1 1-2 1v1Zm460 0h2v-1h-2l-1 1zm11 0h1v-2h-1l-1 1v1zm215 0h1v-1l-2-3-1-3-1 1v1l1 3zm7 0v-1l1-1h-1l-1-1v3Zm-932-1v-2l1-1h-1l-1 1-1 1v1zm142 0v-1h-1zm229 0v-1h-1zm309 0h2l1-1v-1l-1-1-1-1-1 1h-1v3Zm237 0h1v-2l-1-1-2-1 1 2zm-1080-1v-2h-2l1 1zm14-3 5-3v-1h-1l-4 3-5 3v1zm852 3v-8l-2 2-1 2 1 2zm465 0 2-1 1-1-1-1-1 2-2 1zm26 0h2l1-2 2-2h-2l-2 2-3 2zm-1049-1v-1h-1v1zm101 0h2v-1h-2l-1 1zm466 0v-1h-1v1zm448 0v-1h-1v1zm-1033-1h1zh-2v1zm115 0v-1l1-2v-1l-1 1h-1v3zm489-1v-1l-1-2-2-1v3l1 1 1 1zm211 1v-2h-1v2Zm246 0v-1h-1v1zm101 0v-2h-1v2Zm7 0v-1h-1v1zm-1434-1 2-2 1-2-1-1-2 3-2 2zm139 0h1v-1h-1zm144 0 1-1 1-2h-2v2zm109 0v-2h-1v2Zm1031 0v-1l1-1h-3v2zm-596-1v-1h-1v1zm6 0h1v-3h-3v3zm63 0v-2h-1v2zm295 0v-2h-1v2zm37-1h1l-2-1-2-1h-1l2 1zm-1097 0 4-5 4-4v-1h-1l-4 4-5 5v1Zm567-2 2-2-1-1h-1l-1 1v2l-1 3zm381 1-2-4-3-3 1-1 1-1v-2l-3 1h-3l2 3 1 2 3 4 2 3zm264 1v-2h-1v2Zm-960-1v-1h-1v1zm9-1h1zl-1-1 2-2 2-2v-1l-1-1h-2l-1 3-1 2h-1l-1-1v1l2 2zm315 1v-1h-1v1zm4 0v-1h-1v1zm114 0h1zh-2v1zm234-3 1-2-1-1-1 2-2 1 1 2 2 1zm25 3h1zh-2v1Zm225 0v-2h-3l1 1zm32 0v-1h-1v1zm-1318-1v-4l1-3 1 1h1v-2l-2-1-2-1v3l-1 3v5zm346 0h1l4-2 4-2v-2l-4 2-3 2-1 1zm878 0h1l-1-1v-1h-2l1 1zm-977-1v-2l1-1v-1l-1 1-2 1v2Zm437-1-1-1-1-1-1 1 1 1zm104 1v-1h-1v2Zm460 0h1v-2h-3v1zm50 0v-1h-1v1zm11 0h2v-2h-2v1l-1 1zm-1327-1 1-1 1-1v-1h-1l-1 1-1 1v1zm378 0v-2h-1v2Zm16-1 1-1-1-1-1-1v4zm145 1 2-1v-5l-1 1-2 2v3zm28 0v-1h-1v1zm111 0h1v-2h-1l-1-1v3Zm540 0v-2h-1v2Zm-368-1h1zh-2v1zm226 0v-1h-1v1zm208 0h2l3-2 4-1-2-1h-1l-3 1-4 1-1 1v1Zm-463-1 1-1v-1h-1l-1 1zm423-2 4-3v1h1l1-1 2-1 3 1 3 2h1v-7h5l5 1-1-1v-1l3-2 3-1v-2l1-2h5l1-2v-2h3v-2l3-1h2l-1-2v-2l2-1h1l3-2 2-2v-3h3v-5l3-2 4-2v-3l2-3 2-4-1-3-2-3v-1h1l1 1 1 1 1-1-1-3v-3l-3 1h-2v-2l1-2-3-1-3-1v-4h-4l-9-1h-10l1 1v1h-3l-2 2-2 2h-2l-1-1-4 2-3 2-1-1h-1l1 2v2l-5 3-5 4-2 3-2 3-2 1-3 1v2l1 1-2 2-3 2v3l-1 3-1 3v3h2l-1 2-1 2 1 3 2 4v4h1l1 1-1 2v3l1 3 2 2-1 1-1 1v4zm20 2h1v-2h1l1 1 5-1 5-2h-1l-2-1-6 1-6 1v3Zm68 0v-2h-1v2Zm-1210-1h1zh-2v1zm157 0v-1h-1v1zm90 0 1-1 2-3 2-3v-6l1-2 1-3h2v-2l-2 1h-2l-1-1v-2l-1 1h-1v-3l1-3h4v-3l-2-1-2-1-2 4-1 3-1 1h-1l-1 3-2 3 1 2v2h-4v2l1-1h1v2l2-1 2-1 1-3 1-3v-1l-1 1h-1l1-1 1-2 2 3 2 2-1 4-1 3-1 2-1 2v3zm179 0 1-2 1-1h-1l-2 1-1 1v1zm151 0v-2h-1v2Zm330 0 1-1v-2h-2v3zm46 0v-2h-2v1zm161 0v-1h-1v1zm-1111-1 1-2 2-2 4-5 3-5h3l2-3 1-2 2-4 1-3-2 2-2 1v2l-4 4-3 3h-3l-2 4-2 4v3l-1 1h-2v2Zm702 0v-1h-1v1zm395 0 1-5v-5h-2v2l-1 3v4l1 1zm-847-1 1-1 1-1v-3l-2 2-2 1v2Zm466 0h1v-2l-1-1-2-1v3h1zm-840-1h2l1-2 2-1h-2l-2 1-2-1-2-1 1 2v2zm699 0 1-4 1-4v-1l-1-1-1 3-2 3v4zm539-1h1zl-2-1-3-1 2 1 1 2zm64 0 2-1h2v-2h-4l-1 2v1zm-1321-1h1zh-2v1zm382 0v-2h-1v2zm177 0 1-1v-1h-1zv1zm23 0h2v-1h-1l-1-1v1l-1 1Zm326 0h1zh-2v1zm-910-1v-1h-1v1zm166 0 1-1v-2h-2v3zm1155 0h1v-2h-2v2zm29 0v-1h-1v1zm-1318-1 2-2 2-2v-6h-1l-1-1v1l-1 2 1 2v2l-1 1-2 1v2Zm372-1h1v-2l-1 1h-2l1 1v1zm152 1 1-1v-2h-1l-1 1-1 2zm-544-1h2v-2h-4v2zm132 0 1-3 1-2-1-1-2 1-1 2v3Zm156 0v-1h-1v2Zm792 0v-1h-1v1zm222 0h1v-3h-2v1l-1 1h1zm-914-1v-3l1-2-1-1-1-1-1 1h-1l1 2v4Zm129 0v-1h-1zm561 0 1-1v-4l-1-1-2-1-1-4v-3h-1l-1 1 1 4 1 5 1-1h1v5zm-505-1h1v-3l-1 1h-2v2Zm451 0h1v-2h-3v2zm212 0v-1h-1v1zm-955-1v-1h-1v1zm266 0v-2h-1v2Zm23 0 2-4 2-4v-4h-2l-2 1v4l-1 2-1 3 1 1zm133 0 2-2 1-1v-1h-1l-1 1-2 1v2Zm147-1 1-1-1-1-1-1v-4h-2v6l1 1 1 1zm181 0-2-3-2-3h-2v1l1 2-1 1-1 2h5l1 1v1zm69 1 1-2 1-1h-1l-2 1-1 1v1zm222 0h3l-2-1-2-1-1 1-1 1Zm-1325-1 3-4 2-3v-1h-2l-1 1-1 3-2 3v1Zm19-1 2-1v-3l-1-2h1l1-1v-2h-2l-1 3-2 3v4zm673 1v-2l1-1v-2l-2 1-1 2v2Zm-412-1 1-1 1-1v-1h-3v3zm82 0h1v-2h-1l-1 1v1zm159 0 1-2 1-2h-1l-1-1v2l-1-1h-2v1l-1 1 1 1v1zm45 0v-2h-1v2Zm133 0v-1h-1v1zm-301-1 1-1v-1h-2v2zm-110-1v-1h-1v1zm7 0v-2h-1v2Zm406 0v-1h-1v1zm370 0 1-1 1-1v-2h-3l-1 1v1l1 1zm160 0 2-5 1-4 3-1 3-2 1-4v-4h-1l-2 2-1 2v3l-2 2-2 1-1 3-2 3v2l-1 2zm3 0h1zh-2v1zm7-1h1v-3h-2v1l-1 2h1zm-1109 0 1-2 1-2-1 1-2 1zm580 0 1-1 1-1v-5l-2 3-2 3v1Zm183 0h1v-1h-1zm331-1v-1h-1v1zm-861-1h-1l2-4 2-4-1 2-2 1-1 2-1 3h1zm459 0v-2h-1v2Zm5 0v-1h-1v1zm193 0v-1h-1v1zm26 0h1v-2h-2v2zm46-1 2-1v-2l1-1h-2l-1 3-2 2zm-1061 0 1-2 1-2v-1h-2l-1 3zm1194-2 2-3v-3l2-1h1v-2l2-2 1-1v-3h-2l-1 2v2l-3 2-2 3v5h-2v4zm-834 1 1-1 1-1v-1h-1l-1 1-1-2-1-2-1 1v4l1 1zm6 0 2-4 2-4h-1l-3 3-2 4v1Zm310-2 1-3v-2l-1 1-2 1 1 1v1l-1 1h-1l1 1v1zm175 2 1-1v-1h-2v2zm202 0v-1h-1v1zm151 0h1v-2h-2v2zm99 0v-1h-1v1zm15 0v-1h-1v1zm-1347-3 1-2 1-1 1-1v-1l-3 2-3 3 1 1v1zm142 2 3-4 3-5h-4v3l-2 2-2 3v1Zm550 0h1v-1h-1zm133 0h1v-2h-2v2zm233 0h1v-3l-1 1h-1v2Zm162 0v-1h-1v1zm-1213-1h1v-2h-1l-1 1v1zm266 0h1zh-2v1zm617 0 1-3 2-2v-1h-1l-2 2-2 3v1Zm162 0v-2h-2l-3-5-2-5 1-3v-4h-1l-1 3-2 2 2 5 2 4 3 3zm11 0v-1l1-1-1-3-1-2-1 1h-1l1 3zm272 0h1v-2h-1v1l-1 1zm-810-1v-1h-1v1zm327 0h1v-1h-1l-2-1v2Zm32 0 2-2 2-2-3 1-2 1zm431 0h1zh-2v1Zm-1305-1v-2h-1v2Zm160 0 1-1v-1h-1l-1 1zm106 0 1-2 1-1-1 1h-2zm115 0h1l1-3 1-2v-1h-2l-1 3zm681 0h1v-3l-1 1h-1v2Zm16 0h1v-2h-2v2zm129 0h1zh-2v1zm-666-1v-1h-1v1zm23 0v-1h-1v1zm93 0v-1h-1v1zm44 0h1zh-2v1zm333 0v-1h-1v1zm275 0v-1h-1v1zm-1187-2h1zl-2-1-2-1 1 2 1 2zm390 1v-1h-1v1zm338 0h1v-1l-1-1-2-1h-1l1 1zm165 0h1zl-1-2-1-1v4Zm27-1h1v-4h-2v1l-1 2 1 1zm-35 0h1v-1l-1-1-1-1h-1v3Zm51-1-2-2-2-2v3l2 1zm-812 0h1v-2h-2v2zm11 0v-1h-1v1zm307 0v-2h-1v2Zm468 0v-2h-2v1zm18 0v-1h-1v1zm-1055-1v-1h-1v1zm136 0v-1h-1v1zm218 0v-1l1-2h-2l-1 1h-1v1h1l1-1v2Zm42-1 2-1 1-5 2-4-1-2-1-1-1 2-1 3v3l-1 1h-1v5zm124 1v-2h-2l1 1zm316-1 1-1v-1l-1-2-1-3-2-3v7h-2l2 2zm-554 0v-2h-1v2zm103 0v-2h-1v2Zm669 0v-1l1-1h-2v2zm-1074-1 1-1v-2h-2v3zm122 0 1-1v-1h-2v2zm30 0v-1h-1v1zm141 0v-1h-1v1zm117 0v-1h-1v1zm423 0v-2l1-3-1-1-1-1h-1l-1 1 2 1h1l-1 3zm-810-1 2-2 1-3 1 1h1l3-4 3-3v-1h-1l-2 1h-3l-3 4-3 5v1l-1 1zm119 0h1v-1h-1zm125 0h1v-2h-1l-1 1v1zm23 0v-1l1-2h-2v3zm794 0h1v-1l-1-1-2-1h-1l1 1zm268 0 1-1v-1h-3v2zm-1438-1v-1h-1v1zm247-1 1-2 2-2v-1h-1l-3 1-3 1 1 2zm109 0 1-1v-1h-3v2zm301 0v-1h-1v1zm275 0h1zl-1-2-2-2v1h-1l1 2zm185 0v-2h-1v2Zm37 0 1-1 1-2v-2l-1-2 1 1h1l1-4v-4h-2l-1 3-2 4v3zm289 0 1-1 1-2h3v-2h-1l-3 2-3 1v2Zm-1202-1h1v-2h-1l-1 1v1zm15 0h1l1-2v-2h-1l-1 1-1 1zv1Zm128 0 1-1v-1h-2l-1 1v1zm421-1 1-2v-1h-2l-1 1v3zm522 0 1-1 3-2 2-2v-3l1-2h-2v3h-2l-2 1-1 1-1 1-1 3v2zm-1331 0h1l-2-3-3-3h-3l4 3zm237 0v-2h-1v2Zm762 0h2l2-4 3-3v-2l1-1 1-1h1v-2l-3 3-3 3-2 3-3 4zm-336-1 1-1v-2l-1 1h-1v2zm513 0v-2h-2v1zm-1069-1v-1h-1v1zm284-1 1-2v-1h-2l-1 1v3zm563 1-1-2v-2l-1 1-1 1 1 1zm390 0 1-1v-1h-1zv1zm83 0h1v-1h-1zm-793-1v-1l1-2h-2v2zm167 0h1v-1h-1zm110 0h1l-1-1v-3l-1-1h-1v4h1zm-815-1 1-1h2v-5l1 1 2 1-1 1v2l1-2 2-1v-3l-1 1h-1v-2l1-1h1l-1-1-1-1-2 1h-2l-2 3-2 4v3zm387 0v-1h-1v1zm456-1 2-1v-3l1-2-2 1-1 2-1 2v2zm9-3 4-4-1-1v-1l-4 3-3 4v3zm226 4h1v-1l-1-1h-1v2Zm-911-2h1v-2h-4l1 1zm122 1v-1l1-2-1-1-1-2v6Zm103 0 2-2 2-2v-2l-2 2zm657-1h1v-2h-3v2h1zm180 1 1-1h1v-3l1-3-2-3-1-3h-2l-1-1-3 3-2 3 1 1 2 1v2l-1 2 2 1zm-1-3-1 1v-4l1-2 1-2h2l-1 1-1 1v5zm-520 2v-1h-1v1zm346-2 1-2h3l1 1 1 1v-3h-1l-1-1-1-3v-3h-1l-1 1v1l-1 1-2 2v3l-1 3h1l1 1zm52 2v-1h-1v1zm112 0h1zh-2v1Zm-921-1v-2h-1v2zm619 0v-2h-1v2Zm157 0-1-3v-2l-1 1-1 1 1 1zm-920-1 1-1v-1h-3v2zm119 0v-1h-1v1zm117 0v-1h-1v1zm152 0v-1h-1v1zm175 0v-1h-1v1zm120 0h1v-2h-1l-1 1v1zm-697-1v-1h-1v1zm1082 0v-1h-1v1zm132 0 1-1v-1h-3l1 1zm-970-1v-1h-1v1zm169-1 1-1v-3l-1 1-2 2 1 1v1zm-396 0h2v-2l1-1-1-1v-1l-2 2-1 1zv1Zm5 0v-1l1-1h-1l-1-1-1 1h-1l1 1zm135 0 1-2 1-2 1-4 1-4-2-1-1-1 1 1v2l-1 4-2 5zm278 0h1v-1h-1zm131 0v-2h-1v2zm13 0v-2h-1v2Zm115 0v-1h-1v1zm33 0v-2l1-1-1 1h-1zm264 0 1-1v-1h-1l-1 1zm-989-1 3-3 3-4v-1h-1l-3 4zm8 0v-1h-1zm127-1 1-2v-1h-1l-1 1-1 1v2zm111 0 1-1h4l3-3 2-3h2l-1 2v1h2l3-3 3-3-1-1h-1l-2 2-2 2h-1v-1l1-1 1-1v-2l-1-3 1-1h1v-2l-2 2-3 3v5h-1l-1 1h-1v1l-2-1-1-1-1 2-1 3-1 1-2 1v2zm11 1 6-4 5-3v-1h-1l-5 4-6 3v1Zm441 0h1v-1h-1zm276 0v-1h-1v1zm-745-1h1zh-2v1zm190 0v-2h-1v2Zm513 0v-1h-1v1zm296-1h3v-2l3-1 2-1v-1h-1l-4 2-5 2v2zm-1372 0-1-1h-1v1zm154-1h2l1-3 2-4h1v-1l-2 1-2 1v2l-1 2-2 1v2zm565 1v-1h-1v1zm118 0v-1h-1v1zm7 0v-1h-1v1zm193-1 1-1v-1h-2l-1 1 1 1v1zm175 1h1v-3h-1l-1 1zm150 0h1v-1h-1zm-1335-1v-1h-1v1zm358 0v-2l1-1-1 1-2 1v1Zm682 0 1-3 1-2 1-6v-5l1-2 1-1-1-2-1-1-1 2-1 2 1 1v1l-1 3-2 3h2l-1 3v3l-2 1-1 1 1 1zm7 0h1v-2h-2v2zm47 0 1-1v-1h-1v1zm245 0h2l5-4 5-4v-2h-2l-4 4-4 4h-3v2zm-1369-2v-2h-1l-1 1h-1l1 1zm711 1v-1h-1v1zm123 0v-2l1-1-1 1-2 1v1Zm34-35h-1v-2h2v2zm-8-76-1-3-1-2 1-1v-1l2 2 1 1v4Zm71-112h-1v-2l1 1h1v1Zm-61 223 1-1h2l-1-3v-2h2l2-5 2-4 1-2 1-2v-3h1l1-1 2-3 2-3v-5l2-4 2-4 2-4 2-5v-1l1-3 2-3 2-4 2-4v-3l3-5 3-5-1-2-1-1 2-3 2-2 1-3v-6l4-5 3-6v-8l1-1 1-2v-5l1-4 2-4v-3l2-1 1-1v-2l-1-2 1-5 1-5 2-1 1-1v-2l-2 1h-1v-3l2-3 1-2v-3l-1-4v-3l2-1 1-1-1-2-1-1 1-1 2-1v-18l-1-5-1-6v-2l1-2 1-5v-5l1-1h1v-4h-1l-2-1v-5l-1-3-1-4-2-1h-2v-3l1-1 1-1v-1h-1l-1 1-2 2-1-1-1-1v-3h-4v-2l-3-3-3-3h-1l-2 1-2-2-3-1h-1l-1 1 1 2v1h-2l-2-2-2-1v1l-1-1-2-1v2l-2-1h-2l-2 2-3 3-2-1h-2l-2 4-3 4h-2v7l-1 2h-1l-1-1 1 3v4h-3v4l-1 1h-2l1 2 1 2-1 3-1 2 1 1v1l-1 1v1l-1 5v16h-2v4l1 1 2 1-2 1h-1v5l1 1h1v3l-1 3v1l-1 2v3l-1 3h2v3h-2v2h3v6l-2 1h-2v1l2 3 2 3v4l-1 4-1 5v6l-2 2-1 1-1-1-1-1h-2v4l1 3h-2v4l3 3 2 3v2l3 1 2 1-2 4-1 4 1 2 1 2-1 2-1 2 1 2 2 2v5h-2v4h-3v2l1 1h1l1-1 1-2 1 1h1l-2 3-1 3h2v3l-1 3h-1l1 2v3l1 1 1 1-1 1h-2l-2-2-1-2v-2h-2v3l1 3 1 3 2 2v-2h4l-1 2-1 2 1 2 1 2-1 3-1 3 1 2 1 1 1 4v5h-2l2 2 1 2v5l1 4v1l1 1-1 5zm486 0h1v-1h-1zm-1187-1 1-3 1-2v-1l-2 2-3 2 1 1zm216 0v-1h-1v1zm173 0v-1h-1v1zm118 0h1v-6h-2l-1-1 1 2 1 2-1 1v2Zm166 0 1-1v-2l-1 1h-1v2zm516 0 4-2 5-2v-2l-2 1-2 2h-3l-1 2zm-1071-1 1-1v-1h3v-2l2-2 2-1v-4h-2l-1 3v2h-3l-2 2-2 2v2Zm426-1 2-2v-2l-2 2-2 1v2zm203 1 1-1v-1h-1l-1 1zm15 0v-1h-1v1zm123-1v-2h-2v1l1 1v1zm5 1v-2h-1v2Zm69 0v-1h-1v1zm115-1h3v-1l1-1h-3zl-1 1zm-1096 0h1zh-2v1zm244 0 1-2 1-2-1-1-2 1-1 2v2Zm146 0v-1l-1-1v3zm319 0 1-3 1-4h2l1 2 2 1v-6h-3l-1 1-1 2-2-1h-1v4l-1 1-1 1v1zm358 0v-2h-1v2Zm-378-1 5-5 5-5v-7l-1 2-2 2v3h-2l1-1v-1h-1l-1 1v4l-2 3-3 3v1Zm213 0h1v-2h-3v-2h-1v1l1 1zm335 0 2-4 3-4v-2h-2l-1 4-2 3h-2v2l-1 1zm-1229-1h1zh-2v1zm909 0h1v-1l1-2v-1h-1l-1 1v-1l1-3 2-2v-3h-2l-1 2-1 2h-2l1-3v-2h-1l-1 1v7l2 1 1 1v1l-2-1h-1l1 1 2 2zm-1168-1v-2h-1v2Zm250 0v-1h-1v1zm1095-1h4l1-2 2-1h-2l-2 1h-4l-2 2-1 1zm-842 0h1v-4h-2v4zm652-23h-1v-2h1v1zm2 23v-8l-2-2-1-3h1v-1l-2 1-2 1-1-2-1-2 5-6 5-7h-3l-3 3-3 4-1 3-1 3-2 2-1 3h2l3-1 2 3 3 2v2l-1 2 1 1zm162 0h1l1-3 1-2v-1l-2 2-2 3v1Zm156-1 2-2v-2l-2 2-2 1v2zm-1478 0h1v-3l-1-1h-2v2l1 2zm108 0v-2l1-1-1 1h-1zm146 0h1l3-3 2-2v-1h-2l-2 3zm28 0h1v-2h-2v2zm111 0 1-1v-1h-2v2zm12 0 1-1v-1h-1l-1 1zm293 0v-1h-1v1zm487 0v-1h-1v1zm5 0h1v-2h-1l-2-1v2h1zm-1059-1v-1h-1v1zm156 0h1v-2h-1v-1l-1 1h-1l1 1zm65 0h1v-1h-1zm143 0v-1h-1v1zm295 0v-10l-1-1h-1l-1 3-1 2 2 3zm432-2 2-1v-2l-2 1-2 2v2zm-722 1v-1l1-1h-1l-1-1v3Zm25 0v-1h-1v1zm-398-1v-1h-1v1zm151 0v-1h-1v1zm118 0v-2l1-1h-1l-1 1-1 1v1zm440-1 1-1v-1h-2l-1 1v2zm315 1 1-1v-3h-2v4zm66 0v-1l1-2h-2v2zm-1111-1 1-1v-1h-1l-1 1zm382 0v-1h-1v1zm9 0 3-4 3-3v-3l-3 3-3 4-1 1-1 2zm326 0v-1h-1v1zm101 0v-1h-1v1zm419-1 2-1-1-1h-1l-1 1v2zm-838-2 2-2v-2h-2l-1 2v2l-1 1v2zm30 2v-1h-1v1zm431 0v-1h-1v1zm220 0 1-1v-2l-1 1h-1v2zm168 0v-2h-1v2Zm127 0v-1h-1v1zm7-1 2-1-2-1-1-1-1 1-1 1 1 1v1zm-1203 0v-2h-1v2zm538 0 2-3 2-2 2-4 2-3v-1h-1l-2 3-2 3v2l-1 1h-1l-2 2-1 2zm7 0 1-1v-2h-1l-1 1-1 2zm104 0h-1v1zm-824-3 2-2v-1h-1l-1 2-2 2v2zm137 2-1-1h-1v1zm967 0v-1h-1v1zm-1066-1 1-1v-2h-2v3zm343 0h1v-1l-1-1h-1v2Zm731-1 2-1v-2l-2 2-2 1v1zm26 1 1-2 1-1-1 1zm-1167-1v-1h-1v1zm44 0 3-1 4-2 1-2 1-2-5 3-5 3zv1zm9 0v-1h-1v1zm378 0 1-2 1-1v-1l-2 2-2 2zm505 0 1-1v-1h-2v2zm5 0h2v-3h-1l-1 1-1 1v1zm207-90 1-1v-1h1l-1 1zm-5-142h-1v-1h1zm-39 232 3-1 3-1 2-5 3-4 2-1 1-1 1-3 2-4 1-3 1-3 2-3 2-2v-3l1-4 2-4 2-3 2-2v-4l1-3 1-2 2-2v-3h2l1-4 1-4 1-1v-3h2l1-1 1-4v-4l1-4 2-3v-2l1-1 1-3 1-3v-2l1-1v-4l1-3 1-5 1-4 2-3 1-2-1-1v-1l1-2 2-2v-2l-1-2 1-2 1-2v-24l1-4 2-3 1-5 1-5v-15l-1-6-1-6h-2l-1 1-1-2v-2l-1-2v-1l-1 1-1 1-1-1-1-1 1-2 1-3-1-1h-4l-2 1 2-3 3-3v-1l-1-1h-3v-3h-2l-2-1v-2h1l1-1v1l1 1h2l-1-2v-2l-2-1h-1l-2 1-2 1v-2l1-3-1-1h-1l1 1v1h-3l-3-1-2 1-3 1 1-2v-2l-1-1h-1l-1 1-1 1h-6l-1 1v1h-2l-1-1-1 1-1 2h1v1h-2l-2-1-3 1-3 2h1v1l2-1h1v2l-1 1h-2v2l-1 2h-1v-1l-3 3-2 2v2l1 1h-3v2l1 2-2 2-1 1v1h1l1-1 1-1v3l-2 2-2 2v4l-1 4v1l-1 1 1 2 1 1-1 1-1 1v5l-1 1h-1v6l-1 2-1 2h2l-1 4v4l1 7 1 7-1 1v12l1 1-1 1-1 2v6l-1 2 1 1h1l-1 7v6l-1-1h-1v2l1 2 2 1-1 5v7l-1 3 1-2 2-2h1v3h-2l1 2v3l1 1 1 1v7l-1 2-1 2 1 1 1 1-1 2-2 1v4l2-1 1-1h1v1l-1 1h-1v2l-1 2 1 3 1 2 1 5v5l1 4v4l-1-1-1-1h-2v5l1 1 2 1v5l1 2 1 3-2-1h-1v1l1 2 1 2-1 1-1 1 3 5 2 4v7zm162 0h1v-2h-2v2zm-1211-1v-1h-1v1zm108 0h1v-1l-1-1h-1v2Zm956 0h1zh-2v1zm165 0v-1h-1v1zm125-3 5-3h2v-2h-1v1l-5 2-5 2v3zm-1091 1-1-2v-1l-1 1h-1l1 2zm5 1 1-1v-1h-2l-1 1v1zm92 0 1-1v-1h-4l1 1zm15 0v-2h-1v2zm654 0v-2h-1v2zm9 0v-2h-1v2Zm-1034-4 4-4v-2l-2 2-2 3-2 2-1 2zm6 3v-2h-1v2zm100-1h1v-2l-1-1 1-2 1-1-1-1v-1l-2 2-1 1v5h1zm31 1h1v-2h-1l-1 1v1zm6 0v-1h-1v1zm676-1v-1h4v2h2l-1-2-1-2 1-5 2-4-1 1-2 2h-2l-1 2-1 3v3l-1 3zm189 1v-1h-1v1zm48 0 1-1v-2h-2v3zm31 0v-2h-1v2zm123 0v-2h-1v2zm-1201-1 1-1 1-1v-1h-1l-1 1-1 1v1zm639 0v-2h-1v2Zm161 0 1-1h2v-4h-2l-1 2-1 2zm271 0h1v-2h-3v2zm-1065-1v-1h-1v1zm256 0 1-1v-5h-2v6zm103 0 3-4 3-3-1-1h-1l-2 2-2 3-1 1-1 2zm282-1-1-1-1-1v2h1zm16 1 2-4 1-3v-1h-1v2l-1 2h-2v2zm351 0h1v-3l-1 1h-1v2Zm-756-1h1zh-2v1zm290 0v-2h-1v2zm231 0v-2h-1v2Zm254 0v-1h-1v1zm-1174-1v-1h-1v1zm105 0v-1h-1v1zm166 0h1v-2h-1l-1 1v1zm106 0 1-1v-2h-1l-1 1-1 2zm121 0h1v-3h2l2-1 4-4 4-3h2v-2h-2l-4 3-5 3-2 3-3 2v2Zm280 0v-2h-1v2Zm15 0v-1h-1v1zm373 0v-2h-1v2Zm25 0v-1h-1v1zm32 0h1zh-2v1zm118 0v-1h-1v1zm-1339-1v-1h-1v1zm119-1 2-1 10-10 10-9 3-3 3-2 1-2 1-2-1 1h-2l-4 4-4 3h-2v2l-1 1-2 1-8 8-8 8v2zm271 1 1-1 1-1v-3l-2 2-2 1v2Zm608 0v-1h-1v1zm327 0 1-1v-1h-1l-1 1zm8 0 3-4 4-3 2-2 3-2 1-2 1-3h1l1-1v-2l-3 1h-3l1 2 1 1-6 6-6 6-1 1-1 2zm-1330-1h1v-2h-2v2zm125-2 3-2v-1l1-1h-1l-3 2-3 3v1zm862 2h1zh-2v1zm351-1 3-2 3-2 4-2h3v2h2v-2l1-1 1-2v-2l-1 1-2 2h-3l-1 1-5 2-5 3-1 1-1 1v1zm-856 0 1-2 1-1-1 1h-2zm291 0v-1h-1v1zm138 0v-1h-1v1zm236 0 1-1v-1h-2l-1 1v1zm21 0h1v-2l-1-1h-1v3Zm317-1 2-1 1-2 1-3 1-2 1-3-2-2-1-1 1-1 1-2h-1l-1 1-2 2v4l1 3-2 3-2 3v2zm-1375 0 1-1v-1h-1l-1 1zm31-1 2-1h2l2 1-1-1v-1l1-3 1-2-1-1-1-1h-2l-2 4zv1zm13 1v-1h-1v1zm82 0 1-1v-1h-2v2zm423 0v-5h-3v-2l-2-3-3-2h-1v1l1 1 1 1 3 5zm150-1 2-1v-3h-1l-1 1zv2zm353 1v-1h-1v1zm-1132-1v-1h-1v1zm484 0 1-2 1-2v-1l-2 1-2 2-2-3-2-2v2l-1 1v2h4l1 1zm-404-1v-1h-1v1zm160 0v-1h-1v1zm520 0v-1h-1v1zm154 0h1v-1l-1-1-2-1-2-1v-3h-1l-1 1-1 1v1h2l2 2 2 2zm-932-1v-2h-1v2Zm244 0 4-4 4-5v-2h-1l-1-1-2 2-3 2-1 2-1 2h-2l-1 1-1 1v1l2-1h2v1l-1 1Zm762 0v-2l1-1-1 1h-1zm10-2 2-2v-1h-1l-2 1-1 2v2zm200 2v-2h-1v2Zm-987-1v-1h-1v1zm-111-1 2-2 2-2v-2l-2 2-3 2zm20 0 1-1v-1h-2v2zm98 0h1v-2h-2v2zm247 0v-1h-1v1zm190 0v-1h-1v1zm328 0h1zh-2v1zm4 0v-2h-1v2zm105 0-1-2-1-3h-2l-1-1 1 2 1 2 1 1zm41 0v-3l-1 1h-1l1 1zm72 0 2-2 1-1 1-2 1-2-2 1-2 1-1 3zm92 0 1-1 1-1v-1h-1l-1 1-1 1v1zm-1306-1v-1h-1v1zm888 0h1v-4h-2v4zm317 0v-1h-1v1zm-990-1h1l-1-1-1-1h-2l1 1v1zm262 0h1zh-2v1zm19 0 1-1v-1h-1l-1 1zm174 0v-1h-1v1zm341 0v-1h-1v1zm199 0 1-1v-1h-2l-1 1v1zm-1243-1v-1h-1v1zm9 0h2l1-1v-1h-4l-1 1v1zm166 0v-1h-1v1zm88 0 3-3 3-3v-1h-4l-1 2v1h-3l1 2zm516 0v-1h-1v1zm185-2 2-1v-4l1-4h-1v1l-2 4zv1zm184 2h1v-2l1-1v-2h-2v3zm7-3h-1v-2h1v1zm2-9h-1v-1h1zm-1 12v-2l1-1-1-3v-2l3-3 4-4h-1v-1l-3 1-3 1h-1v-1l1-1 2-2v-1h-2l-1-1-2 1-1 1v4h1l1 1-1 1-1 2 1 1v2l-1 1-1 2 2 2zm13 0 1-4 2-4-1 1-2 2v2zm9 0v-1h-1v1zm150 0v-1l1-1h-2v2zm-1321-4 5-3v-2l5-5 4-4h-2l-5 5-5 4v3h-3l-2 3-3 2zm246 3 2-2 1-2v-1l-2 1h-2l-2-1-1-1v1l2 3zm704 0 1-1v-2l-1 1h-1v2zm90 0-1-1v-1h-2l1 1zm296 0v-1l1-1h-2v2zm-1182-1 1-2 1-2-2 1-2 1v2Zm125 0h1v-1l-1-1h-1v2Zm119 0v-1h-1v1zm760 0h1v-7h-3l-1 2-2 2v1l1 1 1-1h1v2Zm-647-1v-1h-1v1zm306 0 1-1v-2h-2v3zm123 0 1-1v-1h-2v2zm385 0v-1h-1v1zm162 0v-1h-1v1zm-1345-2h2v-1h-1zl-1 1zm373 1h2l2-2 2-2h-1l-3 2-4 1v1Zm154-1 1-1 3-6 3-6v-2h-2l-3 6-2 6-1 1-1 2v1zm126 1 1-1 1-2h-1l-1 1h-2v2Zm9 0v-2h-1v2Zm5 0 1-1v-1h-1l-1 1zm121 0v-1h-1v1zm4 0 1-1v-4h2l1 2v1h3v-1l-2-2-1-2h-3l-1 2-1 2v3zm194 0v-1h-1v1zm215-3h-1v-1h1zm-3 3 1-1h1l1-3 1-2h-1l-3 2-2 2zm-1345-1v-1h-1v1zm14 0h1v-2h-1l-1 1v1zm641 0v-2l1-1-1 1h-1zm485 0v-1h-1v1zm87 0v-1h-1v1zm111 0v-1h-1v1zm-1082-1 1-1 1-1v-2l-1-1h-2l-1 1v-2h-1l-1 1 1 2zm137-1h1v-3l-1-1h-2v3l1 2zm564-1 1-1-1-1h-1l-1 1-1 1 1 1v1zm-954 1v-1h-1v1zm384-2 2-1-1-2-1-2-1-1h-1v2l1 3v3zm445 2 1-1v-1h-2v2zm387 0h1l6-5 5-6-1-1-2 2-2 2-4 3-4 4zm110-1h2l1-1h3l1-4 2-4h-2l-2 2-1 3h-1v3h-2l-1-1zv1zm-1211 0 1-1 1-1v-1l-1 1h-2v2zm159 0h1v-2h-1l-1 1v1zm506 0v-1l1-2-1-1h-1v4Zm452 0v-1h-1v1zm-1097-1v-1h-1v1zm665 0 6-8 6-7-1-1v-1h-3l-1 3-1 3-4 4-4 5v2Zm118 0v-2h-1v2Zm-903-1 1-1v-1h-2l-1 1v1zm678-1h1l-1-2-2-2 2-1 1-2-1-2-1-3h-1v2l1 3h-2l-2 1v2l1 1 2 1v1l1 2zm119 0h2v-1l-2-2-2-2v1l-1 1 1 2 1 2zm121 1v-1h-1v1zm230 0h2l1-1 2-2v-2h-4v3h-2v2zm67-2 4-2v-1l1-2-2 1h-2l-2 3-2 2v1zm-972 1 2-1v-5h3l-1-1-1-1-1 1h-2l-2 3-1 2 1 1zm697-1h2v-2l1-1-2 1-2 1v2zm381 0 2-1v-1l1-1-2 1-2 1-1 1v1zm-210 0v-1h-1v1zm-987-1v-1h-1v1zm133 0v-2h-1v2Zm5 0 1-1v-1h-2l-1 1v1zm660 0v-1h-1v1zm8 0v-1h-1v1zm56-1h1l-1-1-1-1h-1v2l1 1zm-843 0h1l-1-1v-1h-2v2zm364 0h4v-1l1-1h-9v1l1 1zm13 0 4-1v-1l1-1h-3v-1l-1-1h-2l-1 1 1 1h1l-1 2-2 1zm261 0 1-1v-1l-1-1v-1l-1 1-1 1zv1Zm442-1 1-1v-1h-2l-1 1 1 1v1zm-1098 0h1v-2h-1l-1 1v1zm777 0h1v-1l-1-1-1-1h-1v3Zm30 0h1l1-3v-2h-5v4h1v1zm-828-1 1-1v-2l-1 1h-1v2zm8 0v-1h-1v1zm35 0 1-1v-1h-2l-1 1v1zm83 0v-1h-1v1zm284 0h2v-1h-2l-1 1zm152 0h2v-2l1-1-2 1-2 1v1Zm260 0 1-1v-1h-1l-1 1zm80 0h1zh-2v1zm7 0v-1h-1v1zm132 0v-1h-1v1zm205-1h1v-2l3-1 2-1v-2h-3l-2 2-3 2v3zm-1115 0 1-1v-2l-1 1h-1v2zm401 0-1-1h-1v1zm163 0 1-1h1v-2l1-2-1-1h-1l-2 2-1 1v3Zm348 0v-1h-1v1zm178-1h2l1-2 1-2h-1l-2 1-3 1v3zm-1058 0v-1h-1v1zm217-1h2l1-1v-2h-1l-2 1-2 1v2zm532 1h1v-2h-1l-1 1v1zm125 0 2-1 2-1v-5h-2l-1 3-2 3v1Zm12-2 2-1-1-1-1-1-1 1-2 1v-1l-1 1h-1l2 2 2 1zm-1150 1v-2h-1v2Zm249 0 2-1 3-1v-5l-2 1h-1v3l-2 1h-2zm110 0h1v-4l-1 1h-1v3Zm427-2 2-2v-6h1l1-1v3l1-1 1-2-1-2v-2h-3l2-1 1-1v-1l-1-1-2 1h-1l1 2 1 2-2 2-2 2v-2h-4l2 2 2 3-1 2-2 3 1 1v1zm432 2h1v-3h2v-2l1-2h-2l-1 3-1 3zv1zm129-10h-1v-1l2-1 3-1-2 1zm-6 10 2-2 2-2 7-6 7-6 2-1 3-1v-2l-3 2-3 1-2 1h-6l-3 1-2 1-3 2v1l1 1-4 2-3 2h-2l-3 1-1 1-2 1h3l4 1 4-2 3-2h1v1l-2 2-2 2zm-1249-1 1-2 1-2-2 1-2 1v2Zm176 0h1v-1h-1l-2-1v2Zm108-1 1-1-1-2-1-2-1 1-1 1 1 2zm129 1 2-1 2-1h3l2-2 2-2h-2l-2 1-3 1h-3l-2 2-1 2zm-403-1h1v-2h-2v2zm128 0h1v-2h-2v2zm270 0h1l-1-1v-1h-4l1 1 2 1zm22 0v-1h-1v2Zm141-12h-1v-1h1zm-1 11h1v-3l-1-4 2-2 2-2 1 1 1 2h2l-1-2-2-2v-1l-2-4-1-3h-2v3l1 3-2 2-2 2v4l1 4v1zm140 1 1-2 1-2h-1v-1l-2 1-1 1v3Zm120-1 2-1-1-1v-1l-1 1zv1zm95 1v-1h-1v1zm338 0h1zh-2v1zm-1218-1h1v-1l-1-1h-1v2Zm112 0v-1h-1v1zm649 0h1v-2h-2v2zm31 0 3-1h3v-2h-4v-2l1-2 2-1v-6h2v-1h-1l-2 1-3 1 1 2v2l-2 4-2 4v1zm107 0 1-1v-1h-3v2zm327 0v-1h-1v1zm-1256-1v-1h-1v1zm33 0h1zh-2v1zm492 0 1-1-1-3-1-2-1 1v4l1 1zm358 0v-1h-1v1zm157-1h2v-1l-1-1h-2zv2zm80 1 3-3 3-3v-1l-1-1-3 3-4 3zm93 0v-1h-1v1zm-1233-1v-1h-1v1zm586 0v-1h-1v1zm101-3 1-3h1l1-1v-2h-2l-2 2-2 2 1 2v4zm26 2 2-2-1-1v-1l-2 2-1 1v2zm143 1v-2h-1v2Zm253 0v-2l1-1-1 1h-1zm157 0 1-1v-2h-1l-1 1-1 2zm-1258-1v-1h-1v1zm9 0v-1h-1v1zm5 0v-1l1-2-1-2-2-1v2l-1 2v1zm252 0v-2h-1v2zm322 0v-2h-1v2Zm638 0v-1h-1v1zm137-1h2l-1-1v-1h-2zm-1367 0h1v-2h-2v2zm113 0v-1h-1v1zm53 0v-1h-1v1zm398 0v-1h-1v1zm110 0v-1h-1v1zm42 0v-2h-1v2zm187-1 1-2v-2l-1 1-1 1-1 2v2zm117 1v-3l-1 1h-1l1 1zm-619-1h1zh-2v1zm15-7h-1v-1h1zm31 7h2l-5-2-5-2-3-2-4-3h-2l-3-1-3-2-2 1h-5l-3 1h-3v2l-2 2-1 1h9l3 1-1-2-1-1h1l2 1 1-2 1-1 2 1 2 1h-3v2h11l1 1 1 1 4 2 3 1zm99 0 1-2 1-2-1-1v-1h-2v1l1 1-1 1h-1v-4l1-4h-3v2l1 1-1 1-1 2 1 2 1 3zm130 0v-1h-1v1zm9 0v-1h-1v1zm442 0v-1h-1v1zm7-2 2-3-1-3v-3h-3v3l1 1 1 1-2 2-1 3v1zm95 2 1-1v-2h-2v3zm-1242-1v-1h-1v1zm47 0-1-1h-1v1zm107 0h1v-1l-1-1-2-1h-2l1 1 1 2zm667 0v-6h-2v3l1 1zm338 0 4-4 3-3-3 1-3 2-1 2-2 2Zm86 0h2l1-1 2-1h-6v2zm39 0h3v-2h-4v1l-1 1zm104 0h1v-1h-1zm-1460-1h1v-2h-2v2zm78-1v-2h-1l-1 1h-1l1 1zm15-1 2-2-2-5-3-4-1-1 1 7 1 7zm269 2v-2h-2l1 1zm6 0h1v-1h-1zm122 0h2v-2h-4v2zm642 0 1-1v-1h-2l-1 1v1zm-930-1-1-3-1-2-1-1-1-1h-1v1l2 3zm907 0v-2l-1-2 1 1h1v-2h-1l-2-1v5h1zm36-1h1v-8l1 1h1v-2l-1-1-1-1-1 1-2 2v4l-1 4h1v1zm186 1 2-1 2-1h2l1-3 2-2v-1l-1-1-2 3-2 2h-3l-2 2-1 2zm-1212-1v-2h-1v2Zm142 0h1zh-2v1zm83 0v-1h-1v1zm456 0v-1h-1v1zm396 0h1zh-2v1zm120 0h1v-1l-1-1h-1v2Zm6 0 1-1v-1h-2l-1 1v1zm-1341-1h1v-2h-1l-1 1v1zm85 0v-3l-1-3h-1v6zm109 0v-1l1-1h-1l-1-1-1 1h-1l1 1zm35 0v-1h-1v1zm127 0v-1h-1v1zm797 0h2l1-2 1-1 1-5 2-5-1-2-1-2v-1l-1-2-1 1-1 1v7l-1 8-1 1h-1zm-879-1h1v-2h-1l-1 1v1zm12 0h1v-2l-1 1h-2v1Zm263 0h1l-2-2-2-3h-6l4 2zm86 0h1v-4h-2l-1 1v1l1 1zm303 0v-2h-1v2Zm311 0v-1h-1v1zm218 0h2l-2-1-2-2v-2l1-2h-3v3l2 2zm-962-1v-1h-1v1zm57 0h1v-1l-1-1h-1v2Zm222-1h1v-3h-3v-2l-1 1h-1v2l2 1 1 2zm35 1v-1l1-2-1-1h-1v1l-1 1v2zm-675-1 2-1 1-1h2v-2h-3l-1 2-2 1v1zm100-1-1-1-2-1-2-1v3l2 1zm18 1v-1h-1v1zm16 0h2l1-2 1-1h-4l-1 2v1zm74 0h1zh-2v1zm15 0v-1h-1v1zm14 0-3-3-2-4h-3l3 4zm552 0v-1h-1v1zm541 0v-1h-1v1zm-1210-1v-1h-1v1zm357 0v-1h-1v1zm176-1 1-1v-1l-1-1-1 1-1 1 1 1v1zm143 1h1v-2h-1l-1 1v1zm73 0v-1h-1v1zm199 0h1v-1l-1-1h-2v2zm40 0v-1h-1v1zm-1136-1h1l-1-1v-1h2v-2l-4-4-4-4-2-3-1-2h-1v4l-1 2 1 1v1l1-1 1-1 3 2 2 3v2l1 2v1zm4 0h1v-1h-1zm148 0h1zh-2v1zm3 0h2v-2l1-2h5v-2h4v-2h-2l-6 2-5 2v4Zm515 0h1v-1h-1zm122 0v-1l-1-1-1-1 1 1zm106 0 2-3 1-2-2 1-2 2zm21 0h1v-1h-1zm208 0 1-1v-1h-1l-1 1zm102-1h3v-1h-1l-2-1-1 2-1 1zm21 1h1v-2h-1v1l-1 1zm105 0v-1l1-2-3-3-3-3v1l-1 1 1 1v1l2 3zm-1470-1v-1h-1v1zm91 0v-1h1l-3-6-3-5-2-3-2-2v-2l-2-1-1-1v1l1 1 2 4 2 5v1l3 4zm43-2 3-2 1-2 2-1h1l3-2 2-2 2 1h2l4-2 3-2 1 1 1 1h1l1-1-2-1h-1v-3h-3l-3 3-3 2h-2l2-2 3-3-1-1h-1l-1 1v1l-6 4-5 4-3 1-3 1v3l-1 2h1v1zm21 2h2v-2h-3l-2-1v1l-1 1h1v1zm56 0h1v-1l-1-1h-1v2Zm5-2v-2h2v-1h-1l-2-1h-1v5h1l1 1zm67 2v-1h-1v1zm13 0v-1h-1v1zm256 0h1zh-2v1zm478 0 1-1v-2h-1l-1 1-1 2zm9 0v-3l-2-1-2-1 1 1v1l1 2zm-818-1-1-1h-1v1zm316 0v-2h-1v2Zm80 0h2l-2-2-2-1h-3l2 1 1 2zm32 0 3-5 3-5v-2h-2v3h-1l-3 3-2 4v1zm167 0h1v-1h-1zm138 0h1zh-2v1zm395 0 2-1 1-2h-2l-2 1-1 2zm14-2 2-1v-1h-1l-2 1-3 1 1 1v1zm-817 1h1l-1-1-2-2h-2l-4-2-4-2-1 1 3 2 2 3 1-1h1l3 1zm32 0-1-1h-1v1zm8 0-1-1v-2h-3v2l2 1zm532 0v-1l-1-1v3zm251-1h1v-1h-3v2zm-837 0h1v-4h-2v1l-1 2h1zm252-1 1-1-1-2-1-1h-2v4h1v1zm18 0-1-1-1-1v2h1zm15 1 1-1v-2h-1l-1 1-1 2zm209 0v-3l-1 1h-1l1 1zm2 0h1zh-2v1zm445-1v-2h-2v1l1 1v1zm-1455 0h1v-2h-1l-1 1v1zm123 0 2-1h2v-2l-2 1h-2zv1zm647 0 3-5 4-5h-3l-3 4-3 5v1Zm5 0h1l2-2 2-2v-1h-1l-2 3zm20 0v-1l1-1h-2v2zm559-1h2l-1-1v-1l-1 1zm-1086 0v-1l1-1h-5l2 1zm44 0h1zh-2v1zm227 0-2-1-2-1-2-2-2-2h-2v-1l-1-1v1l-1 1 5 3 5 3zm23 0v-1h-1v1zm15 0h1v-2l-1-1-2-1v3h1zm354 0 2-1v-4h-1l-1 1v2zm9 0-2-2-1-2-1 1v1l1 1zm51-2 3-3v-4l-1 1h-2v1l1 1-2 1-1 1v5Zm10 2v-1l1-1-1 1zm11 0h1zh-2v1zm133 0h1l1-2v-1l-1-1-1-1-1 1-1 1v1l1 2zm85 0 1-1v-1h-2l-1 1v1zm108-1 2-1v-2h-2l-1 1-1 1v2zm-1333 0v-1h-1v1zm175-1-2-2-2-1-2-3-1-3h-2v3l4 3zm15 1v-1h-1v1zm725 0h1zh-1l1-1v-1h-1l-1 1 1 1zm-408-1v-1h1l-1-2v-1h-3l-1 1v1l1 1zm924 0v-1h-1v1zm-1249-2-2-2-2-1-2-2-2-2h-1l-1 1 5 3zm-23 0v-2h-2l1 1zm2 0h1v-1h-1zm135 0v-1h-1v1zm467 0v-1h1l-1-2v-1h-3v1l1 1zm14 0v-2h-1v2Zm582 0h1zh-2v1zm-1303-1v-1h-1v1zm18 0v-1h-1v1zm2 0h1v-1l-1-1h-1v2Zm1262 0h1zh-2v1Zm-1335-1h1v-2h-2l-1-1h-4l2 2 2 1zm46 0-1-1h-1v1zm22 0v-1l1-3v-7l-3-2-3-1-1-1-1-1v2l3 3 2 2v3h-2l-3-1v1l3 3zm213 0h1v-1l-1-1h-1v2Zm9-1-1-1-1-1v2h1zm8 1-1-1h-1v1zm266 0v-2h-2l1 1zm435 0 1-1v-2h-1l-1 1-1 2zm342 0-1-1v-1l1-1h2l3 1 3 2h4v-2h-2l-1-1h-4v-2l-3-1-3-1-2 2-1 2v1l2 1zm-1160-1h1v-3h-2v1l-1 1h1zm347 0v-1h-1v1zm-454-1v-1h-1v1zm187 0h1l1-2v-1h-3l-1 2v1zm652-1 2-1-1-1v-1h-2v4zm190 1h1v-4l-1-2-1-1v7Zm131 0 1-2 2-2v-2l-2 2-3 3v1Zm134 0h2l1-1 1-1-2-1-2-2h-3l1 2zm64 0h1v-2l-2-1-2-1h-1v1l2 1zm-1392-3 2-3h-1v-1h-2v1l1 2h-1l-1 1v1l1 1zm105 2 7-1 3-1 4-1 2-1 1-1-1-1h-2l-3 1-3 2h-14v3zm142 0-1-1v-2l-3-1-3-1v-1h-1v1l1 1 3 2zm605 0v-1h-1v1zm1 0 1-1v-1h-1l-1 1zm28 0h1zh-2v1zm2 0 1-1v-1h-2v2zm437 0h2v-1h-1l-2-1h-2v1l1 1zm37 0h1v-1h-1zm19 0v-1h-1v1zm-1338-2-1-1-1-1v2h1zm6 1-1-1h-1v1zm105 0h1v-1l-1-1h-1v2Zm105-1-1-1-1-2h-2l2 2zm340 1h1l2-2 1-1v-2h-3l-1 2-2 2h1zm131-1h1v-2l-1 1h-2l1 1v1zm163 1v-2h-2l1 1zm77-1h1v-2h-4v2h1zm125 1v-2h-2v1zm-1094-2v-1l-2-2-1-1 1-1 1-2h-1v-1l-2 1-1 1-1-1v-2l-2-1-2-1v5l3 1 3 1v2l2 2 1 1zm99 1v-1h-1v1zm652 0v-1h-1v1zm201 0h2l1-1v-1h-3l-1 1v1zm213 0v-1h-1v1zm124 0v-1l1-1h-1l-2-1v1l-1 1h1zm72 0h1v-2l-3-2-3-3h-1l-1-2-2-1h-1l-1 1v3h4l3 3 3 3zm9 0h1v-3h3v-2h-3l-2 1-2 2 1 1zm-1362-1h1zh-2v1zm7-1v-1l-2-2-2-2-1 1 2 2 2 3zm248 1-1-2-1-1-2-2-1-1h-1v1l3 2zm4 0v-1h-1v1zm458 0 1-1v-1h-3v2zm595-1 3-1-3-1h-2l-2-1-1-1-2 1h-2v1l1 1h6v2zm8 1v-1h-1v1zm63-1h1l-1-2-1-1-2 1h-1v2h2zm-1424 0h1zh-2v1zm266 0h1zh-2v1zm744 0v-1h1l-2-2-1-1-1 1h-1l1 2zm-118-1v-3h-2l-1-1 1 2zm-726-1h1l-1-2-1-2h-3l2 2zm121 0v-1h-1v1zm1085 0h1v-2h-1v1l-1 1zm10 0-2-1-1-2h-3l3 2zm-1372-1v-1h-1v1zm250 0h1v-2h-1l-1 1v1zm655-1h2v-1l-1-2-1-1-1 1-2 1 1 1v2zm8 1v-1h-1v2zm-766-1v-1h-1v2Zm1047 0 1-1v-1h-2l-1 1v1zm-1186-1v-1h-1v1zm858 0h1v-1l-1-1h-1v2Zm-863-1v-1h-1v1zm909-1-1-1-1-1v2h1zm3 1v-1l1-1-2-4-2-4h-1v1l1 4zm86 0h1v-1h-1zm364 0v-1h-1v1zm-1355-1h1v-2h-2v2zm1010 0v-3l-1 1h-1l1 1zm340 0h1zh-2v1zm-466-1 1-1 2-4 3-5 1-2v-3h-2l-2 3-1 3-1 3-1 3-1 1v2zm85 0v-2h-1v2Zm24 0v-1h-1v1zm202-2 1-1 1-2h-2l-1 2-1 1zm-298-2 1-1v-3l1-3h-2l-1-1-1 3-1 2v2l1 1 1 1zm178 1-1-4v-5l-1 1h-1v4l1 3zm21 0 1-1 1-2-2 1h-2v2Zm14 0h1v-1h-1zm4 0v-1h-1v1zm260 0h1v-1l-1-1-1-1h-2l1 1v2zm-199-2 1-2 1-2h-1l-1 1-1 2-1 2zm-178-1 2-2v-3l-2 2-2 1v3zm214 1h1zh-2v1zm-120-1h1zh-2v1zm109 0v-1h-1v1zm-321-1 2-4 2-3h2l-1-2v-3h1l1-1v-7h-2v4l-3 8-4 7v1Zm218-2 4-2v-2h-4l-1 2-2 2v2zm108 2h1v-2l-1 1h-1v-2h-1v2zm138 0h1zh-2v1zm-148-1v-1l1-1-1 1h-2v1Zm18-2 2-1 1-2 2-2v-2l-3 2-2 3h-2v3zm-8 0v-2l1-1-1 1h-1zm-217-1h1v-2h-2v2zm13-1v-1h-1v1zm3-1 1-1v-2l-1 1-2 1v2zm108 1v-1h-1v1zm-13-2v-1h-1v1zm13 0v-1h-1v1zm65 0h1v-2h-1v1l-1 1zm29-1h1v-1h-1zm-341-1v-1h-1v1zm13 0v-1l1-1-1-2-1-1v2l-1 1v2zm197 0v-1l1-2v-2h-2v5zm-218-2v-3h-2v1l1 2v2zm33 1 1-1v-1l-1-1v-1l-1 1-1 1zv1Zm212 0v-1h-1v1zm-125-4 2-1-1-1v-1l-1 1h-1v4zm-79 1v-1h-1v1zm85-1v-1h-1v1zm12 0 2-2 3-3v-1l-2 1-2 1-1 1-1 1zm230 0 1-1v-1h-2l-1 1v1zm-327-1h1v-2h-1l-1 1v1zm104-1v-1h-1v1zm191-3 3-3 2-2 1-3-5 4-5 5 1 1v1zm-302 2 1-1 1-3v-4l-1 2-1 1v2zm94 0h2v-1l1-1h-3l-2-1v3Zm-108-2v-2h-1v2Zm340 0 1-2 2-3h-1l-2 2-2 1zm-118-3v-1h-1v1zm-228-1h1v-1l-1-3-2-2v3l1 1zm23 0 1-2 1-2-1 1h-2v3Zm307 0h1v-1h-1zm-314-1 1-1v-4l-1 2-1 2zm105 0 2-1 3-1v-2l4-2 5-3 3-5 4-5-1-1-1 1v1l-5 5-5 5h-3l-4 4-4 4zm104-1v-2h-1v2zm18 0h1l-1-2-2-1h-1v2l1 1zm-221-2 1-2-1-1-1-1v6zm116 1 1-1v-2h-2v3zm211-2 2-3 1-3-1-1v-1l-2 3-2 2v3Zm-338-1h1v-2h-1l-1 1v1zm92 0v-1h-1v1zm17 0v-1h-1v1zm102 0v-1h-1v1zm16 0h1v-1l-1-1h-1v2Zm-11-2 1-1-1-2-1-1v2l-1-2-1-1h-1v1l2 2 1 3zm114 0h1l-1-1v-1h-3l1 1zm-106-1v-1l1-1h-2v2zm-128-2v-2l1-1-1 1-2 1v1Zm109 0v-2h-1v2Zm-219-1h1v-2h-2v2zm234 0h1zl-1-2-2-2h-1l-1 1v3h2zm125-1h1v-2h-1v1l-1 1zm-135-1h1v-2h-3v2Zm-110-1v-1h-1v1zm131 0h1v-2h-1l-2-1 1 2zm-137-1h1v-1l-1-1h-1v2Zm111 0v-1h-1v1zm-217-2 1-1-2-5-1-5-1 1-1 2 1 3 1 2v1h-1l1 2 1 1zm343 0 1-2v-1h-1l-1 1-1 1v2zm-195 0h1l-1-2-1-2v-3l1-2-2-1h-1v1l-1 2 2 4zm84-1h1v-1l-1-1-1-1h-1v4zm-219-1 1-2 2-3 2-3h-2l-2 4-3 4v1zm10-1 2-1v-2l-1 1zv1zm-16 0h2l1-2v-2h-1l-1 2-2 2Zm121 0v-1h-1v1zm95 0h1v-2h-2v2zm19 0 2-1 2-1-2-1-2-1v1h-1v3Zm-211-1v-1h-1v1zm130 0v-1h-1v1zm56 0v-2l1-1-1 1h-1zm20 0v-1h-1v1zm-119-1v-1h-1v1zm6 0v-2h-1v2Zm103 0v-1h-1v1zm6-1h1l3-3 3-2v-2h-4l-1 2v3zm-230-1h1zh-2v1zm18 0 1-2 2-3v-1h-2l-2 3-1 3zm87-1 1-1v-1h-1zl-1 1zm-102-2v-2h-1l-1 1-1 1 1 1 1 1zm117 2h1v-3h-2v3zm-107-6 3-3v-2h-2l-1 1-1 2v3l-1 3zm121 2v-1h-1v1zm7-1v-1h-1v1zm-10-1v-1h-1v1zm-5-1v-1l-1-2 2-2 3-2v-2l1-2-4 4-4 4v2l1-1h1v2Zm227 0 1-1v-1h-1l-1 1zm-360-1h1zh-2v1zm340-1h1v-2h-3v3zm-190 0v-1h-1v1zm216 0 1-1v-1h-1l-1 1zm-357-1v-1l1-2h-2v3zm117 0v-1h-1v1zm-110-1 1-1v-2h-1l-1 1-1 2zm9-1 1-3 2-3v-6l-1 3-1 4-1 1-1 2v2Zm208 0v-1h-1v1zm-240-1v-2h-1v2Zm19-1v-1h-1v1zm9 0h2l-1-1v-1l2-3 1-4v-1l-1-2-2 6-3 5v1zm-22-1v-1h-1v1zm132 0h1v-3h-1l-1 1zm-127-1v-1h-1v1zm10-2h2l1-3 1-2h2v-3l-1-2 2-2 1-2v-2l-1 1-2 2-3 7zm211 1 2-1 3-2 3-3v-2l-4 3-5 3v2zm131-1 2-1v-1h-3l-2 1 1 1v1zm-219-2 1-1h2v-3h-2l-1 1-1 1zm-137-1v-1h1l-1-2v-1h-2v4zm364 0h1l2-2 2-2v-1l-1-1-2 2-3 3v1Zm-233-3v-1h-1v1zm89-1v-1h-1v1zm15 0h1zh-2v1zm-71-1v-2h-1v2zm-165-1 1-2 2-2v-1l1-2h-1l-1 1-1 2v1l-2 2-1 1zm30-2 2-2-1-1-1-1v3zv1zm6 2v-2h-1v2Zm105 0h1zh-2v1zm84 0 1-1v-1h-1l-1 1zm15-2 3-2-1-2-1-1-2 2-1 2v3zm-216 1v-1l1-2-2 1h-1v2Zm136-1 1-2v-1h-2l-1 1v3zm87 1v-1h-1v1zm91 0h1zh-2v1Zm-188-2v-2h-1v2zm-138-3 1-2v-1h-2l-1 1v3zm6 1 2-5 3-5h-2l-2 4-3 5h1zm336 0h1v-1h-1zm-323-2h-1v1zm5 0h1zh-2v1zm323 0h1v-1l-1-1h-1v2Zm-139-2v-4l-1-3v8zm115 0h1zh-2v1zm-327-1v-1h-1v1zm138 0v-1h-1v1zm210 0h1v-2h-2v2zm11-1v-2h-1v2Zm-357-1v-1h-1v1zm142 0v-1h-1v1zm190 0v-2h-1v2zm-187-1v-2h-1v2Zm54 0h1v-2h-1v1l-1 1zm6 0h1v-1h-1zm141-1h1l2-1 1-1v-2l-3 1-2 1v2h-1l-1-1 1 2v1zm-350 0v-1h-1v1zm224 0h1v-2h-1v1l-1 1zm138 0h1v-1h-1zm-359-1h3v-3h-1l-1-1-1 2-2 1v1zm218-1h1v-3l-1 1h-1v2Zm16 0v-1h-1v1zm-95-1h1l-1-1v-1h-2v2zm66 0 1-1v-2l-1 1h-1v2zm20 0 1-1v-1h-1zv1zm-240-1v-1h-1v1zm2-2h1zh-2v1zm25 0 1-1 1-1v-3l-2 2-2 1v2Zm185 0v-2h-1v2zm161 0 1-1 1-2v-2h-3v1l-1 2 1 1zm-151-2h1v-3h-2v1l-1 2h1zm21 1 1-2 2-2v-2l-2 2-3 2v2Zm5 0 1-1v-1h-1l-1 1zm7 0 1-1h2v-2l-1 1-2 1v-1h-1v2Zm111 0v-2h-1v2Zm-201-1v-1l1-1h-1l-1-1v3Zm49-1 1-1v-1h-3l1 1zm145 0 2-3 1-3 1-2v-8h2l1-1-1-1h-2l-3 3-2 2 1 2 1 2-1 3-1 3v3Zm-325-1h2l1-1 1-1v-6l1-1h1v-3h-1l-1 1-2 5-2 4zv1zm217 0h1v-1h-1zm-250-1 1-2 2-1v-5l1-4h-1l-1-1v5l-1 2-2 2-2 1 1 2zm161-1 2-2v-2h-2v2zv2zm6 0h1v-1l-1-1h-1v2Zm54 0v-1h-1v1zm-197-1 2-1v-3h-1l-2 1v3zm115 0h1v-2h-3v2zm79 0v-1h-1v1zm-185-5 2-3v-2l-2 3-3 2v2zm203 2 1-1v-1l-1-1h-1v3Zm118-2v-1h-1v1zm-325-1h1v-4l-1 1h-2v2h1zm218 0v-1h-1v1zm-196-1v-2h-1v2Zm188 0v-1h-1v1zm-109-1v-1h-1v1zm-123-1v-1h-1v1zm25-1v-1h-1v1zm8 0v-1l-1-1v3zm104 0 1-1v-1h-1l-1 1zm78 0 2-2 1-2h-3l-1 1-1 1zm19 0 1-2 2-3-2 1-3 1v3Zm-207-1v-1h-1v1zm113-2v-1h-1v1zm-141-2h2l1-2 1-2h-3l-1 1-1 1v2zm143 0h1zh-2v1zm212 0 1-1v-1h-3l1 1zm13 0 1-2 2-2-1-2v-1h-2v4l-1 1h-1v2Zm-331-1v-1h-1v1zm-22-1 1-1v-1h-2v2zm121-1h2l2-1 3-1v-2h-2v1l-1 1h-4v1l-1 1zm86 0v-2h-1v2Zm13 0 3-4 3-4v-2l-3 3-3 2-1 3zm10 0h1v-1h-1zm-14-2v-3h-2v1l1 2v2zm-190 0h1v-2h-1l-1 1v1zm202 0v-1h-1v1zm-96-1 2-2 1-1 1-3 1-2v-1h-1l-1 2-1 3-2 2-2 2zm11 0 2-2 1-1-1-1-2 1-2 1v1zm-146-1v-2h-1v2Zm104-1h1v-3h-1v2zm109 0h2l1-1v-2h-1l-2 1-1 2zm21 0h1v-3l-1 1-2 1v1Zm121-1 1-1-1-1h-1v-4h3v-2l1-1v-1h-1l-3 3-3 3 1 1zv1Zm-136 0 2-1 1-2h-2l1-1v-1l1 1h1l1-3 2-4 7-7 8-8v-3l-5 5-6 6v2l-1 2h-2l-1 1 1-4v-3l2-2 1-2 2-3 1-2h-2l-3 5-3 5-1 1v4l-1 3-2 1-1 2h1l-2 3-2 3v2Zm-90-2 1-2v-1h-2l-1 1v3zm220 1v-1h-1v1zm-342-2v-1h-1v1zm140 0v-2h-1v2zm6-1-1-2v-2l-1-1h-1v6zm60 1 1-1 1-2h-2l-1 2-1 1zm-222-1v-1l1-1h-2v2zm11 0 1-1v-2l-1 1h-1v2zm131 0h2l1-1 1-2v-4l-1-1h-1l1 2v2l-2 1-3 1v2zm94 0 4-4 4-3v-3l-4 5-5 4v1Zm131 0h1v-2h-1v1l-1 1zm-213-2v-1h-1v1zm73 0h1v-2h-1v1l-1 1zm18-1h1v-1h-1zm-104-1h1zh-2v1zm84-1 3-2v-1h-1l-2 1-2 2v1zm-218-1 2-1v-1h-1l-1 1h-2v2zm147-2 1-1-1-1v-1l1-1 1-1-1-2-1-2h-1l-1 1v10zm-132 1h2l1-2 1-2-2 1zm337 0v-1l1-1h-2v2zm-145-2h2v-1h-1zl-2 1zm-203 0h1v-3l-1 1h-1v2Zm207-3 2-1v-1l-1-1-1-1h-2v5zm27 1v-2h-1v2Zm-216-1 1-2 2-1v-1l-2 1-2 1zv1Zm178-1v-1h-1v1zm-183-1 4-3 4-3 1 1h2l3-2 4-2v-2l1-1-4 1-3 2h-4v2l-3 2-3 1-2 2-1 1v1Zm136 0h2l-1-3v-2l-1-1h-1l1-2 1-2-1-2-1-1-1-3-1-3h-2v2l1 4 2 3-1 1v1l1 4v4zm92 0 1-1 1-1v-4l1-4-2 3-2 4v2zm92-3h1v-1h-1zm-122-1h1v-2h-1v1l-1 1zm9 0 1-1v-2h-2v3zm-12-1h1zh-2v1zm-144-1h1zh-2v1zm275 0v-1h-1v1zm-345-3 2-2-1-1h-1l-1 1-1 1v4zm40 2v-1h-1v1zm33 0v-1h-1v1zm271-1v-1h-1v1zm9-1 1-2-1-3-1-2v3l-1 4 1 1zm-331 0 1-1 2-2h2l1-3 1-2v-1h-1l-4 4-5 5zm193-3 4-3 1-2 1-2v-1h-1l-5 5-5 5v1zm2 2 1-1v-1h-1l-1 1zm-74-1v-2h-1v2Zm-134-1 1-3 2-3v-1l-2 2-1 2-1 1-1 2zm244 0 1-1v-2l-1 1h-1v2zm-221-1h1zh-2v1zm188 0 1-1v-1h-1l-1 1zm5-2h3l4-3 4-3 4-5 3-5v-2l-2 2-2 1v2l-5 5-5 5-3 1-3 2v1zm-83 0v-3l-1 1h-1l1 1zm107-1h1v-1h-1zm-231-1v-1l1-2h-1l-1-1-1 1-1 1v1zm121-1h1v-5l-1 1-1 1v1zm111 0h1v-1h-1zm-235-2v-2h-1v2Zm236 0v-1h-1v1zm96-2 1-1h2v-3h-2l-1 1h-1v3zm-335-1h1l3-1 3-2 2-3 2-3v-2l1-3-1 1-2 2-4 6zm204 0h1v-2l-2-1h-2v2h1v1zm-73-1h1v-5l-1 2-2 1 1 1zm87-1 4-2 2-1 2-2h-2l-3 1-3 2-1 2-1 1zm-78 0h1v-3l-2-2-2-2h-1l1 2v3l1 1zm-142-1v-1h-1v1zm233 0 5-4 5-4v-2l-2 1h-2l-3 4zm103 0 1-1v-1l-1-1v-1l-1 1-1 1zv1Zm-207-2 2-2v-5l-3-4-2-4h-2v12h2v-2l1-2 1 1 1 2v3l-1 3zm201 1v-1h-1v1zm-331-1v-1h-1v1zm20 0 1-1v-2l-1 1h-1v2zm322-1h1l1-2v-1l-1-1-1-1-1 1-1 1 1 1zm-339-1h1zh-2v1zm210 0h2l1-1v-1h-3l-1 1v1zm6 0v-1h-1v1zm-203-1v-1h-1v1zm206-1 1-1 2-1h-2l-2 1-1 1zm9-2h2l4-3 5-3 1-1v-1h-4l-1 1-2 1v1l-1 1v-1h-1l-3 2-2 3zm100 0v-2h-1v2zm16-1v-2h-1v2zm-120-1 3-2 2-3-1-1-3 3-4 3zm-210-1v-1h-1v1zm308 0v-1h-1v1zm-322-1v-1h-1v1zm117 0 1-1-1-2v-1h-1v4zm198 0v-1l1-1h-1l-1-1v3Zm-286-2v-1h-1v1zm182 0h1l2-2 2-2h1l1 1v-1l1-1-1-1v-1l-2 1-2 1v-2l2-1 2-2h2l-1 1v1h2l3-1h1v-1h-3l-1-1-1-1 1-2 1-2 2-1h2l1 1 2 1 2-2 1-2h3v-2h-2l-1 1-1 1h-2l-2 1v-2l5-3 4-2-1-1h-1l-3 2-2 2h-3l-8 8-8 7v3h2v3zl-2 1zm-208-1v-1h-1v1zm328 0h1l-1-2-2-1h-1v2l1 1zm-109-1h1l2-1 1-2h-2l-1 2-2 1zm98 0h1v-1h-1zm-316-1 1-1v-1h-2v2zm240-2v-1h-1v1zm-129-1h1v-3l-2-2-2-3-1-3-1-3-2 1-1 1 1 1 1 1 2 5zm5 0v-2h-1v2Zm199 0h1zh-2v1zm-81-1v-1h-1v1zm77-1h1v-3l-1 1h-1v2Zm-300-2 4-3 4-3h-2l-4 2-3 2v2Zm12-3h2v-1h-1zl-2 1zm74 0 1-1-1-2-1-3-1-1-2-1v1l-1 2h2l1 1v4h1v1zm114-2 1-1v-1h-2l-1 1v1zm-182-3h4l-3-1-2-1-1 1-1 1Zm72-2v-5l-1-1h-1l-1 1-1 2v1l2 2 2 2zm-64 1h2v-2l-1-1h-1v-3l2-1h2v-2h-2l-2 1h-2l-1 1-1 1v1h2v5zm-3-1v-1h-1v1zm14-2h2v-2h-1l-1 1zv1zm47 0v-1h-1v1zm156-2v-2h-3l-1 1 2 1 1 2zm8 2h1zh-2v1zm-155-1h1zh-2v1zm132 0h1v-2h-2v2zm-16-2h3v-1l1-1h-3l-1 1h-2v2zm33 0h1zh-2v1zm-200-1h1v-2h-1l-1 1v1zm253-1-1-1-1-1v2h1v1zm6 1h1v-1l-1-1h-1v2Zm-203-3-1-2-1-2-1 2v2l1 1zm125 1v-1h-1v1zm54 0-3-1-2-2h-3l3 2 3 1zm-61-1h1v-2h-2v2zm-8-1h1zh-2v1zm31 0v-1h-1v1zm-188-2h1v-1l-1-1h-1v2Zm-15-1h2v-2h-4v1l1 1zm11 0v-1h-1v1zm207-3v-2h-2v1zm9-1h1zh-2v1zm4 0v-1h-1v1zm-232-4h2v-2h2l2-1 2 1 3 2 1-1 1-1-2-2-2-2h-4l-3 2-3 2-1 1-1 1v1zm450 541-1 1zv-2h-7l-1 2-2 1v-1l-1-1-2 1-1 1-1-1-2-1-2 1h-1v-1l1-1h-11l-6-1 1-1v-2h-3l-2 1v-2l-1-1h-12l-3-2-4-2-6-1h-5l-1-1v-1l1-1h1l-1-2-1-1h-3v-1l1-2h-5v-4h-1l-3 2-2 1v-6l-2 1h-3v-1l1-2-2-1-1-1-1 1v1l-2-1h-3l-1-2-2-1-2 1-2 1-2-1-3-1h-2l-3-1 1 1 1 2v1h-2l-2-1 1-1v-2h-3l-1 2-2 3h-4l-2-1-1-1-2 1-1 2h-1l-2 1h-1l-2 2-2 2h-4v-1l1-1h-2v4l-3-1h-3v3l-4 2-3 1-1-1v-1l-2 2-3 1v-1h-1l-1 2v2h-2l-1-1h-1l1-1v-1h-1l-2 1-1-1-1-1v4h1l1-1 1 1h1l-1 2-1 1-2-1-1-1-4 1-4 2v-1l-1-1-3 1h-3l1-1v-2l-2 2-3 2-2-2-2-2v2h-2l-1-2-2-1 1-2 1-2-1 2-2 1v1l1 2h-3l-1-1-1-1-2 1h-2l-5-2-4-2v-2l-2 1h-1l-2-2-2-1h-2l-3 1v-4h-3l-2-1-1 1h-1v-3l-2-1h-2v-2l1-1-1-1-2-1-1 1-1 1h-2l1-2v-2h-4l1-2v-1l-1 1h-2v-2l-1-2-2 1-2 1-1-3-2-3h-3l-1-2-2-2-1 1-2 1-2-2-2-1-1 1-1 1h-1l-1-1v2h-4l-4-1-2 1-3 1v1l-1 1-2-1-2-2h-1v2l1 1h-2v-2l-2 2-3 3h-4l-1 1-1 1v-1l-1 2-2 3-1-1h-1v2l1 2h-2v-4l-1 2v1h-5v2l-1 2-1 1-3 3-3 2v1h-6v2l-1 2-2-1h-1v3h-7v2l-1 2-3-1h-2l-1-1-1-2v5l-1 1h-1l-2-2-1-1v4h-2l-1-1v-2h-5v2l-4 2-4 2-1 2v1l-2-1-1-1h-2l-3 1v-2h-4l-3-1-2 2-1 1h-5l-5-1 1 2v1h-2l-1-3-1-2-2 1-2 2v-2l-1-2h-4l-3-1-3-2-2-1 1-2v-2h-3l-2 1 1-1h1v-2h-2l-2 1h-2l-1 1-2-1-1-2h-1v1l1 1-2-1h-2l1-2v-3h-1l-1-1-1 1h-1l-3 1h-3l-2-1-1-1v-3l1-2h-2l-2 1 1-3v-2h-4l1-2 1-2v-2l-1-1-2 1-1 2-2-1h-1l1-1 1-2-4-2-3-2-4 1h-4l-2-1-1-1-1 1-1 1 1 3v2l-2-1-2-1-2 1h-2v2h-5v3l-2 1h-1l-2-1-1-1v2h-2l-2-1v2h-4l-2 2-1 2h-5l-1 1v1h-2l-2 2-2 3v-4h-4v2l-3 2-3 1h-1v-1l-3 2-2 2-2-1h-2v1l1 1-2 1-2 1h-3l-3-3-4-3v3l2 2 3 2v-1h1v2h-3l-3-1h-2l-1-1-1 1h-1l1 1v1h-8v-2h-4l1 1 2 1h-3v-1l-1-1h-4v-2l-1-2h2v-1h-1l-3 2-2 2h-1l-1-1-2-2-1 1h-2v3h-2v-6h-1l-2 1-2 1v-3h-3l-4-1-3-1v-3h-3l-5-4-4-5h-2v-2h-3l-3 1v-1l-1-1 1-1h2l-1-1-1-2-3-1-2-2h-12v1l-1 2h-5l-2 3-2 3h-5v2h-7v2h-1l-1-1-2 2-2 2h-1l-1-1v3h-2v3h-2v1l1 1h-4v2l-4 2-5 1v3h-11l-1 1-1 1-2-1-1-1 1 1v2l1 1v1h-2l-1 1v-1l1-1h-1l-1-1-4 1h-5v4h-2l-1-1v-1l1-2 1-1-2 1h-2l-1 1v1h-3v2l-1-1h-2v-3h-3l-3 1-1-1-1-1-3-1h-3l-2-2-2-2h-6l-2-2-1-2h-5v-2l1-1-3-3-2-2v-2l-3-3-3-2 1-1 1-1-1-2-1-2h-2v4l-1-1h-2l-1 1-2 2 1 1h-1l-1-1v-3l1-3-2 1-1 1 1 1v2l-2 1h-2l-1-1-2-2-3 2-3 2-1-1h-2l-2 1-3 2h1v1h-6l-2 1h-2v2l1 1h-3l-2 3-2 2h-2l-2-1v2l-1 1h-4l-4-1v2h3v3h-2l-3-1-1 2-1 2h-5l-2 1-3 1-2 1-3 1-2-1-2-1-1 2-1 1h-8l-1 1v1l-2-1-2-1v1l-1 1v-4l1-3h-1l-1 1v3l-2 1-2 1v-1l-1-1-1 1-1 1h-2l-2 1 1-2v-1l-3 1-3 1v-2h-1v2h-3l-1-2-1-1h-7l-1-2-1-1-2 1h-2l-1-2-1-2h-1l-1 1-3-3-3-3-5-3-4-2h-3v-4h-1v1l-3-1-2-1v-2l1-2h-1l-1-1-1 1v2h-2l1-2v-2h-1l-1 1-2-1-1-2-3-1h-3v1l-1 1h2l1 1v2h-4l-1 2-1 1h-3l-4 2-3 2h-1l-1-1v2l-1 3-4 1-3 2h-6l-1 2-1 2h-1l-1-1-4 4-4 3-2-1-2-1-2 3-3 2h-2l-1-2-2-1-2 1h-3l-3 3-2 2-1-1-1-1 1-1v-1h-1l-1-1-1 2-1 2h-3l-1-1-1-2-2 1-2 1-2-1-2-2h-3l1-1v-1l-2 1-2 1-3-2-2-2-2 1h-2v-5h-2l-1 1-1-2-1-3-1-1h-1l-1-1h-3v-6h-1l-2-1 1 1v2l-1 1v1l-1-2-1-3v-4l-2-1-3-1 1-1v-2h-3v-2l1-1 1-1h-1l-1-1v2h-3l1-1v-1l-2-1-1-1v-2l-2-2-3-2v-5l-3-4-4-3-1-4-2-4v-5h-1v-1l-1-2v-1l-1-2v-1l-1-3v-3l-1-7-2-6 1-1 1-1 1-8v-9h-1l-1-1 1-8v-17l1-6 1-6 1-3v-7l1-4v-2l1-2-1 1h-2v-1l2-2 1-1v-6l1-1v-2h-3l1-2v-1l-1-5-2-4v-1h1l2 1v-2l-2-2-2-2 2-1h1v-2l-2-1-3-1 1 2v2h-1l-2-1 1-1v-2l-1 1h-1v-2l1-3h-3l-1-2-1-2-1 1h-2l-4 1h-5l-1 1-1 1h-3l-2 1h-2l-2 1h-2v2l-1 1 2 1 1 1-2 1h-2l-1 1-2 1-2 1-2 1v2l-1 2 1 1v2l-3 2-3 1v2h-3v3l-2 1-2 2 1 2 2 2h-1v1h-5v2h4v2l-2 3-1 4-2 1-2 1v2l2 1 1 2-1 3-1 2v7l-1 1-1 1v16l1 4 1 1 1 1v4l1 4-1 2-2 2v13l-2 4-2 3 1 1h2l1 3 1 3-1 1h-1l-1-2-1-2h-2v3l2 1h1v6l-2 1h-2v2l-1 1 1 1 1-1v-1h2l-1 8v10l-1 2h-3l1-1v-1l-1-1v-1l-2 1-1 1v4l-5 6-5 6v1h3l3-4 3-3 1-3 1-3 2 1h3v2l-1 1-1-1h-1l1 2v3l-1 1-2 2v2h-2l-3-1-2 3-2 3h3l1 1v1h-2l-2 1v2h2l2-1v2l-2 1h-1l-3-1-3-2 1 2v2h4l-1 1v2h1l1 1v2h-1l-1-1-1 2v2l-2-1h-3l-1-2-1-2h-2v4h2l1-1 1 2v1l-1 1-1 2 1-2v-1l-1 1h-2l-1 1h-1v-2l-1-2v4l-3-1h-2l-1-3v-3l-3-1-2-1 1-1v-2l-2-1-2-1h-5l1-1v-2l-3-1-3-1v-3l-2-1-3-1v-2l-1-2h2l2 1v-3h-2v-2l-2-2-2-2-1-3v-2l-1-4-1-3 1-2 1-2-1-1-1-1v-5l-1-3v1h-1v-1l1-2 1-2-1-3-1-2 1-1 1 1v1l1-9v-8l1-1 1-2-1-2-1-3v-2h3v-1l-1-2-2-1v-3l2-2 1-1-1-1-1-1v-1l1-1v-14l1-14-2-1-1-2 1-1h1v-7h3v-3l-2-3-2-4v-3h-1l-1-1 1-1 1-2-1-1v-2h1l1-1-1-2v-2h-1v-10l-6-5-5-5h-3v-1l1-1-3 2-3 1h-2l-1-1v4l-1-1-2-2h-1l-2 1 1 1v2h-4v-2l-1 3-2 3h-2l-4 5-4 4h-3v4l-3 3-3 3v2h-3v2l1 2-1 1v2h-2l-3 1 2 1 2 1-1 1-2 1v5h2v3h-3v-3l-1-1h-1v4h1l2 1-1 3v3h-2v2h3v1l1 2-3-1h-3l1 3 1 2-1 2v2h-2l1 3v4h-1v1l-1-1-1-1v1l1 2v3h2l2-1v3h-1l-1-1-2 2-1 3v13l1 1h-1l-1 1v6h-2v3h1l2-2 1-1v5h-3v7l2-2 1-1h1v1l-1 2-1 2 1 1v2l-1-1h-2v1l-1 1 1 4 1 5-1 4-1 4 1 4 1 4-1 1h-1v3l1 2-1 3-1 2h-4l-1-1-1-2-1-2v-3h-2l1-2v-2h-1v1l-1 1v2l-1 1 3 3 3 3 2 3 1 3-1 4v5l-3 1-3 1v2h-2l-1 1v1l2-1 2-1h1v1l-2 2-2 3v3l-2 1h-1v2l1 1h-4l-1 2v2h-2l-1-1v2h1l2 1h-3l-2-1-1-1-1-1v-3l-1-3-1 1-1 1v1l-1 2-1 1h-2l-2-5-2-4-3-1-3-1v-3h-2l-2 1-5-4-4-3v-4l2 1h2v-2h-1l-2-3-2-3-1 1-1 1v-1l-1-1h1l2-1-2-2-1-3v-8l-1-1-1-1v-12l1-2 1-1 1 1 1 2v-2l-2-3-1-3 2-4 1-4v-1h-1l2-3 1-3-1-1h-1l1-3v-2h-2v-7l1-1h1v-7l1-6-2-1-1-1 1-1 1-2v-2l1-3-2-1h-1l1-5v-6l2-2 1-2v-7l1-6h-2v8l-1 2v2h-2l-1-3v-6l-1-1-1-2 1-7v-7l1-1v-1l1-6v-6h-2l-1 1 1-1 1-2v-3l-1-3-2-2-2-2v-2l1-2-2-3-1-4-1-1-1-1-1 1-1 2-1-2-1-1 1-1 2-1-2-1-1-1v-4l-3-1h-2v1l1 2h-2v-3l-2-1-2-1v3h-6l-1 2-1 1h-4v3l-1 1h-1l-1-1-1-1h-1l-1 1v3l1 3-1-2-1-1v2l1 2h-5v2l-1 2 2-1h1v2h-3v4l-1 3-1 3-3 2-3 3-1-1h-1v2l-4 4-3 4v-2l1-1h-3l-1 2-2 2h-1v-1l-2 1-1 1v-2l-1 1-1 2-1-2-2-2h-2v-1l-1-1-1 1-2 1v-2h1l1-1v-3h-2l-2 1v-3l-1-3-4-1-4-2v-3l-2-3-1-3 1-1 2-2-2-2-1-2h-3v1l-1 2 1-4v-3h-3v-3l2-1h2l1-2 2-2v-6l1-2h-2l-2 1v-2l-1-2h5l1-2v-2h-1l-2 1v-3l1-1 2-1v1l1 1v-4l1-1 1-5 1-4 1-1 1-1-1-1-1-1h1l1-1v-5h2v-4l1-2 2-2 2-2h-3l1-2 1-2-1-1h-1 2l1 1 2-2 2-2v-3l2-3 3-3v5h2v-2h1l1 1v-1l1-1h4l1-3 1-2h2l2 1 1-1h2v-3h3l1 1 2 2 5 2 6 2 2-1h3l1-2 2-1h-1l-1-1-2 1-3 1-3-1-4-2v-2l-3-1-3-1h-1v1l-3-2-2-1v1l1 2h-1l-2-1v4l-2-1-2-1v-2l3-3 3-2 2 1 2 1 2-2 2-1v2l1 1 1 2 2 1h3v-2h-3v-3h2l2 2 1 2h4v-2l-2-1-1-1h-2l-2-1h-1l1-1 1-1v-1l-1-1-1 1h-1l1-1v-2h11l1 2 2 1v1h-1l-4-1-3-2h-1v2l3 2 4 1h1l1-1 4 2 4 2 2 2 1 1 1-1 1-1v-1l-1-1-1 1h-1v-2l-4-1-3-2 1-1 2-2v-3l3 1 3 2 2-1h2l1 1 2 2h2l1 3 2 2v1h-1l-2-2-3-2h-1v1l2 2 1 2 3 1 2 1 2-1 1-1 4-1 4-1 1 1 1 1h6v2h3l1 2 1 2v3l1-2 1-2 2 1h1l5 6 4 5v2l3 3 4 4-1 2v2l3 2 2 1h5l2-2 1-1h-9l-1-1v-1l2-1h1l2-2 1-1v-1l3-4 4-3 3-2 3-2 5-3 4-2 1 1v1h6l2-1 1-1h4l3 1v-2l-1-1-1-1h6l1-1v-1l2 1 1 1 4-2 3-3 3 2 3 1v-1l-1-1h3v2h3l3 1 1 2 1 1 4 2 4 2 1-1-3-3-3-4v-2h3l1 2 2 2v2l3 1 4 2 2 1h2v1h-1l1 2 1 1h4v2l-1 2h1l1 1v5h2v-3l-1-2-1-3v-2h2l2 1v5h2l1 1h1v-1l-1-3-2-4h-2l1-1 1-1 2 2 2 3v3h3v2l5 5 5 5v-1l1-1-1-1h-2l1-1v-2h7l4-4 5-5h2v2l-2 1-2 2-5 5-5 6-3 3-3 3v4l2 2 2 3v-1l1-1-1-2-1-2 1-2 1-2v-2l3-3 2-2 3-2 2-2 2 1h2l1-2 1-2 7-4 6-3 1-2v-1h2l2-2 2-2-2-1-2-2h-3v3h-2l-3 1h-3l2-2 2-2h3v-2h-2l-2 1v-1l4-2 3-1 1 1 1 1 1-1 2-1h5v3h2l2-1 2 2 2 2h3v-2l-2-2-1-1h7v-2h-2l-3-2-3-2h-1l-1 1-2-1-2-1h6l2-1 2-1v3l3 1 2 2 2-1 1-1 3 3 3 3h1l2-2 2-2v1l1 1h-2l1 1v1h3l3-1 6 6 5 5h2l1-2 2-2 3 3 3 3v4l3 3 3 3h1l-1-2v-1l-5-6-4-6 1-1v-1l3 3 3 3h1v1l3 3 2 3v2l2 2 1 2-1-3v-2l-1-4-1-4 3 2 3 2v4h2l1 3v3l2 3 1 3 1-1h1l-1-2-2-1v-9l-1-1-1-2v-2l-1-2h1l1-1 1 2v1l2 3 2 2 2-1h2l1 1 2 2v3h2v2l1 2h5v3l-1 3h2l1 1v3l-1 3 1 2 1 1-1 4-1 5h5v1l-1 1 1 2 1 2v-4h2v1l1 2-1 1h-1v2h2l2 1 1 6v12l-1 4 2 4 1 3v4l-1 4-1 4-1 3 1 2 2 1v2l-1 4-2 4 1 2 1 1-1 9v10h-2l-1-1 1 1 1 1-1 4v3l-1 4-1 3h3v3l-1 1h-1l1 2v2l-1 2-1 1 1 2 1 1-2 2-1 1 1 1 1 1-1 2-2 3v1h2l1-1v3l-1 2-1 2v2l-2-2-2-1v3h3v4l1 4 1 1v2h-2l-3 3-3 3h1l1 1 2-2 1-2 2 2 1 2-1 1-1 1 1 2v2l1 1 1 1 1-1 1-1 1 1 1 1v1l1 2 1 1 1 1h5v3h3l1 2 1 1h2l4-4 4-3h3v-1l1-2-1-2v-2h1l2-1v-3l3-2 2-2v-3h4v-7l1 1 2 1 3-3 3-2h-1l-2 1-2 1-1-1 1-3 1-3h2l2 1 1-2v-1l-2-2-1-1h1l2 1 1-2v-1l-1-1-1-1h2l3-1-2-1-2-1 2-3 1-2v-10l2-2 1-2v-3h-3v-3h1l1-1-1-2v-3l-1-1-1-1 1-5 1-5v-18l1-3 1-3v-7h2v-1l-1-1 1-2v-3h3v-3l-1 1h-1v-1l1-1h2l1 1-1-3v-3h2v-3l1-1h1l1 1 1 1v-2l1-2-1-1h-1v-3h2v2l3-2 3-1 3-2 3-2 2-2 2-3 4-1 4-2v-2h3v-3l3-1 2-1h-4l-1 2-2 1-5 3-5 2-6 6-5 5h-1l-1-1-1-1v-1h1l1 1v-2l4-4 5-4 2-3 3-2h3l3-2 2-1-1-2-1-1 3-1 2-1 3-1 2-1 1-1 1-2v-1h-1l-6 3-7 4-3 3-3 3-2 1-2 1-2-1-1-2h3l4-4 4-4v-1h-1l-2 1-1 1h-1v-1l1-2 1-2h4l-1-2-1-2h4l1-1v-2h4v2l1 1h2v-3h-2l-1-1v-3h2l2-2 2-3h4v1l1 1h3l1-2 1-3h4l3-1h3l3-1h1v-1l-1-1-2-2-1 1-2 1h-4l-1-2v-1l1-1h1l1-1 2-2h2l3-1 2 1 1 1 3-2 3-2 4 2 3 2h3v-1l1-1h7v-2l3 1h3l-1-1-1-2v-2l-1-3h2v1h-1l3 3 2 2 3-1h2v2l-2 2-2 2h-2l1 1 1 2 2-1h2l2 2 2 3h3l-2-2-2-2v-2h-1l-2-1 2-1 1-1 2 1 3 2 1-2 2-1v3h2l1-1 5 5 5 4 6 4 5 4h1l1-1-4-3-4-3-4-3-3-3h-2v-4h-3l-2-2-1-2h-2l-3-2-4-2v-1h1l4 2 4 2h2l4 1 4 1 7 7 7 7 1-2v-1l2 1h2l-2-2-2-2-2-1h-1l1 2 1 2-2-3-3-2 2-1 1-1h2l2 2 1 2 8-1h8v-1h-4l-4-1v-2l-2-2-2-2-1 1h-2v3h-1l-1-1 1-1v-2l-3-1-3-2h-2l-2 1v3h1l2 1v-2l1 1h1l-1 1-2 1 1 1v1h-1l-2-2-2-2v-1l-1-2-1-1-1-2-2-1-3-2v-2h2l3 1 1 2 2 1 4-1 3-1 3 3 2 2h6l1 2 2 1-1 1v1l1-1 2-1 3 3 4 3 1 1 1 1h1v-2l-2-2-1-1v-1h1l3 2 3 3-1 1-1 1 2 3 2 2 1 2v2h3l1 2v1l2-1 1-1-2-2-3-2 1-1h1l1 1 2 1v-2l1-1v-3l-1 2-1 1-2-1-2-2-2-1-2-2h1l1-1v1l1 1h2v-1l-1-2 2-1 1-2v2l-1 1h1l2-1 1 1 2 1-1 2v3h3l1-3 1-3 3-3 2-4h3l-1-1v-1l4-3 3-4h5v4l3 1h3l-1-2-2-2v-1l2 1h2l1 3 1 2-2 3-2 3h-1v-3l-2-1h-1v5l1 6h-5l-1-2-1-3 1-1 2-2-2 2-2 1-2 2-1 1-1 3-1 2-1-1h-1v1l1 1-1 3-2 2v2l1 1h-2l2 4 1 4-2 2-1 2h1l1 1v2l1 3h-2l-1 3-1 2v1h1l2-2 3-2h1l2 1v-2h3l1-1v-2l-1-3-1-2v-3l1-1h1l1-3 1-2h-1l-1-1v-2l-1-3h2v2l1 2h2l2-4 2-5h3v-4l2-4 2-4v-3l-1-3 2 1 1 1h2l2-1 1 2 1 1-1-1h-2v2l3 4 2 3-2 2-1 1-2-2-1-1v-7l-1 1h-1l1 2v2h-2v2l1 2-3 2-2 2 2 2 2 3 2 3 1 3 1-1v-1l-1-1-2-1h3v-4l-1-1h-1v-6l1 1h2l1 2 1 3 3-3 2-2 2 4 2 5 1 2v3h-1l-1 1 1 3v3l-2 1-2 1v2h2l2-1v3h-2l1 3v3h1l1 1-2 3-2 3 1 2 1 2-1 4-1 3 1 2 1 2-2 4-2 4 1 5v5h-1l-1 1 1 4v3l-1 3-1 2 1 2 2 2-2 5-1 5h-1l-1 1 1 5 2 5-1-1h-1v6l-1 1-1 1 1 1 1 1v9h-2v6l1 5-2 2-2 1v3h3l-1 4-1 5h1l1-2 1-3h1v15l1 4 1 2 2 1v4h-3v5l2-2 2-2v1l1 1v2l1 3 1 2 2 2 2 3 1 2v3l1 2 1 1 2 1 2 2 1 2 1-1h1v2l-1 1h-3l1 2v2l2 4 2 3v2l2 2 1 1-1 1-2 1h5l3 2 2 3v-1l-1-2-1-3-4-3-3-4v-4h1l3 4 3 3h2l-3-4-2-4 1-1 1-1-1-1h-1l-1 1-1 2-1-2-1-1v-2l2-1h1l1 1 2 1h2l2 1 1-2v-1h3l6-6 6-7v-3l2-1 2-2h-1l1-2 2-1v-2l-1 1v1h-2v-2l1-2 2-3 2-4v-2h1v1l2-2 2-2-1-4v-4h4l-1-2v-2l1-1 1-1v-4h3v-2l-1-3 1-1 2-1v-7l2-2 2-2v-3l-2-1-2-1v-5h1l1-1v1l1 1h1v-1l-1-1-1-1 1-5v-4l1-3 1-3v-4l-1-1-1-1 2-1 2-1h1l1 1-1-3-1-4 1-1v-2h2v-4h-2l-1 1h-1l1 2v2h-3v-5l-1-6 1-7 1-8-1-1-1-2v-6l1-5-1-1-1-2 1-4v-5h2v2l1 2 1-1 1-1-1-3-1-3 1-1 1-1 1-4 1-3-1-2-1-1 2-4 1-3-1-1h1l1 1v-4l2-1 1-1v-5h-1l-1 1v-3l3-2 2-3h-2v-2l1 1 1 1h4v-3l-2 1h-2l2-1 2-1v-3h2v-3l3-1 3-1 2 1 1 1 3-1 3-1 3 1 4 1h1l1-1 2 2 2 1v3l2-1h3v1l1 1-1 2-2 1v1h2l2-1v1l-1 1 3 5 2 4-1 2v2h3v3h-1l-1 1 1 2v1l2 1 1 1-1 2v2l-1 3-1 2 1 2 1 2-3-1h-3l3 3 3 2-1 5v4l2-1 2-1-2 1-1 1v3l1 2 2 1-1 3-1 3v2l-2-1h-2v3h3l2-1v3h-1l-1 1 1 4v3l-1 1v2l-1 1v2l1 1h2l-1 2v1h-2l-1-1-1 2-1 2v1h3l3-1-1 7v7l-1 1-1 1 1 3 1 2-1 2-2 3v1l1 1 2-1h1l-1 2-2 3 1 2 2 3-1 1v1h-2l-2 1v2h3v4l-1 4-1 1h-1v5l2-1h2v10l2 1 1 2h-3v2l2 3 2 2v12l-1 2h1l1-2 2-1 1 5 2 5h2v5l3 2 3 3h3v2l1 1h-4l3 2 3 2 2 3 2 2 2 1 1 1 2 2 1 1 3 2 3 1v-5l4-1 3-1h5l-1-2v-2h4l2-2 2-2 1 1h1v-2h3l2 2 2 1v-1l-2-2-2-2v-3l2-1 3-1 2-2 2-3 1 1 2 1h6l3-3 3-3v-1h-1l-2 1-2 2h-5l-1-2-1-2 1-2 1-3h3l2-4 2-4h3v-1l1-2-2 1h-1l3-6 3-7h1l1-1-1-4-1-4v-4h-1l-1-1-1-1v-1l2 1h2v-3l-2-2-2-2 1-3 1-3-1-1h-1v-6l1-1 1-1-1-1-1-1v-5h-2l-1-1 1-2 1-1-3-4-2-3 1-1 1-1v-4l1-5h-4v-1h-1l1-2 1-1-1-1-1-2v-8l1-2 1-1h-2l-1-5v-7l-1-2-2-5-1-6 1-1h1l-1-1v-8l-1-6v-1h-1v-3h3v2h1v-1l-1-4-2-3-1-6v-7l2 3 2 2h2v-1l-2-3-2-2 1-4 1-3-2-1-2-1-1-3v-4l1-3 2-2-2-3-1-2v-1h4l3-1v-3h-3l-1 1-1 1h-1l-1-1v-4l-1-3 1-5 1-5-1-8-1-7 1-1 1-1-1-1-1-1v-5h2l-1-2v-2l-1-3v-3l1-1 1-2h-1v-12l1-5v-12h2v-2l-1-1 1-1 1-1v-7l1-5 1-5v-3l-1-2h2v2h3v-2l-1-1v-2h-3l3-3 3-4h2v-2h-3v-8l1-7 1-2 1-1v-1l-1-1 1-2 2-1v-3l5-3 4-4 2-1 2-1 1-1 2-2v-1l-2 1h-2v-1l1-1h-1l-6 6-5 6h-3v-1l1-4 1-4 3-3 2-3-1-1-1-1h2l-1-2v-3h4l1-2v-2h-1l-1 1 2-2 2-2 2 1h1l1-2 2-3 2-2 2-2 2 1h2l6-6 6-6v-1h-1l-4 3-5 3 1 1v1l-1-1h-2l-2 2-2 2-4 3-4 4v-2l4-6 3-6 2-2 1-1h3v2l2-2 3-2 2-1 3-1h4l2-1 1-1v2h2l2 1v-1h-1l1-2 1-1h4l3-6 4-5v-1h-1l-2 2-3 1h-1l-1-1-5 1h-5l2 1h1l-1 1v1h-2v-2l1-1 4-2 4-2 3-1h3l-2-2-2-2h1l2-2 2-1v2l1 1h4l1-1v-1h7v-3h-2l-2-1-1 2-1 1h-4v-2l4-2 3-1 3 1 2 1h4l6 6 5 6 4 2 4 3h1v-1l-4-5-5-4-3-1-2-1v-1l1-1h5l6 6 6 6 2 1 3 1v2l-1 1 1 2 1 2 3 3 3 2 1-1 1-1-1-1-2-1v-3l2 1h1v-2l-2-1h-1l-1 1-1 1h-1l-1-1 1-1 1-1-2-3-3-4h2l2 2 1 1h2v-1l-2-3-3-3-4-2-4-3v-2h2l4 4 4 3h1l4 4 4 3h2v-2h-1l-1-1v-3h2l3 1v4l2 2 2 1v-4l2 1 2 1v4h2l1 1v4l3 2 2 2v2h-2l-2-1v2l-1 2 1 1 1 1v-2h2l2 2 1 1 1-1 1-1-1-2-1-1 2 1 2 1 1 3 1 2v1h-3l-2-1h-2l-1-1v1l2 5 3 4h1v-3l-1-3h3l1 3 1 3v3l-1 3 1-1h1v-4l1-1h1v3h1l2 1v4l1 3 3 3 2 2v3l-1 3h1l2 1 1 4 1 5v4h-3l1 3 2 2-1 2v2l1 1 1 2v5l1 5 1 2 2 2h-1l-1 1v-2l-1-1h-2v2l1 1 2 2v4l1 4 1 13v12h-2v2l1 2-1 2-1 2-1 3v18l-1 1-1 1-1 4-1 4 2 1 1 1-1 4v4l-1 2v2l-1 1v2l-1 2v4l1 3h-2v-2l-1-1h-2l-1 8v8l-2 1-2 1v1h1l1-1 2-1h1v1l-2 2-2 2-1 3v2l1 1h1v4l-2 2-2 3v4h-2l-1-1v2h3l-1 2-2 2v7l-1 1-1 1v4h-2l-1 3-2 4v3l-1 4-2 1-3 1v5l-2 5-1 4v1l-1 1v2l-1 3-1 1-1 1-1 3v3l-1 2-2 1 1 1 1 1v1l-1 1-2 3-2 4h-2v3l-3 3-4 4v2l1-1h2v5l-1 2-1 1v9l-2 2-3 2v4l-2 2-1 1-1 1v2l-1 5-1 5h-3l-1 5-1 5h-2l-1 1v2h3v3l-1 2-2 2 1 1v2h-1l-1 1v9l-1 1h-1v-2h-2l-3 3-2 2 1 2v2h-5l2 1 1 1h-1l-1 1-1-1h-1v4l-1 2-1 1h-1l-2-4-1-4v-1l-3-5-2-4h-1l1 5v5l2 1 1 1-2 2-2 2 2 2 1 3h1l1 1v1l-1 2 1 1h1v4h2v-2l1-1h1l1 1v-1l1-1 4 4 3 4 3 2 2 3 4 5 4 5 5 3 5 3h2l2 2 1 1h5v2h4l1 1v2h3v-2l3-1 2-1h5v2l-1 2 2-1h1v-2h3v2h1v-1l-1-2-2-1h3l2 1 2 1h2v-2l-1-2h4l5 1 2 2 2 2-1 1v2h-6l-1-1-1-1-2 1-3 1 3 1h3l2 2 2 1 1-1 2-1h13l4-1 3-1-7-1-7-1-4-3-5-4v-5l3-1 2-1h1v1l2-2 2-1v-4h2l1 1v1l2-1 1-1v-2h-2l-2 1v-2l2-2 2-2h1l2 1 1 1-1 2-2 2h3l1-2 1-2v-2l-1-2h7l-1-1v-1l3-4 4-3v-3l2-2 2-3h-1l1-2 2-2-1-1v-1h1l2 1 1-2 1-1 2-1h2l2-2 2-2-2 1h-5l-1-1v-2h2l1 1 2-2 2-2-1-1v-1l-1 1v1h-2v-3l4-4 3-3-1-1-1-1 2-1 2-2-1-2-2-1h3l-2-3-3-3 2-1 1-2-1-1-2-2v-3h2l1 1v-1l-2-4-3-5 1-1v-2l-1-2-1-2 1-1 1-1-1-2-1-3-1-2v-2h3v-4l-2-1-1-2v-2h1l1 1 1-1 2-1-2-1h-1l-1-2-1-2v-5l-1-4 1 1 1 1h2l-1-3-1-2-2-2-1-1v-4l-1-3-1-3-1-2h1v-1l-1-2-1-1 1 1 1 1h2v-4h-1l-1-1-1-5v-15l-1-2-1-1-1-10v-10h3l-2-3-2-2v-14l-1-14 1-4 1-3-2-4-1-3v-2l1-2 2-2 2-1v-3h-2l-1 1v-3l-1-2-2-1v-3l-1-2 1-2 1-2-1-1-1-2 1-1 1-1v-1l1-2-2-2-1-3h3v2h1v-1l-1-1-1-2 1-5v-6h2l1-10 1-11-1-2-1-2h2v-6l2-2 3-3v-3l1-3v-2l-1-3h-3l1-2 2-3v-4h2v-5l1-1h2v-7l1-5 1-5 1-3v-3l2-2 2-2v-2h-3v-2l3-6 4-6 1-1h1v2l-1 2 1-1 1-1 2-3 3-4-1-1-1-1 2-3 3-2 1-3v-2l3-1 4-2h-5l2-4 2-4 3-3 2-3h7l3-3 4-2h3v2l-2 1-3 1v1l-1 1h2l4-3 5-3h6l1-1v-1h-3l-1-1v-1l2 1h2v-2h3v-1l1-1h2l2 1-3 1h-2v2h3l2 1 3 1h2l1-1 1-1 3 1 4 1h1v-1l-1-1-1-1-1 1h-2l-2-1-1-2 1-1 1-1h3l3-1v5h9l1 1v2l-1 2 3 2 2 2-1-3v-3h3l1 2 1 3v3h3l2-3 2-3h3l2 1 3 2 2-1 2-1h-3l-2-2-3-3v-2h-2l-1-2-2-3 2 1h1l5 5 5 4h2v3l2 1 2 1-1 1-1 1 2 1 1 2 2 1 2 1v5h1l2 1v3l1 3 2 1h1l1-1v-1h2l-1 3v3l-1 1v1l-1-1h-1v1l1 1h1l1-1 2 2 3 2-2 2-1 2 1 1 1 1 1-1 2-1v-2l2-2 1-1h2v1h-1l2 3 2 2v11l2 2 1 2 1 12v13h-3v2l-1 1 1-1 2-1 1 1h2v3l1 3v8l-1 8-3 4-4 5 1 2 1 2 1 1h1l-1-3v-4l1-1h1l1 2 2 1v4l1 3-1 2-1 2 1 1 1 1-1 2-1 2 1-1h1l-1 2v18l-2-1h-1l1 1 1 1v4h-2v3l-2 1-2 2v2h1l2-2 2-1h1v1l-1 3-1 2v4h2l1-1v3h-1l-1 1v4l1 4-2 1h-2v2l-1 1 1 1v1l-2 3-2 2v7h-5l-2 4-3 3v1l3-3 4-3h1l1 1-1 4v9l-1 1h-1v4l-3 3-4 3 1 1v1l2-1 1-1v1l-2 4-2 4-2 1-2 1 2 1h1l-1 1v2l2 1 1 1 2-1h1v2l-2 1-2 1-1-1v-1h-3v2l2 1h2v4l-1 3-1 2-2 2 1 1 1 1-1 1-2 1v3l-1 3-2 2-2 2-1 2v2l-2 2-1 1 1 3 1 2-1-1-2-1-3 3-2 4v1h1l1-1 2-2v1l1 1-2 3-2 2-2 2-1 2-1-1h-1v2h1l2 1-3 3-3 2-2 3-1 2v1h1l2-3 3-3v5l-2 2-2 2v4h-2l1 3v3l-2-1-1-2v2l1 2-1 3-1 4h-2v1l1 2-3 3-2 3-1 4v3h-4l1-1v-1h-2v2l1 2 1 1-2 1-2 1-1 2v1l-1 1-1 1 1 1 1 1h-2l-2 1 1 2v2h-2l-2-1-1 1-2 1v2h2l2-1v3h-2v2l1 1-4 6-4 6h-2v2l-1 2-2 2-2 2 1 1 1 1v3h-3l-2 1-3 1v2l-1 1 4 3 3 3 3 5 2 4v3h2v3l-1 3h2l5 6 6 5v3h2v-1l1-1v5l1 5h2l1-2 1-3h2l1 1v1l-1 1-1 1 2 1 2 1v3h2v-2l-1-1-1-1v-1l1-1 1 1 2 2h2l2 3 2 4 2 1 1 1v3l3 2 3 2h2l-3-3-2-3-3-2-2-2v-3h3l2 3 1 2h2l1-3 1-3 3 1 4 2 6-3 7-4h7l-1-1h-5v-2h1l1 1 2-2 2-2h5v-4l1 1 1 1 2-1h2l3-3 2-3h-3l-1 2-2 1h-3v-1l-1-1h2l2-1v-2h-1l-2-1-1 2-1 1h-2v-2l2-2 3-2h4v-1l-1-1h2l5-3 4-3h-1l-2-1v-2h5v-1l-2-3-2-4 1-7v-12l1-4h-2l-2-1v-2l-1-2v-2l-1-2h3v2h2l-2-2-2-2v-3l-1-3v-2h2l1 1 1-2v-2l-2 1h-1v-3l1-4 1-1 1-2v-5l-1-6h2l1 1v-2h-1l-1-1 1-2v-2h4v-2l-2-1-2-2v-1l1-1v-8h3v-3h-1l-1-1v-1l1-2 2 1 1 2-1-3-2-3 2-5 2-4 1-2 2-1 1-4 1-3 2-2 2-1h1l1-1h-3l-2 1v-2l1-2 1-2 1-3v-3l3-5 3-5 2-1h2v-2l3-4 4-3 1 1 2 1 3-3 4-3h-2l-2 1 1-2 2-1-1-1 3-1 3-1h1l1 1 4-3 4-3h2l1 1 1-2v-1h-5l-5 1-2 1-2 2h-2v-2l2-4 1-4 3-1 3-1 7 1h7l3-1 3-1 9-1h9l1 2 1 2h3l-1-1-1-2v-1l1-2h-2l-2-1-8 1-8 1-7 1-8 1-2-1-1-2v-1l1-1h5v-1h1l2-1h8v-5l1 2v1h5l3 1 3 1h1v-1l-1-1-2-2 1-1 1-1h10v1h1l-2 2-1 1 3 1 4 2 1 1h2v-3h1l4 2 3 1h1l1 1 3 1 4 2v2h4v1l1 1h1l2-1 2-2-1-1v-2l-1 1h-1l1 1v1h-5v-1l1-2-2 1h-1l-2-2-2-2-4-1h-4l-1-1h-3v-2l1-1h10l6 1 3 2 4 3h3v-1l1-1 1 1h2v2l1 2h1l1-1 1 1 1 1-1 1-1 1 1 3v3h1l1-1v-4l2-2 1-1-2-3-3-3h3l2 3 1 3h3l2 2 2 2v-1l1-1 3 1 3 1 1 1-1 1-1 2 4 5 5 4h1v-1l-1-2-1-3h-4v-3l1-1 2-1 3 3 3 2 1 4 1 3-1 5-1 4 1 1 1-1 1-2v-1l1-1 1 2 1 1v2l-1 1v2l-1 2h3v-2h2l-1 2-2 2 1 1 1 1-1 2-1 2 1 4v4l2 2 1 1-1 2-2 2v1h1l1-1 2-1v-2l3-4 3-4v-2l1-1h1v2l1 2-2 1-2 1v5h3v8l1 6-2 1-1 1 1 1 1 2-1 1-2 2v2l-2 2-2 3h1l3-3 2-2h2v2l-1 1-1 3-1 2-2 4-1 3-1 5v5l-1 1-1 1-1 5-1 4v1l1 1h-2l-2 1v1l1 1h-3l-1 2v2l-3 3-2 2v2h4v3h-2l-1 1-1 1v2h-3v2l-1 2h3v2l-1-1h-1v9h-1l-1-1 1 1v2h-2v-2l-1-1h-2v2l1 2h-2l-1 1v2l1-1h1l-1 2-1 2-5 2-4 2 1 2v1h-1l-2-1-1 3-2 3-1 3-1 3h-2v3h-1l-1-1v2l-1 2h-3l-1 3v3l-1-1h-1v2l-2-1h-1v1l1 1-3 1-3 1v3l-1 2-1-1h-1v4h-5l-3 1-2 1v2l1 2h-4l1 2v1h-4l-1 2v1h-5v-2l-1-1-2 2-2 2-1-1h-1v-3h-6l-3-4-4-4 1 3 2 4v2l-1 2 2 1 1 1h1v-1h-2l1-1 1-1 3 1 2 2 3 3 3 3 2 1 2 2-1 2-1 2 2 2 1 2 2 1 2 1 1-1 1-1-2-1h-2l-1-2-1-1 1-1 1-1 5 2 4 3h2l6 4 6 3v2h2l3 3 3 3h1v-1l-1-3-2-2h4l3 1 2 2 1 1 1-1 2-1h2l1 1-1-2-1-2v-1l2-1 2-1-5 1h-5l-3 1h-4l-2-2-1-1-1 1-1 1-4-2-4-3-1-1-2-2v-1l3-1 3-2v1h1l6 1h14l1 2 2 2h1v-1l-1-2 2 1h1l3-2 2-1h7v-2h-3l3-2 2-2h4l4-1 1-2 1-1h3l2 1-1-2v-2h3l1-2 1-1h2l2 1v-3h-1l-2-1 4-1 3-2 2-2 2-1-1-2-1-1 3-3 4-3v-1h-1l-1 1v-2l2-1 2-2 2-3 3-4v-2h2l2-2 2-2v-1h-1l-2 1-1 2h-1v-1l2-2 3-3v-1l3-2 3-2h3l4-4 5-4 1-2 2-1 2 1 3 1v-2l-2-2-1-1 1-1 1-1 1 1 2 2v-2l1-1 2 1 2 1v2h-3l-2 1-1 1v1h7l2-2 2-1v-2h-3l1-1v-2h3l-1 2v1h5l-2 2-2 3v2h-3v3h3v-2l3-3 3-3v-3l1-2h1l1-1v5l-1 2-2 1-1 3-1 3 1 1 1 2 4-1h5l3-2 3-2-1 1v2l3 4 3 3v1l-3 3-2 2 1 2v2l-1 6-1 5-7 7-7 7-3 2-2 2v2l1 1-5 3-4 3h-2l-2-1-7 4-8 4h-2l-2-2-1-1h-3v2l4 3 3 2 1-1 2-2 4-2 4-2h2l2 1v2l-2 1-2 1h-5v2l-3 3-2 2v1h1l1-1 2-1h3l3-1v2h-2v3h-2l-2 2-2 2h-3l-3 1 1 1 1 2-2 1-2 1h1l1 1 2-2 2-2h2l1 2 1 3-1-1v-1l-2 2-2 1v2h2l2-1v1l-3 1-3 1v2h1l2-1 1 1v1h-5l-6-1 1 4v4l-4 2-5 2-5 1-5 1-3 2-3 1v1l1-1h2l2 1 1 1h-2v2l2-1h2v2h-1l-1 1-4-1-4-2h-1v-1h-2v2l3 1 3 2v2h-5l-1 2-2 2h-3l-1 2-2 2-1-1-2-2-1 3v4h-4l-1 2-2 1h-4l-3 1-1 1-2 1v-3h-1l-2 1-1 2v2l-4 1-3 1v2h-8l-1 1v-1l-2 2-1 1zl-1-1zm-1719-5v-2h-1v2zm-158-9v-1h-1v1zm123 0v-1h-1v1zm-113-4v-1h-1v1zm96-1h2v-2h-2l-1 1v1zm216-2v-1l-1-3-1-3h-2v1h1l1 4 1 3zm-26 0h1l2-2 2-2h-2l-2 2-2 2zm-349-4v-1h-1v1zm-2-2v-1h-1v1zm170-2v-2h-2v1l1 1v1zm-134-1v-1h-1v1zm-36-1v-1h-1v1zm316 0v-2h-1v2zm94 0h3v-2h-5l-1 1v1zm-161-2v-1h-1v1zm147 0h2l1-1v-1h-5v2zm-32-1 3-2 3-2h-3l-2 1-2 1-5-2-4-2-4-5-4-6-1 1h-2l1-2v-3l-1-2-2-2v7h-2l-2-2-2-1h-1v1l1 1 2 2 2 1 2 1 2 1 3 1 3 4 3 4 5 2 5 3zm-369-1h1v-1l-1-1h-1v2zm205-1v-1l-1-2-1-1h-2v2l2 2 1 1zm-155-1 1-1v-1h-1l-1 1zm346 0v-1h-1v1zm-380-2h2v-1h-2l-1 1zm5 0v-1h-1v1zm314-1h1zh-2v1Zm-135-1-1-1h-1v1zm-157-1v-1h-1v1zm123 0h1zh-2v1Zm25-1v-1l1-1h-2l-1-1v3Zm-211-3v-1h-1v1zm41-4-1-1v-2l-4-3-4-3h-2l-1-1 2 2 3 3 3 2zm116 0v-1h-1v1zm172-1h1v-1h-1l-1-1v2Zm61 0h1v-2h-2v-2l-1-2h-3v1l2 3 1 2Zm-322-1v-2h-2l1 1zm170-1 2-1v-2l-2 1-2 1v2zm137 1v-1h-1v1zm-332-1h1v-2h-2v2zm27 0v-1h-1v1zm141 0h1l-1-2-2-1h-2l-1 1 2 1zm137 0v-2h-1v2zm3 0 1-1h2v-3l-2 1-3 1v2zm-117-1v-1h-1v1zm100 0v-1h-1v1zm-238-2v-1h-1v1zm153 0-1-1v-2h-1v2l-1 1zm97-3v-4l-1-1-1-1v5l1 2v3zm35 3h1v-2h-1l-1-1v3Zm-328-4h-1v-2l1 1h1v1Zm1 3h3l1-2 1-1 2 1 2 1h2l1-1-2-1-2-1-3-1-2-2-5 1h-4l-1-1v-1h-2v2l3 3 2 3zm190 0h1v-2h-3v2zm119 0v-2h-1v2Zm-126-1h1v-2h-2v2zm156 0v-2h-2l1 1zm-70-1v-2h-1v2Zm-125-1h1v-2h5l1 1v1h2v-1l-1-1-4-2-3-1h-4l-1-3-2-3h-2l2 3 1 3 2 2 1 3zm179 0 1-1v-1l-1-1-1-1-1 1-1 1v1zm-308-1v-2h-1v2zm150-1v-1l-2-2-2-1h-1l2 3 2 2zm174 1v-1h-1v1zm-309-1h1l1-2v-1l-1-1-1 2-1 2Zm279 0-1-1h-1v1zm-288-1h3l2-1 2-2h-6l-2 1-1 2zm150-1-2-2-1-1-4-3-4-2-1 1 1 1h1l4 3zm208 1h1l2-2 2-2v-1h-2l-1 3zm-368-1-2-1-2-1v-2l4 1h4v-1l-3-2-4-2-5 1h-6v2l4 2 4 1 2 1 2 1zm253 0v-1l-1-1v3zm57 0v-3l-1 1h-1l1 1zm16 0h1v-2l-3-3-3-3-2-1-1-1h-2l1 3 2 3 3 2 2 2zm26 0v-1h-1v1zm-181-1-1-1v-2l4-1 3-1-2-1-1-1-2 2-2 1-2-2-1-1 2-2 1-1h-1l-1-1-2 3-2 3h2v2l2 2zm135 0h1v-2h-1l-2-1 1 2zm-349-1v-1h-1v1zm185 0-1-1-2-2h-2v1l1 2h3zm-124-1v-1h-1v1zm126 0h1zh-2v1Zm21 0-3-2-2-2h-2v2l2 1 3 1zm151 0-1-2-1-1-1 1 1 1zm64 0v-1h-1v1zm-427-2v-2h-2v1l1 1v1zm120 1v-1h-1v1zm45 0 2-2 1-2-1-1-1-2-1 2-2 2-2-1h-2v2l2 1zm183 0h1l-2-3-2-3h-1v1l1 2zm-324-1v-1h-1v1zm216 0h2v-2l-3-1-4-1h-1l-1 1v2h3l3 1zm-219-2h1v-1l-2-3-1-3h-2v3l2 2zm161 0h2l-4-4-4-3h-1v2l3 2 2 3Zm22 0h1v-1h-1l-1-1v2Zm188 0h2l1-1 1-1h-1l-2-1-1 2-1 1Zm-391-1v-2h-1v2Zm124 0h1zh-2v1Zm113-25h-1l1-1v-1h1v2zm-67-5-1-2-1-2v-2h2l1 3zm-7-21h-1v-1h1zm89-2h-1v-3h2v2zm-90-40h-1v-1h1zm38-49h-1l1-1v-1h1v2zm12-5h-1v-1h1zm-18 145 1-1h2l3 1v-2l-3-1-3-1v-2l2-1 2-1 3 1 2 1 1 1 1 1v2h-1l-1-1-1 2v1h3l1-1 2-2-3-3-3-4h4l2 2 2 1v-2l-1-2 4-1 4-2 4 3 3 3 1-1-2-2-1-3v-1h3l-1 2v1h2v-2h3l2-2 2-2v-5l1 2v1h6v-4l1-2 1-3h4v-2l1-2-1-1-1-1 2-2 3-3-1-2v-3l2-1 2-2 2-4 2-3 1-2 1-1 1-3 1-2 1-1 1-1-1-1-1-1 1-3 2-3v-17l1-4 1-4-1-2-1-2 1-8 1-7v-7l1-8v-1l1-1h-1l-1-1v2l-1 1-1-1h-1l1-1 1-2-1-2v-2h-2l1-2v-1l-1-1-2-1h-4v-2l-4-1h-3v-2l1-1h-3l-1 2-1 1h-3v-2h-2l-1 1-1-1-2-1h-2l-2-1-2 2-1 1-1-1-2-1h-1v1h2l-1 1-2 1-1-1h-2v2h-4v-1l1-1h-7l-1 2v2l-1-1-1-1-4 2-4 2h-1l-1-1-2 2-1 1 1 1h1v2l-4 1-3 1-1 2-1 2-1-1h-2l-2 1-2 2h1l-2 2-3 1v6h-3l-1 3v3l-2 1h-1v2l1 1-4 4-3 3v1h1l-1 2-1 1-2-2-2-1h-1v1l1 2 2 2-1 3-2 2v2l1 2-2 1h-1v2h1l2-1v1l1 1h-1l-1 1v7l-1 1-1 1 1 4 1 4-2 3-2 3v1h5l-1 2v2h3l-1 5v6l2 3 3 4-1 2v2l1 3 1 2-2 2-2 2h1l2 1 1-2v-2h5l2 3 2 2h-2v-2h-3v1l1 2 1 1v2h2l3 2 3 3 4 3 3 4h2v-3l-2-2-2-2v-2h1l3 3 3 3v4l-1 3-1 1h-2l-3-4-4-3-1-2-2-2-3-2-3-3v2l1 2 3 3 2 2v1l-2-1-2-2-3-1-3-1v-3l-1-2h-2v7l2 3 2 3v5l1 1h1v-6l1-1 2-1v1l1 1h5l3 2 3 2-1 1v1l2-1 2-1 2 2 1 1zm208 2h1v-2h-1l-1 1v1zm-405-2v-3h-2v1l1 2v2zm162 0h1zh-2v1Zm81 0 1-1v-1h-2v2zm-119-1-2-3-3-2v-1h-1v1l3 2zm265-1h2l-1-1v-1h-3l-1 1v2zm-44 0h1zh-2v1Zm-274-1 1-1 1-1h-1v-1h-11l1 1 1 1h3zm94 0v-2h-1v2Zm244 0v-1h-1v1zm-208-1h1v-2h-1l-1-1v3Zm62 0v-1l1-1h-2l-1-1-1 1h-1l1 1v1zm76 0h1v-1h-1l-1-1v2Zm-184-1v-6l-2-1-1-2v2l1 2v5Zm93 0v-1h-1v1zm-18-2h1v-1h-1l-1-1v2Zm8 0v-1h-1v1zm-17-2-1-1-1-1h-1v1l1 1zm33 1h1zh-2v1Zm11 0 1-1h2l2-3 1-3-1-1-1-1-1 2-1 3-2 1-3 1 1 1zm-30-1v-1l1-2h-3l-2 1h-1l1 1 2 1zm6 0v-1h-1v1zm106 0h1zh-2v1Zm46-1h1l-1-1v-1l2-2 3-2-1-1h-3l-2 1v1l1 2-1 1-1 1v1l1 1zm-147 0v-1h-1v1zm2 0 2-1 2-2 2 1 1 1h1l1-1v-3l4-2 3-2v-1l-1-1-1-1h-1l-2 2-3 3h-2v-2h-3v3h2l-1 1-1 2h-3l-2 1v2Zm-247-1h1l-1-2v-2l-1-1h-1v3zm-17-2h1zh-2v1Zm23-1v-1l-1-1-1-2v-1l1-1-4-2-5-2-1-2-1-2h-3l3 3 2 4-1 2-1 2h1v1l2-1h1v-3l2 1 1 1 2 3 2 2zm142 1h1v-1h-1l-1-1v2Zm236 0h2l1-1v-1h-5v2zm17 0h2v-2h-3l-1 1v1zm16 0v-1l1-1h-1l-1 1zm23 0h1v-2h-1l-1-1v3Zm-357-1h1zh-2v1Zm68 0h1v-2h-3l1 1zm90 0v-1h-1v1zm-398-1h1zh-2v1Zm149 0h1v-1h-1l-1-1v2Zm-144-1v-1h-1v1zm395 0h2l1-1v-2l1 1h2l-2-1-1-1-2 1-3 1v2Zm178 0 1-1v-2l-1 1h-1v2zm-273-1h1v-2l-2-3-3-4v1h-1l1 3 1 2 1 2zm260 0h1zh-2v1Zm-254-1v-1h-1v1zm7 0h1v-1h-1l-1-1v2Zm172 0v-2h-1v2zm80-3 3-2-1-1h-1l-2 2-2 2v2zm10 1v-2h-1v2Zm-339-1h2v-1h-1l-1-1v1l-1 1Zm252 0h1v-2l-1 1h-2v1Zm-258-2v-1h-1v1zm2 0v-1h-1v1zm-168-1v-1h-1v1zm239 0h1v-1l-1-1-1-1h-1l1 1zm6-1v-1h-1v1zm88 0v-1h-1v1zm82 0h1v-3h-2v3zm91 0v-1h-1v1zm-157-1 1-1 1-2h-1l-1 1h-2v2Zm126 0h1zh-2v1Zm-400-2 1-1v-1l-1-1h-1v3Zm144 0h1v-1l-2-2-1-2h-2l2 2zm4 0 1-1v-1h-1zv1zm10 0h2v-3l-1-1h-1v1l-1 1v2Zm264 0v-1h-1v1zm9 0 1-1v-1h-1l-1 1zm-168-1v-1h-1v1zm159-1v-1h-1v1zm-248-1v-1h-1v1zm91 0v-1h-1v1zm152 0h1zh-2v1Zm-433-1h1zh-2v1Zm438 0h2v-1l-2-2-1-1h-1v2l1 2Zm-473-1h1v-2h-3v2zm29 0h1zh-2v1Zm22-1v-2h-2v1l1 1v1zm160 1v-1h-1v1zm-296-1v-2h-2l1 1zm287 0h1zh-2v1Zm20 0v-1h-1v1zm243 0 2-2 2-2v-1h-2l-2 1h-1l-1 1v3Zm-565-1v-1l1-1h-2v2zm19 0v-1h-1v1zm558 0 1-2 1-1-1-2-2-1-1 1h-2v2h3l-1 2v1zm-258-1h1v-3h-2v3zm157 0v-1h-1v1zm127 0v-1h-1v1zm-449-1v-1h-1v1zm150-3v-5l-1 2-2 2 1 1v1zm-304 0v-1h-1v1zm134 0h1zh-2v1Zm439 0v-1h-1v1zm-569-2h1v-1h-4v1l1 1zm-24 0v-1h-1v1zm27 0v-1h-1v1zm92 0h1v-3h-3l-2-1 2 2zm214 0v-2h-1v2Zm167 0v-1h-1v1zm-461-2 3-1 2-1 2-2h-3l-4 1-3 2v1zm276 0h1zh-2v1Zm-307-1h2l-1-2-2-1h-2l-1 1 1 1 2 1zm45 0v-1h-1v1zm105 0v-1h-1v1zm-142-1h2v-1l1-1h-1l-2 1-1 1zm107 0v-1h-1v1zm211 0h2v-2l1-1v-1h-1l-1 1-2 1v2Zm-213-2v-1h-1v1zm-51-1v-1h-1v1zm2-2h2v-1h-1zl-1 1zm45 0-1-1v-2h-2v2h1zm214-1-1-2v-1h-2v1l1 1zm-327 0h1v-2l-3-1h-3v1l2 1zm11 0 1-1v-1h-1l-1 1zm19-2h2v-1h-2l-1 1zm79 0v-2h-2l1 1zm-100-1h1zl-3-1-4-2v1l3 1 3 2zm31 0v-1h-1v1zm279 0h1v-2h-2v2zm10-1 2-1 3-3 2-4 1-2v-1l-1-1-1-1-1 2-2 2v3l-1 3-2 2-1 1zm-309-1h2v-1h-2l-1 1zm6-2h2l1-2 2-1v-2h-4l-1 2-2 1v3zm10 0h2l2-2 2-1v-2l-2 1h-1l-2 2zh-2l-1-1 1 1v1zm24 1h2l1-1v-1h-3l-1 1v1zm7 0h2l1-2v-1h-2l-2 2-1 1zm437 0v-1h-1v1zm-488-2h1v-2l-2-2-2-2h-2l1 1 2 2h-1v2l1 1zm47-1 2-2 2-1h-2l-1 2-2 1Zm258 0v-2h-1v2Zm6 0v-1h-1v1zm-11-1v-1h-1v1zm-260-1v-1h-1v1zm270 0h2v-1l-1-2-2-2-1 1-1 2v1l1 1zm-274-1h1v-1l-1-1-3-1h-3l2 1 2 2Zm432 0v-1h-1v1zm-154-1h1v-2h-3l1 1zm-274-3h2l1-1v-2h-1l-2 1-2 1v2zm219 1v-1h-1v1zm-234-1h1l1-2v-2h2v-3l-2 2-2 2h-3l-3-1v2l2 1 3 1zm21-1h1zh-2v1Zm238 0v-1h-1v1zm25-1h1v-5h-1v-1l-2 2-1 2 1 1v1zm160-2h1l2-2 2-2-1-1-2 3zm-417-1v-1h-1v1zm235 0v-2h-1v2Zm5-1h1v-4h-2v4zm-248-2v-1h-1v1zm-4-3 1-2 2-1 2 1 1 1 3-3 2-2v-2h-1l-1-1-4 3-4 3h-2l-3-1v1h-1l2 2zm249 0h1v-1l-1-1h-2v2zm190 0 2-1 2-1 1-3 1-3-1-1-1-1-2 5-3 5Zm-186-1 1-1v-1l-1-1-1-1h-2l1 2zm-7-2h1zl-1-1 2-1 1-1v-3h-2v4h-2v4zm-10-2v-1h-1v1zm23 0-1-1h-1v1zm-8-1v-2h-1v2zm5-4 1-1v-1h-2l-1 1 1 1v1zm-230-2h1zh-2v1Zm72 0h1v-1h-1l-1-1v1l-1 1zm-80-1h1v-3h-2l-2-2-1-1-1 1-1 2v1l3 1zm74 0 1-1 1-1v-2l-1-1-2 1-1 2v2Zm353 0v-1h-1v1zm2-1 1-2v-4l-1-5v-3l-1-3v-1h-1v2l-1-1h-1v2l1 2 2 1-1 2-1 2 1 2 2 2-1 3v3zm-438 0h2v-1l-1-1h-4v2zm246-1 2-2 1-1 1 1h1v-2l-1-3 2 1h1l-1-1-2-2 1-2 1-3v-2l-1-3h-2l-3 3-3 3v3h2l1-2 1-2h2v5l-1 2-1 3-2 1-1 1v1zm-32-2v-1h-1v1zm24-3v-1h-1v1zm-207-1v-3h-3v2h1zm186 0 1-1v-1h-2v2zm39-3 2-3v-3l-1 2-2 1v3l-1 3zm-202 1v-4l-1 1-1 1v1zm28 0h2v-1l1-2h-1v-1l-2 1h-1v3Zm153-2 3-2-1-1h-1l-2 1-1 1v3zm5 2v-1h-1v1zm191 0h1v-2h-2v2zm-218-1h1zh-2v1Zm-187-1h1zh-2v1Zm41 0h1l-1-2v-9h-1l-1 1v7l1 1zm208 0v-1h-1v1zm0-2v-1h-1v1zm-257-1v-1h-1v1zm411-1h1v-2h-1l-1-1v3Zm-377-1h1v-3h-1v2zm9-5v-1h-1v1zm193 0h2v-2l1-1v-1h-1l-1 1-2 1v2Zm-7-2 1-1 1-1v-2l-1 1h-2v2zm188 0v-2h-1v2zm-361-2v-2h-1v2zm339 0v-2h-1v2Zm-184-2 4-1 4-1 4-1 2-1 2-1h-2l-2-1-1 1v1h-4v-3l-1 1-2 2-2 1h-3l-1 2-1 1zm186 0v-1h-1v1zm19 0h1v-2h-2v2zm-183-1v-2l1-1-1 1-2 1v1Zm-176-3v-2h-2v1l1 1v1zm-32-1h1v-2h-1l-1 1v1zm-12-1v-2l1-2h-1v-1l-1 1h-1v4Zm216 0v-1h-1v1zm189 0v-1l-1-1h2l-1-1v-1l-1 1-1 1 1 1zm-205-2h2l1-1 1-1 1 1 1 1 1-2 2-1v-2l-2 1h-1v-1l1-1h-2v2l-3 1h-3v3Zm12 0v-2h-1v2Zm187-2h1v-3l-1-1h-2v2l1 2Zm-169-3v-1h-1v1zm-20-2 2-2 1-1v-2h-3l-1 1-1 1v4zm-209 0v-1h-1v1zm14-1h2v-3l1-1h2l-1-1v-1l-2 1-1 1-1 2-1 2Zm367 0v-1h-1v1zm-181-1v-1h-1v1zm3-1v-1h-1v1zm190-1v-2h-1v2Zm-389-1v-1h-1v1zm33-1v-1h-1v1zm-32-2 1-1v-5h-1l-1-1v2l-1 1v5zm5 1v-1h-1v1zm182 0h1zh-2v1Zm23-1h3l1-1h1v-1l-1-1h3v-1l1-2h-2l-2 1-3 2-2 1-2 1v2zm171 0h1v-1l-1-2-1 1h-2v-5h-2v3l2 2 1 3zm-31-1-1-2-1-2v4h1zm65-2 1-1v-2l-1 1zv1zm-393 0v-1h-1v1zm320 0h2l-1-2v-2h-2v4zm-337-2 1-1-1-2-1-2-1 1v4l1 1zm350 1h1v-1l-1-2 1-1 1-1-1-1-1-1 1-1h1v-3h-2l-1 3-1 3 1 2zm16 0v-2h-1v2Zm-153-3h1zh-2v1Zm11 0 1-1v-1h-1l-1 1zm153 0v-1h-1v1zm-171-1 2-1 2-2 4-1 3-2h-1l-2-1-4 3-5 2v2Zm135 0v-2h-2l1 1zm49-1h1zh-2v1Zm-372-2v-2h-1v2Zm345 0h1v-1h-1l-1-1v2Zm-28-1h1v-1h-1l-1-1v2Zm58-3 1-2-1-1v-1l-1 1h-1v5h1v1zm23 3v-1h-1v1zm-197-2v-1h-1v1zm-220-4h2v-3l1-3v-1h-1l-1 1-1 1-1 2v3zm342 0 1-1 1-1v-2h-2l-1 2-1 2zm-129-1v-1h-1v1zm181-5h1v-2l-1-1 3-3 3-3v-7h-4l-1-1-1-2v3l1 2 2 1v2h-2l-2-1v1l-1 2h3l-1 2-2 2v5h1zm-397 0v-2h-1v2Zm346-1h1v-1h-1l-1-1v2Zm-321-1h1v-2h-4l1 1v1zm170 0h1v-3h-2l-1 1h-1l1 1v1zm25-6 3-4v-1h-1l-4 3-3 4h-4l3 1 2 2zm125 2-1-2v-1l-1 1-1 1 1 1v1zm-307-9-2 1v-1l-1-1 2-2 1-1 1 1v1zm4 1h-1zh2v1zm0-33h-1v-1h1zm85-133h-1v-1h1zm-56-36h-1v-1h1zm-22 209-2-2-2-2v-1h1l2 1 1 1v-1l-1-2h6v-7l3-1 2-2v-4l2-2 3-1 3-6 4-6h2v-3l2-1 3-2 3-7 4-8 2-4 3-4 3-3 3-4h1l2-1-1-2v-1h2l2 1v-3l2-1 1-1v-3l-2 1h-1l1-2 1-3v-2l3-2 2-3-1-1-1-1 1-2 2-2v-3l1-3 2-5 2-4h1l1-1 1-4v-5l1-1 1-1v-10l1-1v-1l1-3v-3l1-4 1-4 1-4v-4l2-7 2-8-1-1-1-1 1-1 2-1v-3h2v-6l-1-2-1-3-1-4-1-4v-2l1-5v-4h-1l-1-1v4h-2v-3l1-2 1-2v-2h-2v-3l-3-1-2-2h3v-5l-1 1-1 1h-3v-1l1-1-2-1-1-1-1 1-1 1-3-3-4-3-3-2-3-1v2l4 1 3 2v2l-2-1h-1l-1-1-1-1h-4l-3-1-1 1v1l-1-1h-1l1 1v2h-5v5l-1-2v-1l-3 4-3 4h-4l-1 1-2 1v2l-1 2h-3v1l1 1-1 1h-2l-2 5-2 5h-5l2 1 2 1-2 2-2 2-1 4-1 3-1 7v6l-1 2-1 2v8l-1 1-1 1 2 3 3 3h-5l-1-1-1-2-1 1h-1l1 2 2 1v6l-1 7v1l-1 1h-2v-3l-1 1-1 2 1 3 1 4-1 7v7l-1 1-1-1-2-1h-1v1l1 2 1 2-1 1-1 2h-3v5l1-1h2l1 2 1 3-1 1-1 1v4h3v4l-1 1-2 1v2l1 1h2l1 1v1l-1 3-1 2 1 1h1l-2 3-2 4h1v9l-1 2 1 2 1 3-1 1h-1v3l1 3h-1l-2-2-1-1v3l1 3v16l-1 2-1 2h2l2 1-1 1-2 2-1-1-2-2h-1l-1 1v2h4v2l1 2 2-1h1l-1 1-1 1 1 2 1 2v2l-2-1h-2l-1-2-2-2h-2l1 6v6l1 1 1 1 1-1 2-2 2 2 1 2 4 2zm182 1h1v-1l-1-1h-2v2zm153 0v-2h-2l1 1zm-389-1v-1h-1v1zm15 0-1-2v-1h-1v2zm28 0h1l-1-1v-1h-2l1 1zm200 0v-1h-1v1zm-38-1h1v-2h-3l1 1zm163 0h1v-3h-1l-1-1v1l-1 1 1 1zm-13-1v-1h-1v1zm-5-1h1v-1h-1l-1-1v2Zm-119-2v-1h-1v1zm-206-1 1-1 1-3 1-4h-2v4l-2 2-1 2zm7 0h1v-2h-2v2zm202-1 2-1 1-1v-1l-2 1zv1l-1 1zm20 0v-1h-1v1zm116 0h1zh-2v1Zm-149-1 1-1v-1h-2v2zm36 0v-1h-1v1zm106 0 3-5 3-5v-2l1-2h-2v2l-1 2-2 2-2 2-1 2-1 1v2zm-346-1h1v-7l1-4h-3l-2-1v-1l1-1-1-1v-2l-1 1h-1l1 3v3l-1 2-1 2v1h1l2-1 1-2 1 1h1l-1 4v3Zm223 0v-1h-1v1zm110 0 1-1v-2l-1 1h-1v2zm-339-1h1v-2h-1l-1 1v1zm362-1h1v-2h-3v3zm35 1v-1h-1v1zm-405-2-1-3-1-3 2-4 2-3h-2v3l-1 1h-1l-1-1-1-1v-2l1-3 2-2 3-3h2v3h-1l-1 1v1l1 1 1-3 2-3v-1l-1 1h-1v-3h3v-2l1-2h-2l-2 3-3 3-3 2-3 3v3l-2 1h-2l-1 2-1 2h1l1 1h1l2-1 2 5zm32 1h1v-4h-2v1l-1 2h1zm190 0h2v-3h-1l-1 1h-2v2Zm154 0h1zh-2v1Zm29-1v-1l1-2h-2v-2l1-2-2-1-1-1v7zm-174-1 1-1 2-1h-1v-1l-5 1h-4l2 1 3 1zm-25-1v-1h-1v1zm51 0h5l-3-1h-4l-2 1zm-17-1 4-1 1-1h2v-2h-1l-4 1-4 1-1 1v1zm138 0h1v-2l-1-1h-2v3Zm20 0h1v-2h-2v2zm-370-3 1-1v-1l-1-1-1 1-1 1 1 1v1zm221 1h2l1-1 1-2h-3l-1 2-1 1Zm18-1h1zh-2v1Zm80-1h1v-2h-3v2h1zm-90 0v-1h-1v1zm-226-1h1v-2h-1l-1 1v1zm201 0h2v-2h-2l-1 1v1zm74 0h3l1-1 2-2v-2h-2l-1 2-1 1h-5v2zm77-2 1-2-1-3-1-4-2-1h-2v1l2 4 1 3 1 1v4zm24 2h1v-1h-1l-1-1v2Zm-384-1v-1l1-2-2-2-2-2v1l-1 1 1 2 1 3zm215 0h3l1-1v-1h-2zl-2 1zm159-2h1v-3h-1v2zm18 0h1v-2h-1l-1 1v1zm-134-1h1l-1-2-2-1h-1v2l1 1Zm16 0v-1h-1v1zm109 0h1l-1-1v-1h-2l1 1zm-379-1v-1h-1v1zm288 0h1zl-2-2-1-2h-1v1l1 2zm-81-1v-1h-1v1zm-243-1 1-1 2-2v-3h-2l1-1v-1l1 1v1l2-1 2-1v-3h-2l-1 1-1 1-1-1v-2h-3v9l-1 1v2Zm26 0 2-5 2-4 1-3 1-3-2 1-1 2v4l-2 1-2 2v5Zm11-1v-2h-2v1l1 1v1zm242 0-3-3-4-4-5-4-5-4h-1v3l-3 1-3 1v2h11l3 1 3 2 3 3zm32 1h1zh-2v1Zm91 0h1v-2l2-2 2-2v-4l-1 2v1h-3l-1 3-1 3v1Zm11-1v-1h3v-4h-5l-1 2-1 1 2 2 1 1zm-169 0v-2h-1v2Zm64 0h1zh-2v1Zm-3-2v-1h-1v1zm-22-1v-2h-2l1 1zm21-1-1-1h-1v1zm11 0v-1h-1v1zm-292-2 1-1v-1h-2v2zm263 0h1v-1h-1l-1-1v2Zm41 0h1l-1-1v-1h-2l1 1zm-82-1 1-1v-1h-1l-1 1zm53-1h4v-1l-1-1-1-1-2 1h-11v1l1 1h6l1 1zm11 1h1zh-2v1Zm44 0-1-1v-1h-3l2 1zm66 0 1-1 1-1v-2h-2l-1 1-1 1v2zm-168-1 1-1v-1h-2v2zm69-1h2l-2-2-2-1h-2v2h1l2 1zm83 0 2-4 2-4v-1h-1l-1 1-2 2-1 3zm-80-1v-1h-1v1zm56 0 1-1v-1h-3v2zm34 0h1l-1-1v-1h-2l1 1zm-403-1v-3h-2l1 2zm347 0v-1h-1v1zm-1-2h1v-2h-1l-1-1v1l-1 2zm-343-2 1-1 1-3 2-3-1-1-3 3-3 3 1 2v1zm7-1 2-2v-3h-1l-1 1zl-1 4zm260 1v-1h-1v1zm71-1h2l-2-2-1-1h-2v3h1v1zm-68-1v-1h-1v1zm-11-1 1-1v-1h-2v2zm-233-2 1-2v-1h-2l-1 1 1 2v1zm364 1 2-1v-3l-1 1-2 1v2zm-393-3h1v-2h-2v2zm271 0h1v-2h-3v2zm-257-1v-1h-1v1zm275-1h1zh-2v1Zm-276-1h1v-2h-1l-2-1 1 2zm5-3h2v-1l1-1-1-1-1-1-1 2-2 2Zm22 0h1zh-2v1Zm250-1v-1h-1v1zm-278-5 3-2v-5l-1-1-2-1v1h-1v7l-1 1-1 1zm9 1 1-5 2-4-2-2-1-1v-3l2 1 2 1 1-1 2-2 1-3v-3h-2v1l-1 1-1 2v3h-1l-1-1-2-1v-9l-1 2-1 1 1 4v4h-2l1 3v2l1 1h1v5h-1l-1 1v3Zm7-3v-1h-1v1zm89 0v-1h-1v1zm-98-1v-2h-1v2zm-14-3 1-1 2-2 1-2h-1l-2 3-3 2zm111 0 3-3 3-3h-2l-2 2-3 3zm-106-6v-1h-1v1zm-4-2v-1h-1v1zm9-4v-2h-1v2zm-14-1-1-2-1-2v1l-1 1 1 1zm10-2 1-1v-2l-1 1h-1v2zm96 0v-1h-1v1zm-77-2h1v-2h-1l-1 1v1zm102 0v-2h-1v2zm-121-4 2-1 2-2 1-1v-1l-1-1-3 2-3 2v3zm21-3v-2h-1l-1 1-1 1 1 1 2 1zm98 2h1l4-4 3-3-1 1h-2v2l-3 2-3 2zm-133-4 1-1 1-3 1-3 1-3v-3l-2 3-3 3 1 1v2h-1l-1 1v3zm169 0 1-1 1-1v-1h-1l-1 1-1 1v1zm-147-1 1-1v-2l-1 1h-1v2zm13 0v-2h-1v2Zm-1-5 1-1v-1h-2v2zm-28-7 1-1v-2h-2v3zm163 0 1-1v-2h-2v3zm-138-1v-1h-1v1zm140-3v-2h-1v2zm-169-1v-2h-1v2Zm11-2v-1h-1v1zm159-2-2-3-1-2h-2l-1 2v3h3zm-153 0-1-2v-3l-1 1h-1v4h1zm112-1v-1h-1v1zm27-2h2v-2l-2 1-2 1v1zm-156-3h1v-2h-2v2zm17-1 1-1v-2l-1 1h-1v2zm155-2 1-1 1-2h-1v-1l-2 1-1 1v2Zm-24-3v-1h-1v1zm-7-1 2-1 2-1v-3l-2 1-2 2v-3l1-1 2-2 4-3 5-3h1l2-1 1-3 2-3h-2v2l-7 4-6 4-3 3-3 3v4h1zm6-5v-1h-1v1zm14-1 1-1v-3l-1 1h-1zv3zm-8-3v-1h-1v1zm-150-3 3-2v-2h-1l-3 2-2 3v1zm7 0 1-2v-2l-1 1-2 1v4zm152 0 1-1v-1h-1zl-1 1zm-18-3h1v-3l-1 1h-1v2Zm-136-3 1-2v-1h-2l-1 1v3zm3 1 6-8 6-8v-1h-1l-1 1-1 2-5 6-5 6v3zm154-4h2l1-1v-1h-3l-1 1v1zm-156-1h1v-2h-1l-1 1v1zm151-2h1v-2h-1l-1 1v1zm10 0v-2l1-1-1 1-2 1v1Zm3-4v-1h-1v1zm-156-5 3-2 1-1-1-1-3 3-3 3v1zm151 2h2l1-1 2-2 2-4 1-4 1-1v-1l1-3v-4l-2 3-3 3v5l-1 3-1 2-2 2-3 2zm-115-3v-2h-1v2Zm-49-6v-1h-1v1zm12 0v-1h-1v1zm-11-2v-1h-1v1zm13-1 1-1v-2l-1 1h-1v2zm21 0v-1h-1v1zm121-1v-1h-1v1zm5-4v-1h-1v1zm8 0v-1h-1v1zm-135-1h1v-2h-1l-1 1v1zm6-1v-2l1-1v-2l-2 1-1 2v2Zm101-1v-1h-1v1zm30 0v-1h-1v1zm3 0h1v-3l-1-1h-2v2l1 2zm-7-6 1-1h1v-3l1-2h-1l-1-1-1 2-2 3v2Zm-125-2h1v-2l-1 1-2 1v1zm96-1v-1h-1v1zm-110-3h1l-1-1-1-1h-1v2l1 1zm15-4 2-1v-1h-1zl-2 2v1zm104 2v-1h-1v1zm4-2 1-2 1-1h-1l-2 1-1 1v1zm-124-2h2v-1h-1zl-1 1zm131-2 1-2v-1h-2l-1 1v3zm-11-2 3-1v-1l1-1v-3l-1-2 1 1 2 1v-1h1v-3h-3v-2h-1l-1 1v3l-2 4-2 3v3zm-136-1h1v-3l-1 1-2 1 1 1v1zm147-1v-5l-1 1-1 1 1 1zm-152-2h2l1-1v-2h-1l-2 1-1 2Zm159-3 2-3v-5l1-1 1-2-1-2v-1h-3v5l-1 5-1 4v4zm-127 2h1v-2h-2v2zm-25-2 1-2 2-2-1-1-2-2v1l-1 1 1 1v1h-1l-1-1-1 1-1 1 1 1zm24-5 2-3 1-2v-1h-1l-2 3-2 3zm-18-1h1zh-2v1Zm4-4h2l1-2 2-1v-2h-2l-2 2zv1zm137 1h1l1-2v-1l1-1 1-1-1-1-1-2v-5l-1-8v-7h-1v1l-1 5-1 6 1 1 1 2-1 1h-1l1 1 1 2v3l-1 3-1-1h-2v1l2 2zm-16-1v-1h-1v1zm5 0 3-3 3-3-1-1h-1l-2 2-1 2h-3v3zm-24-2 1-1 1-1v-2l-2 1-2 1 1 1zm20 0v-1h-1v1zm-110-1h1zh-2v1Zm110-1v-2h-1v2Zm-100-1 1-1v-2l-1 1h-1v2zm107-2v-2h-2v1l1 1v1zm-138 0h1v-2l-1-2 4-5 4-6h2l2-1v-2l-2-1-2-1h-1v4l-4 4-4 4-1 3-1 3 1 1zm155 0-1-4-1-4 1-1v-1h-2v4l-1 1h-1v3l2 1zm6-1h1v-4l-2-1h-2v1l1 2zm-27-2 1-2v-1h-2l-1 1v3zm-29-1v-1h-1v1zm-108-7 1-1v-2l-1 1h-1v2zm146-1v-1h-1v1zm-138-8v-1h-1v1zm116-1 1-1-1-1-1-1v4zm-111-1 1-1 1-2 1-2-1 1h-1l-1 2-1 2zm-4-1v-1h-1v1zm122-1h1v-2h-2v2zm-122-1h1v-4l-1 1-2 1 1 1zm9-2 1-1v-2h-2v3zm125-1h2l1-2 2-1v-1h-4l-1-1v-4h-2v2l-1 2 1 1 2 1-1 2v1Zm-11-3v-1h-1v1zm17-2-1-2v-3l-1 1-1 1 1 2zm-18-1h1v-4l-1 1h-2v2h1zm-101-2h1v-1l-1-1h-2v2zm2 0v-1h-1zm95-3 2-1 1-1v-2l-1-1h-3v3l-1 3zm15 1v-1h-1v1zm-30-6-3-3-3-3 3 3zm-15-2v-1h-1v1zm3-3-1-2-2-2h-2l2 2zm23-1h1v-2l-2-3-1-4-4-4-4-5-1 1-1 1 3 3 3 3v2l3 4zm-6-1v-1h-1v1zm-2-2-1-1h-1v1zm-74-2v-1h-1v1zm9-1h-3l-4-1v2h4zm54 1v-2h-1v2Zm28 0v-2h-2l1 1zm-22-1h1v-2h-3l1 1zm20-2v-1h-1v1zm-31-1h1zh-2v1Zm4 0 1-1h2l-2-3-2-2h-3l1 2 2 2v2Zm-63-2h1zh-2v1Zm3-1 1-1v-1h-1l-1 1zm42 0h1l-3-4-4-4-1 1 3 3zm8 0-1-1h-1v1zm-44-3v-1h-1v1zm17 0v-1h-1v1zm33-1-1-1v-2h-2v2h1zm-48-1h2v-1h-2l-1 1zm5-2h1v-1h-1l-1-1v2Zm-8-5v-2h-1v2Zm13-2v-2h-3l1 1zm384 545-2 2-4-2-3-1v2h-1l-2-1-1-1-2-1v2l-2-2-3-1v1l-1 1h-3v-1l1-1h-5l-1-1-1-2h-3l1-1v-1h-2l-2 1v-2l-1-2h-1l-1 1 1 1v1h-1l-1-1v-1l-3-3-2-2-2 1-2 1h-1v-1h2l-1-1-2-1h2l2 1 1-2v-1h-7l-2-1-2-5-2-4v-1l-1-1-1-1h-1l-1-1-1-1-1-2-1-1-2 1h-2l-1-1-2-2-2 1h-3v-2h-3v3l-4 2-5 3-4 1-5 1-1 2-1 1h-4v1l-1 1h-3l-3 1v1l1 1-2-1h-1v2l1 2-2-1-2-1v2l-1 1h-3l1-1v-1h-1l-1 1v4h-4l1 1v1h-2v3h-8l-2 1-2 2-1-1h-2l-1 2-1 3h-2v-2l-2 1-1 2-2-1h-1v1l1 1h-5l-1-1v-1h-2v3h-1l-2-1-2-1-2 1-3 1h-1l-1-1 1-1v-1h-6l-3-2-2-1 1 1v1l-1-1-1-1-2 1-1 1-4-1h-3v-2h-1l-2 1-1-1v-1h-2l-2 1-4-2-4-1h-2l-1 1v-2l-3-1-3-1v-3h-1l-6-5-5-6-1 1h-1v-2h-2l-2-1-1-2v-2h-4l-3-3-2-2v-1h5l4 1v-3h-1l-2-1v2h-4v-2h-3l1 2v1h-1l-1-1v1l1 1h-6l-1-1v-1h-4l-1 2-1 2h-2l-1-1-2 2-2 2-3 1-2 1h-1v-1l-2 2-1 2-3 1-3 1-2 2-2 2-2-1-1-1-2 2-1 2-1-1h-1l-2 1-1 2h-1l-2-1-2 4-1 3-1 1-1-2-2-1-1 1v2h-3v-2h-2v2l1 1h-1l-1-1-3 1-2 1-3 1h-6l-2 1v1l1 1h-2v-3l-1 1v1h-7l-1-1-1-2-3 1h-3l-3-2-2-1v1l1 2h-5l-1-1-1-2-1 1h-1v-1l1-1h-7v-3h1l1-1 1-2 1-2-2 1-2 1-1 1-1 2h-3v-3h-5l-1-1v-5l-1 1-1 1h-2v-3l-3-1-2-1v-14h-1l-1 1-4 3-3 3v-1l-1-1 1-1h2v-2h-2l-1 1 1-1v-1h-2l-1 1-1 1-2-2-3-2 1-1 1-1-3-1-3-1-1-3-1-2h-2l-1 1v-4h-2v-2l-1-3h-4v-3h2l1 1v-2l-3-2-2-3-3-2-3-3 1-1v-2l-2-2-3-1v-4h-4l-1-2-1-3 2-3 2-2h-1l-2 1-2 1h-1v-2l1-3h-1l-1 1-1-2-2-1-1-2-1-1-5 1-4 2v3h-2l-1-1-1-1-1 1-1 2h-6v1h-1l-3 1h-3l-1 2-2 2h-3l-4-1 2 1 1 1v2h-4l-4-1v1l-1 1-2-1h-1v4h-1l-1 1-1-2-2-2v1h-1l1 2 1 1-1 1h-2v-1l-1 1-2 1h-2l-3 1v-1l-1-1h-5l-1 1v1h-2l-2-1-1 1v1h-2l-1-1v2h-2l-3-1v3l-1-3-1-2-2 1h-2l2-1 1-1 1 1 1 1h2v-2l-3-1-3-2 1 1v1h-5v-2l-5-2-5-3v-2h-3l-2 1-3-1-3-1v-2l-1-2h-4l-1-1v-2l-1-1-2-2v-2l-1-2 1-1 1-2h-2l-3-4-2-3 2-2 1-1v-1h4v-2l-2-1-3-1v-3h2l1-2 1-3 3 1h2l2-1 1-1h4l4 1v-2l-2-1h-2l1-1v-1l-2-1-1-2 1-1 1-1 3-1 4-1 2 1 2 1h1v-3l1-3h3l-1 2v1h2v3h-3v2l1 1v1h3l-1-1v-1l1 1 1 1h7v-3h-6v-1l1-2 2-3 2-2 2-2h2l1 1 1-1v-1l1 1 1 1 2-2 3-1 1 2v2h5v-1l-2-3-2-2 3-3 3-3h2l3-1v-3l6-4 5-4h4v-2l1-1 1 1 1 1 2-1h3v-3h-2l-1 1v-3l2-1 2-1 1 1h2v-2l2-1h1l2 2 2 2 3 2 2 2v-4l-2-2-1-2v-8h1l2 1-1-3-1-3-1-1h-1v-4l-1-4 1-2 1-1 1-4v-3l1-4 2-4h2l2 1v-2l1-1 1-2 1-2-1-1-2-2v-4h-2l-1-1v3l1 2 1 1h1l-1 3v2h-2l-2-2-2-2v-8l2 1h1v-2l-1-1-2-1 1-1v-1l-1-1-1-2v-3l-1-4v-5h-3v1l-1 1v-27l2-2 1-3h-1l2-2 2-2-1-9v-8l1-2 1-2-1-1-1-1v-1l1-1-1-1-1-2 2-3 1-4 2-2 1-3v-4h-3l1-1 1-1-1-1h-2v-4l1-2 2-2-2-1h-1l1-3v-2h2l1 1 1-2v-1h-1l-1 1-1-3v-2h-2l1-1 1-1-1-3v-3l4-4 4-5v-2l-2 1-2 2h-2v-3l4-1 3-1v-2h-2l-1-1-3 3-3 3h-2v-6h1l1-1 1-4 1-4 1 1h1l-1-2v-2l3-2 3-3v-2l-3 2-4 2v-3l1-3 1-2 2-2 1-3 1-2-3 3-3 3v-10l1-10 3-5 2-4-1 1h-2l1-2v-2l2-2 1-2v-2l-1-1 3-5 2-6v-5l2-1 1-1h1v1l-1 2-1 1v1h1l1-1h2v-1l-1-2 1-2 1-2-1-1-1-2-2 2-2 1h-1v-1l1-3 2-3 1-3 1-4v-5l1-2 1-3 1 1h1l2-2 2-1v-2h-4l1-2 1-2v-6l4-4 4-3 4-4 5-4h9v-2h-12l-1 2-1 2h-3l1-1v-2h1l3-2 3-3 3-2 3-3h3v-3l3-3 4-3h3l3 1v-4h-6l4-2 4-2v-2l3-2 2-3h3v-2l1-2h2l1 2v2h3l7 2 6 2 5 4 5 5 3 2 3 3h1l-2-3-1-2-2-2-2-2 1-1v-2h3l3 2 2 1h1v-1l-2-2-2-2-1 1h-1l1-1v-2l-3-2-3-3h2l2 1 3 1 4 5 5 4 3 5 3 4 2 1 2 1h1v-1l-1-1-2-2-2-4-3-5h-2v-3h-2l-2-3-3-4h1l1-1 2 4 2 3 5 3 5 2 2 3 1 3v-2l2 1h2l1 3 1 2 2 2 3 1 2 3 1 3 2 4 2 4 2 1 1 1v-1l-3-6-3-5 1-2 1-1-1-3-2-2-1 1h-1l-4-3-4-3v-1l-1-1h2l3 1v-1l-2-2-1-1-1-2v-2l-3-1h-2l-3-2-2-3v-1h1l2 2 3 3v-2h6l1 4 1 4 2 3 2 2 6 7 6 8h6v3l2 1 1 1v8h-3v-5l-1-1h-2v-3l-2 1-1 2 1 2 2 2h-1v1h-4v3h2l1 1 2-1 2-1 2 1 1 1 2-2 3-2h1l2-1 1 1 1 2v3l1 3-2-3-3-3v1l-1 1 2 3 2 4h1l1-1 1-1v1l1 1v2l-1 3 1 1 2 2v2h-2l-1-2-2-2-1 1h-1l3 4 3 4v3l-1 3h2l2-1 2-1 2-2v1l1 3v8h2v2l1 1-2 3-2 4v2l1 3h-2l-1 1v2l-1 3h2v-2l1 1h1l-2 2-2 2v1l4 2 3 1 1 1 1 1v2h-2l-2-1 1 1v2l-2 1-2 1v-1h-1l1 1v2h3l4-1-1 5v6l-2 2-2 3v3l-1 3 1 1v2h1l1-1v6l-1 2-1 1-1 7v8l2 1 1 1-2 3-2 3h-2v-1l1-1h-1l-1-1-1 2-1 2 1 2 1 2-1 1h-1v2l1-1 1-1 3 1 2 1v3h-1v-1l-2 3-3 2-3-1h-4v-4l1-2 2-2h-1v-1h-2l-1 3v5l-1-1v-1l-3 2-3 1v2h2l1-1 1-2h3l1 2 2 2h5v4h-3v2h2v2l1 2-1 2-1 2h-1l-2-1v1h-1l1 3 1 4 1 2 1 2-1 1h-1l-1 3-1 3v1l1 1-2 1-2 1v-2l1-1 1-1h-2l-1 2-1 3 2 2 3 1-1 2v2l-2 1-2 1h3v2l1 1-2 1h-1v3h-3v4l-1 1h-2l1 3v3h-3v2l1 1 1 1-2 3-2 4v4l-1 5v5l-2 1h-2l-1 3-1 2-1 1v6l-3 3-2 3v4l-3 1-3 1v1l1 1-4 3-3 3v3l-1 3-5 4-4 5-1 3v3h-2l-1 1-2 2-1 2-1 2 1 1 1 1-2 1h-2l-1 3-1 3h-2l1 1v2l-4 3-4 4v2l-2 1h-2v1l1 1-3 2-3 3-1 2-1 1v2l1 2h-2l-2 1v1l1 1h-3l-1 2-1 2-2-1h-2v3l-2 2-2 2v3l-1 3-1-1h-2v2l-1 2h-3v10l-1 1h-2l1 2 1 1-1 2-2 1v6l2 2 2 1v2l1 2h3v3l-2-1h-2l-1-1-1-2v3l2 4 2 4v1l-2-2-1-2h-2l-1 2-1 3 1 1 1 2 2-1 2-2h1l2 1-1-2v-2h1l1 1 1 1 2 2-2 1h-1v2l-1 2h2l2-1 2-1 3 3 3 3v1h-3l-3-1v2l2 2 1 3 2 2 2 3h2v-2l1-2 2 2 2 3 2-1h1l1 2 1 2-1 2-1 1h2l1 1 1 1v1h-2v3h2v1l-1 2 2 1 2 1v-1l1-1-2-1-2-1h3l3 1h1v4h5v2l3 1 3 1 1-1h1l-1-1v-1l3 1h3l2 1 1 1h3l4-1 2 3 1 2h3v-1l-1-1h1l1-1-1-1-1-2h-4l-4-2-4-3-4 1h-4l-1 1-1 1v-1h-1v-2l1-1 3-1h3l6-1h6l4-2 3-1 6-6 5-5 3-3 3-3 4-2 4-3 1-2v-2h2l1-1v-4h3v-7l1-1h1v-4l-1-3 2-2 1-1v-2l-1 1-2 1v-1l-1-1 1-5 2-6v-4l-1-4 1-3v-3l1 1h1v-2l1-2-1-2-1-3-1-2v-13l1-2 2-2-1-2v-1l1-2 1-3 1-6 1-6 1-6 1-6 1-2 2-2 2-4 3-4v-3l3-1 2-1v-2h-1l-1 1v-4l1-1v-2h3v-5h5l-2-1-1-1 3-3 3-3v-3l2-2 2-1v-1h-1l2-2 2-2h2l1 1 1 2 1-1h1l1 1 2 2 3-1h3v-1h-4l-3-1h-1l1-2 1-2h4l-2-3-1-2v-1h1l3 1 4 1 1-1v-1l-1-1h-3l-1-2v-1l2 1h2v-1l-1-1 1-1v-2h3v-2h5l1-1 1-1 4 1 4 1 1-1h1l-2-1-1-1h-6l1-1v-2h4l2 1 2 1v-2l-2-1-3-1h7l2 2 3 3h3v3h2l3 1-1 1v2l3 1 3 2h1v-2h-2l-2-1-1-2h3l1 2 1 1h4l-1-2-1-1-3-1-3-2h-3l-2-1-4-4-3-4 1-2 1-1h3l3 1 3 2 2 2v-1l1-1h-1l-1-1v-2h8l1-1 1-1h4l3-1v1l-1 1h-3v2l3 1 3 1 1-1v-2l-1-1h2l2-1v-2h-6v-1l1-1 2-1h3l3 2 4 1-1 2-1 1v1l5 2 4 3h8l2 1 2 2h2l2 1-1 1v1h4l1 2 2 1v1h-1l-2-1-3-2h-4l-2-1-2-2h-5l-5-2-6-2h-5l-4-1-3 1-2 1-3-1-2-1h-1v1l1 2 1 2v-3l1 1 1 1h4v2l3 1 3 2 5 1 4 1 3 1h2l2-1 1-2h-3l-5-1-6-1-1-1h-2l1-1 1-1 6 1 5 1 7 2 6 2 4 2 4 1h2l2-1 1 1 1 2h3v2l4 2 3 2v-1h1l-2-2-1-2h-3l-2-2-2-3h-3v-1l1-1-2-2-2-3-5-2-5-3h-6l-5-1-2-2-3-1 1-1h2l3 1 3 2h3l3-1 3 1 2 1 4 3 3 2 4 4 5 3h2v-2l-4-3-3-2-4-3-3-2-2-2-2-2 4 1h4v-1l1-1 1 1h1l-2 1-1 2h2l2 1v2l1 2h2l1 1 1-1v-1h7l3 2 4 2h1v-1l-3-3-3-3 2 1 2 1 2 2 2 2 2 4 2 3v1h-1l-3-1-2-2h-1v1l3 3 3 3-1 1-1 1-4-1-4-2v1l4 3 3 3v3h-2v2l-1 2 1 1h1l-1 1-2 1v3h2l1-1 1-1 1 1 1 1-1 2-1 2v4h2l1-2 1-2 1-7 1-6h2l2-5 2-5 1 1 1 1-1 1-1 1v5l-1 1h-1l1 1v1l2-1 1-2v-2l2-3 2-3v-2l-1-2-2 1h-1v-1l3-4 2-4v-2l-1-1h-1l-1 1-3 5-3 4v3l-1 1-2 2 1-2v-2l1-3 1-3 1-1 2-2v-4h4v-1l-1-1h-2v-2l1-1h1l1 1v1l1-1h1v6h2v7l-1 8v1l-1 1 1 3 2 3-2 4-2 3v3h2l1-4 2-4 1-2v-2h-1l-1 1v-1l-1-2 2-2 2-3 1-5v-5l2-1 1-1-1-1-1-1h-3v-2l-1-1 2-3 1-2v-3l1-1h2v9l-1 3h3v2l1 3-2 1-2 1v3l3 3 3 3-1 2v1h1l1 1v-5l-1-2-1-3v-2l1-1 3 3 3 3h1l-1-1-1-2h1v-1l1-3v-4h-4v1l-1 2-2-3-2-2-1-3v-3l2-2 2-2h3l-1 1-1 2 1 3v5l1-2 1-1v-6h3l-1-2v-2h3l1 1 1 2h-1v1l2 3 3 3v2l3 3 3 3h1l1-1v-1l-1-1h1l1-1v3h3l1-1v-1h2v5h-1l-1 1-1 3-2 3v2l3-3 3-4v3l-1 2v1l-1 2 1 1v1h2l1-1 1 1v5h2v3l-1 2h2l1-1v1h1l-2 4-1 3 1 1 1 2v11l-1 2 1 1h2v3h-1l-1 1-1 6v5l-1 1-1 1v5l-1 5 1 2 1 1h-1l-1-1-1 2v1l-2 3-1 3v5l1 5h-2l-1 1 1 2 1 3-1 3v5h-1l-1-1v1l-1 2 1 1 1 1v3h-3l1 2 1 2-3 1h-4l1 2v1l3-1h3v5l-1 4-1 1-1 1h-1l-1-1v-3h-1l-2 4-2 4v1h1l2-1 1-2v7h2l2 1v2l-1-1h-2v1l-1 1-2-1-1-1v8l-1 5 3 3 3 4v1l1 2-2 3-3 4h-3l1-2v-1l-1-3-1-2h-2l1 1 1 1v7l1 1 1 1v3l-1 3h-2v3l1-1h2l1-2 1-3-1-2v-2l1-1h2v-3h2l2-2 2-1v7l1 2 1 2v6l2 1h1v4l3 3 3 2-1 2v2h3l3 3 4 3v4l2-1h1v-3l1 1h8l1-1 1-1h3l3-1 1-1h1v-4l1-1h1v-4h2l2-1 1-2v-1l-1-1-2-1h3v-2l5-4 6-5h1l1-1-1-2-1-2 2-2 1-3 3-1h3l1-2v-2l2-1 2-2h6l-1 2v1l1 1 2 1-3-1h-3v2l-1 2-3 1-2 1v2h2l2-2 2-2 2 1 1 1 1-1 1-1h2l-1 3v3l2 2 2 1 1-1v-1h7v-3h-5l-1 1-1 1-1-1h-2v-3l1-2h-1l-1-1 1-1v-2l2 1h2v-2l-1-3h2l1 1 1 2v-3l-1-2 2 1h2l1 6v6h2l1-1v2l1 1h1v-1l-1-2-1-2-1-2-1-2h1v-1l4 3 3 2-1 2v1l1 1 1 1 2 4 1 3-1 3-1 2v2h4v4h-4l1 2 1 1v1h-1l1 2 1 2-2 3-1 3h1l1-1v2l-4 5-4 6h4l-1 2-1 2h-2l-2-1-4 5-3 5-3 2-3 2h3l6-5 6-6h1v2l-1 1h-1v5h-3l-1 4v5l-1 1h-1v5h-3v5h-2l-1 1v1l1 2-2 2-2 3h-5l-2-2-2-1h-1v1l3 2 4 2v3l-2 2-2 1v-5l-1 1v2l-1 1-1 1-1-1-1-1 1 2v2l-2 2-3 2-2 1h-3l-2 1-1 1v4h-1l-1-1-1 1v1l-3-1h-3v4h-2v-2l-1-1zM628 757h3v-3h-1v-1l-3 1-2 1v2Zm1740 275 2-1 2-2-2 2zm-1693-1h-1v-1h1zm855 0h-1v-1h1zm524-1v-1l-1-2h2v3zm-352-1v-1h1v1zm736 0h-1zh2v1zm-1564-3h-1v-1h1zm501-2h-1v-1h1zm459-2h-1v-1h1zm-749-4h-1v-3h2v3zm148-1h-1v-1h1zm206 0h-1v-1h1zm1026 0h-1v-1h1zm-1229-2v-2h2l-1 1zm652-2-2 1 1-1 1-1h1l1 1zm-1413-2h-1v-1h1zm1268-1h-1v-1h1zm583 0h-1v-1h1zm-1561-6h-1v-1h1zm-299-1v-1h-1l1-3 1-2h2v2l-1 2zm2017 0h-1zh2v1zm-845-1v-2h2l-1 1zm849 0 1-1v-1h1l-1 1zm-1698-1h-1zl1-1h1v1zm683 0h-1v-1h1zm689-1h-1v-1h1zm-915-1h-1v-2h1v1zm524 0h-1l1-1v-1h1v2zm726 0h-1v-1h1zm-1593-2h-1v-1h1zm1043-2h-1v-2h1v1zm-602-1h-1v-1h1zm799 0h-1v-1h1zm-1079-1h-1v-1h1zm1440-1h-1v-1h1zm8-20h-1l1-1v-1h2l-1 1zm-88-1 1-1v-1h1l-1 1zM344 959h-2l1-1v-2h3v1l-1 2zm163 0h-1v-1h1zm11 0h-1zh2v1zm2007 0h-4l2-1 2-1 3-2 3-1v1l-1 2-2 2zm-128-1h-1v-1h1zm-1892-2h-1zh2v1zm2021-2h-2v-1l1-1h1l1 1v1zm-2158-3h-1v-1l1-1h1v2zm1647-1-1 1-1-1-2-2h1l1-1 1 1 1 1zm-891 0h-1v-1h1zm1117 0h-2v-2h2l2-1h1v2l-1 1Zm-232-1-3-1-3-1v-2h3v1l1 1h4v2zm524-1h-1v-1l1-1h2v2zm-287-1h-1v-2h5l-2 1zm-866-6h-1v-2h1v1zm1162 0v-1l-1-1h1l1-1v3Zm-1281-4-1 1v-2l-1-1v-1h1l1 1 1 1zm-851 0h-1v-2h1v1Zm2135-1-2 1v-2l1-1h2v1zm-148-2h-1v-1h1zm-1529-7h-1v-1h1zm259-1-1 1v-1l-1-1h1l1-1v1l1 1zm1352-3h-1v-1h1zm-1100-1-1-1v-1h3v2zm701-1 1-1v-1h1l-1 1zm-107-1v-1h-1l1-1v-1h2v3zm445-2h-1v-3l1 1h1v2Zm-448-1h-1v-1h1zm0-2h-1v-1h1zm453-3h-1v-1h1zm-1532-3h-2v-1l-1-1h1l1-1 2 2 2 1zm-85-4-1-2-1-2v-4h1l1-1 1 4 1 3zm1374-3-2 1-1-1-1-1v-3l2 1h2l1 1v1zm-83 0h-1zh2v1zm-1801-2h-1l-2-1h-1v-2h3l2 1v2zm164-1v-2l-1-1h2v1l1 1zm-160-1h-1v-1h1zm2241-5h-1v-1h1zm6-3-3 2-1-1-1-2 2-3 2-3 2 1 1 2v2zm-1739 1h-1v-2l1 1h1v1Zm453 0h-1v-2h1v1zm923-2-1 1v-2l3-2 2-3h2l-2 3-2 3zm-1863-1h-1v-2l1-1h1v2zm3-2h-1v-1h1zm738 0h-2v-2h2l1 1v1zm677 0h-1v-1h1zm-1402-5v-3h2l-1 2zm925-4h-1v-1h1zm-792-9h-1v-1h1zm1630-1h-1v-3h1l1-1 1 1 2 1-2 1zm-204-10h-1v-1h1zm563-1h-1v-1h1zm2-6h-1v-1h1zm-1403-6h-1v-1h1zm96-3-1-2-1-1h3v1l1 1zm738-10h-1v-1h1zm578-5h-1v-1l1-1h1v2zm-2083-6v-1l-1-1 1-1v-2l1 1 1 2v2Zm1288-6h-1v-1h1zm-1286-1h-1v-1h1zm0-3h-1v-1h1zm569-2h-1v-2h3l-1 1zm81 0v-1h1v1zm-80-3h-1v-3h2v2zm491-4h-1v-1h1zm4-5h-1v-1h1zm4-4h-1v-3h1l1 1v1zm-1075-7h-1v-4h2v4zm1079-4h-1v-2h1v1zm1003-1h-1l1-7v-7h1l1 1h2l-1 6-2 6zm-1090-1h-1v-1h1zm265-1-1-1-1-1v-3h3l-2-1-2-1 1-1 1-1 2 1h2v2l1 2-1 2-1 2zm451-2h-1v-2h2v2zm-1342-6h-1zh2v1zm3 0h-1v-2h1v1zm890-5-3 2v-1l-1-2 2-1 2-2h2v3zm825-1-1-1-1-2h1v-1h5l-2 1h-1zv1zm-1854 0h-1v-1h1zm1-2h-1zh2v1zm1024-1h-1zh2v1zm-821-1v-1l-1-1h2v2zm824-1h-1v-2h1v1zm825-1v-1h-1v-2h3v3zm-976-4h-1zh2v1zm173 0h-1v-1h1zm89 0h-1v-1h1zm565-1-1 1v-1l-1-2h1l1-1 1 1v1zm-674 0h-1v-4h4l-2 1-1 1v1l1 1zm109-1v-1h1v1zm-100-3h-1v-1h1zm-867-1h-1v-1h1zm437 0h-1zh2v1zm-538-3h-1v-1h1zm566 0v-1h-1v-2l3-1 4-1 1 1h2v2l-4 1zm342-1h-1v-1h1zm-789-2h-1v-2h1v1Zm744 0h-1v-1h1zm-344-2-2-3-2-3h-2l-2-3-2-3h1l6 4 5 4v3zm135 0v-1h-1v-3h2l1 1v-4l-2-1-2-1 1-1h1l2 2 3 1 1 3 1 3h-2l-2-1zm284 1v-3l1 1h1l-1 1zm-99-1-1-1-1-2 1-2 1-2h4l4-1v2h4l-1 2-1 2-1-1-1-1h-3l-3-1v2l1 2zm-204-2-1-1-1-1v-3l-4-2-4-2-4-4-5-3 1-1h1l3 1 3 1v2l3 1 2 1 1-1h1l1 1v2h2v-1l-1-2h2l1 1v2l2 1 2 1v-2l-1-2 2 1h1l2 2 1 2v1l-3-1h-2v1l1 1h-2l-2-2-2-2v2l1 2 1 2zm29 1h-1v-1h1zm159-1-1-1-1-1h1l1-1 1 1 1 1zm124 0-2 1v-3l1-3v-3h2l1 3 1 3v1Zm620-1-1 2-1-2-1-2 1-1h1l1 1 1 1zm-648 1h-1v-1h1zm66 0h-1v-1h1zm-1283-1h-1v-2h1v1zm351 0-5-2-4-1v-2h2l3 2 4 1zm62 0h-1v-3h1l2-1v1l1 2h-1v1Zm463 0h-1v-1h1zm-56-2-3-4-3-3v-1h1l3 3zm362 0-1 1-4-1-3-1-2-1-3-2v-2h2l3 2 3 1v-1l3 1 3 2v1zm-20 0h-1zh2v1zm-553-1h-1v-2h1v1Zm144-1-3 1v-2l3-1 2-1h2l1 1-1 1-1 1zm-753 0h-1v-2h1v1Zm383 0h-2v-2h2l1 1v1zm574 0-4-4-4-5h2l1 2 1 1h2l2 1h1v3l1 2zm202 0-1-1v-1h2l1 1v1zm-876-1v-3l1 1h1l-1 1zm42 0h-2l-1-1-1-1v-2h3l1 2 2 2zm9 0h-2l-1-1v-1h3l1 1v1zm68 0h-1v-1h1zm358 0h-1v-1h1zm1294-1h-1v-2h2v2zm-1736-1h-1v-2l1 1h1v1Zm630 0-1-2-1-2h2v2zm217 0h-1v-1h1zm225 0h-2l-1-1v-1h4v2zm-601-1-3-2-4-3v1h-1l-2-1-2-1v-2l3 1h3l3 2 2 1h4v1h1l-1 2zm122-1-1-1-1-2h2l1 1zm-217-1h-1v-1h1zm67 0h-3v-1l1-1h1l2 1h1v1zm6 0h-3v-3h3l4 1v2zm6 0h-1v-1h1zm378 0h-2zh2v1zm-474-1h-2v-2h2l1 1v1zm208 0h-1v-2h2v2zm-194-1h-1v-1h1zm244 0h-2l-2-2-1-2v-1h1l1 1v1h2l2 1 1 1v1zm-262-1-1-1v-1h2v2zm1196 0h-1v-1h1zm159 0h-1l-2-1h-1v-2h2l2 1 1 1v1zm7-1-2-1-1-1h2zm-1109-1h-1v-2l1 1h1v1Zm1070-1h-3v-3l3 1 3 1v1Zm-1347-1h-1v-1h1zm255 0-2-1-1-1v-1h2l2 1v2Zm16 0-1-1h-6l-5-1v-2h10l2 1zm748-2h-1v-2h1v1zm-1021-1h-1v-2l-2 1h-2v-3l3 1h3v3Zm17-1h-1l-1-1v-2h-3l1-1h1l3 1 2 1v2Zm10-1-2 1v-2l-1-1v-1h1l2 1 3 1v1l1 1h-2l-1-1v-1zm1314 1h-1v-2h3v1zm-1350-1-1-1h-2l-1-1h-2l2-1 2-1 2 1 2 1zm1357-1v-1h-1v1zm-1 1h-1v-1l1-2h2v2zm6 0h-1v-1h1zm-1347-3h-2v-2h4v2zm-651-4h-1v-1h1zm1413-1h-1v-1h1zm-1410-5h-2v-1h-1l1-1v-1h2v2zm176-17h-1v-1h1zm6-14h-1v-1h1zm1-16-2 2v-3l1-1 1-1 1 1 1 1zm1698-17h-1v-1h1zm-1693-5h-1v-1h1zm1693-23-1-1-1-1v-2l1-1 1 2zM582 586h-1v-1h1zm-172-18h-1v-1h1zm160-20h-1v-1h1zm5-4-1-1-1-1v-3h3v5zm-3-6h-1v-2h1v1Zm1683-4h-1v-1h1zm-347-2-1 1v-2l1-2 1-2h2l-1 2v2zm210 0 1-1v-1h1l-1 1zm135-1h-2v-2h2v1l1 1zm-1833-8h-1v-1l1-1 1-1h1v1l-1 1zm1514-12h-1v-1h1zm3-2h-1v-1h1zm6 0h-1v-1l1-1 1-1 2-1h1v1l-1 1-1 2zm-10-2-2 1zl2-2h3v2l1-1h1v1l-1 1h-1l-1-1zm-1497-4h-1v-1h1zm111 0h-2v-10h1l1-1v1l1 1-1 1h-1l1 1 1 2v2l1 2zm6-1h-1l-1-2v-2h1l1 2 1 2Zm-111-4-2 2v-3l2-1h2v1zm1770 2h-1v-1h1zm-56-3v-1l3-1 2-2 1 1 1 1-3 1zm52 0h-2v-1l-1-2v-2l-2-2-1-1h3v2l2 1 3 1v4zm-212-3-1-1v-1h2v2zm15-1h-1zh2v1zm153-1h-1v-1h1zm33-1-2 1 1-1 1-1h1l1 1zm-249 0h-1zh2v1zm60 0h-1zh2v1zm166 0h-1zh2v1zm3 0h-1v-1h1zm-1641-2v-1l-1-1h2v2zm-12-1-1-1v-1l-4-2-3-1v-2h2l1 1v1h4l1 3 2 2zm-32-1h-2v-1h-1l1-3 1-3h3l1 2 1 1h-4l1 2v2zm1502 0-2-1-1-1v-1h1l2 1 1 2zm202 0h-1v-2h2v2zm-1662-1h-1v-1h1zm1447 0h-1zh2v1zm-3-2h-2v-2h3v2zm7 0h-1v-1h1zm-11-2h-1v-1h1zm-1490-1h-3l-3-1-3-1-3-2-2-2h2l2 1 2-1 2-1 5 2 5 3v2zm28-2h-1v-1h1z" style="fill:#e8dcc8;fill-opacity:1"/><ellipse cx="1782" cy="643" rx="49" ry="46" style="fill:#e07a5f;fill-opacity:1"/></g></svg>